Aleo-Italic.ufo
<glyph name="quotedbl" format="1">
  <advance width="350"/>
  <unicode hex="0022"/>
  <note>
    quotedbl
  </note>
  <outline>
    <contour>
      <point x="156" y="716" type="line"/>
      <point x="79" y="716" type="line"/>
      <point x="61" y="572" type="line"/>
      <point x="60" y="494" type="line"/>
      <point x="61" y="483"/>
      <point x="63" y="475"/>
      <point x="67" y="469" type="curve" smooth="yes"/>
      <point x="71" y="463"/>
      <point x="77" y="460"/>
      <point x="86" y="460" type="curve" smooth="yes"/>
      <point x="96" y="460"/>
      <point x="104" y="463"/>
      <point x="109" y="469" type="curve" smooth="yes"/>
      <point x="114" y="475"/>
      <point x="119" y="483"/>
      <point x="121" y="494" type="curve"/>
      <point x="139" y="572" type="line"/>
    </contour>
    <contour>
      <point x="323" y="716" type="line"/>
      <point x="245" y="716" type="line"/>
      <point x="228" y="572" type="line"/>
      <point x="226" y="494" type="line"/>
      <point x="227" y="483"/>
      <point x="229" y="475"/>
      <point x="233" y="469" type="curve" smooth="yes"/>
      <point x="237" y="463"/>
      <point x="243" y="460"/>
      <point x="252" y="460" type="curve" smooth="yes"/>
      <point x="262" y="460"/>
      <point x="271" y="463"/>
      <point x="276" y="469" type="curve" smooth="yes"/>
      <point x="281" y="475"/>
      <point x="286" y="483"/>
      <point x="288" y="494" type="curve" smooth="yes"/>
      <point x="305" y="572" type="line"/>
    </contour>
  </outline>
</glyph>
<glyph name="numbersign" format="1">
  <advance width="568"/>
  <unicode hex="0023"/>
  <note>
    numbersign
  </note>
  <outline>
    <contour>
      <point x="373" y="212" type="line"/>
      <point x="492" y="212" type="line"/>
      <point x="500" y="240" type="line"/>
      <point x="501" y="242"/>
      <point x="501" y="244"/>
      <point x="501" y="246" type="curve" smooth="yes"/>
      <point x="501" y="248"/>
      <point x="502" y="249"/>
      <point x="502" y="251" type="curve"/>
      <point x="503" y="261"/>
      <point x="502" y="267"/>
      <point x="498" y="271" type="curve" smooth="yes"/>
      <point x="494" y="275"/>
      <point x="488" y="277"/>
      <point x="480" y="277" type="curve" smooth="yes"/>
      <point x="391" y="277" type="line"/>
      <point x="443" y="440" type="line"/>
      <point x="512" y="440" type="line" smooth="yes"/>
      <point x="525" y="440"/>
      <point x="534" y="443"/>
      <point x="541" y="447" type="curve" smooth="yes"/>
      <point x="548" y="451"/>
      <point x="553" y="458"/>
      <point x="556" y="468" type="curve" smooth="yes"/>
      <point x="567" y="506" type="line"/>
      <point x="461" y="506" type="line"/>
      <point x="519" y="683" type="line"/>
      <point x="520" y="685"/>
      <point x="520" y="687"/>
      <point x="520" y="690" type="curve"/>
      <point x="521" y="698"/>
      <point x="520" y="704"/>
      <point x="515" y="709" type="curve" smooth="yes"/>
      <point x="510" y="714"/>
      <point x="503" y="716"/>
      <point x="495" y="716" type="curve" smooth="yes"/>
      <point x="455" y="716" type="line"/>
      <point x="387" y="506" type="line"/>
      <point x="264" y="506" type="line"/>
      <point x="332" y="716" type="line"/>
      <point x="292" y="716" type="line" smooth="yes"/>
      <point x="282" y="716"/>
      <point x="273" y="714"/>
      <point x="265" y="708" type="curve" smooth="yes"/>
      <point x="257" y="702"/>
      <point x="251" y="694"/>
      <point x="248" y="684" type="curve" smooth="yes"/>
      <point x="190" y="505" type="line"/>
      <point x="111" y="505" type="line" smooth="yes"/>
      <point x="98" y="505"/>
      <point x="89" y="503"/>
      <point x="82" y="498" type="curve" smooth="yes"/>
      <point x="75" y="493"/>
      <point x="71" y="487"/>
      <point x="68" y="477" type="curve" smooth="yes"/>
      <point x="57" y="440" type="line"/>
      <point x="173" y="440" type="line"/>
      <point x="120" y="277" type="line"/>
      <point x="18" y="277" type="line"/>
      <point x="11" y="248" type="line"/>
      <point x="10" y="246"/>
      <point x="9" y="244"/>
      <point x="9" y="242" type="curve" smooth="yes"/>
      <point x="9" y="240"/>
      <point x="8" y="239"/>
      <point x="8" y="237" type="curve"/>
      <point x="7" y="228"/>
      <point x="8" y="221"/>
      <point x="12" y="217" type="curve" smooth="yes"/>
      <point x="16" y="213"/>
      <point x="22" y="211"/>
      <point x="30" y="211" type="curve" smooth="yes"/>
      <point x="103" y="211" type="line"/>
      <point x="34" y="0" type="line"/>
      <point x="74" y="0" type="line" smooth="yes"/>
      <point x="84" y="0"/>
      <point x="92" y="3"/>
      <point x="100" y="8" type="curve" smooth="yes"/>
      <point x="108" y="13"/>
      <point x="115" y="22"/>
      <point x="119" y="34" type="curve" smooth="yes"/>
      <point x="176" y="211" type="line"/>
      <point x="300" y="211" type="line"/>
      <point x="243" y="38" type="line"/>
      <point x="242" y="36"/>
      <point x="242" y="35"/>
      <point x="242" y="34" type="curve" smooth="yes"/>
      <point x="242" y="33"/>
      <point x="241" y="31"/>
      <point x="241" y="30" type="curve"/>
      <point x="240" y="21"/>
      <point x="241" y="14"/>
      <point x="246" y="8" type="curve" smooth="yes"/>
      <point x="251" y="2"/>
      <point x="257" y="0"/>
      <point x="265" y="0" type="curve" smooth="yes"/>
      <point x="305" y="0" type="line"/>
    </contour>
    <contour>
      <point x="194" y="277" type="line"/>
      <point x="246" y="440" type="line"/>
      <point x="370" y="440" type="line"/>
      <point x="317" y="277" type="line"/>
    </contour>
  </outline>
</glyph>
<glyph name="plus" format="1">
  <advance width="507"/>
  <unicode hex="002B"/>
  <note>
    plus
  </note>
  <outline>
    <contour>
      <point x="322" y="583" type="line"/>
      <point x="249" y="583" type="line"/>
      <point x="222" y="370" type="line"/>
      <point x="20" y="370" type="line"/>
      <point x="12" y="302" type="line"/>
      <point x="214" y="302" type="line"/>
      <point x="188" y="87" type="line"/>
      <point x="261" y="87" type="line"/>
      <point x="287" y="302" type="line"/>
      <point x="490" y="302" type="line"/>
      <point x="499" y="370" type="line"/>
      <point x="295" y="370" type="line"/>
    </contour>
  </outline>
</glyph>
<glyph name="hyphen" format="1">
  <advance width="360"/>
  <unicode hex="002D"/>
  <note>
    hyphen
  </note>
  <outline>
    <contour>
      <point x="62" y="338" type="line"/>
      <point x="52" y="262" type="line"/>
      <point x="300" y="262" type="line"/>
      <point x="309" y="338" type="line"/>
    </contour>
  </outline>
</glyph>
<glyph name="period" format="1">
  <advance width="223"/>
  <unicode hex="002E"/>
  <note>
    period
  </note>
  <outline>
    <contour>
      <point x="40" y="46"/>
      <point x="40" y="38"/>
      <point x="42" y="30" type="curve" smooth="yes"/>
      <point x="44" y="22"/>
      <point x="48" y="16"/>
      <point x="53" y="10" type="curve" smooth="yes"/>
      <point x="58" y="4"/>
      <point x="64" y="0"/>
      <point x="71" y="-3" type="curve" smooth="yes"/>
      <point x="78" y="-6"/>
      <point x="86" y="-8"/>
      <point x="95" y="-8" type="curve" smooth="yes"/>
      <point x="104" y="-8"/>
      <point x="112" y="-6"/>
      <point x="120" y="-3" type="curve" smooth="yes"/>
      <point x="128" y="0"/>
      <point x="136" y="4"/>
      <point x="142" y="10" type="curve" smooth="yes"/>
      <point x="148" y="16"/>
      <point x="153" y="22"/>
      <point x="157" y="30" type="curve" smooth="yes"/>
      <point x="161" y="38"/>
      <point x="164" y="46"/>
      <point x="165" y="55" type="curve" smooth="yes"/>
      <point x="166" y="64"/>
      <point x="165" y="72"/>
      <point x="163" y="80" type="curve" smooth="yes"/>
      <point x="161" y="88"/>
      <point x="158" y="93"/>
      <point x="153" y="99" type="curve" smooth="yes"/>
      <point x="148" y="105"/>
      <point x="141" y="110"/>
      <point x="134" y="113" type="curve" smooth="yes"/>
      <point x="127" y="116"/>
      <point x="119" y="118"/>
      <point x="110" y="118" type="curve" smooth="yes"/>
      <point x="101" y="118"/>
      <point x="93" y="116"/>
      <point x="85" y="113" type="curve" smooth="yes"/>
      <point x="77" y="110"/>
      <point x="70" y="105"/>
      <point x="64" y="99" type="curve" smooth="yes"/>
      <point x="58" y="93"/>
      <point x="52" y="88"/>
      <point x="48" y="80" type="curve" smooth="yes"/>
      <point x="44" y="72"/>
      <point x="42" y="64"/>
      <point x="41" y="55" type="curve" smooth="yes"/>
    </contour>
  </outline>
</glyph>
<glyph name="seven" format="1">
  <advance width="541"/>
  <unicode hex="0037"/>
  <note>
    seven
  </note>
  <outline>
    <contour>
      <point x="53" y="716" type="line"/>
      <point x="32" y="542" type="line"/>
      <point x="81" y="542" type="line" smooth="yes"/>
      <point x="92" y="542"/>
      <point x="99" y="548"/>
      <point x="103" y="559" type="curve"/>
      <point x="105" y="563"/>
      <point x="110" y="588"/>
      <point x="119" y="634" type="curve"/>
      <point x="439" y="634" type="line"/>
      <point x="428" y="623"/>
      <point x="418" y="609"/>
      <point x="406" y="591" type="curve" smooth="yes"/>
      <point x="32" y="0" type="line"/>
      <point x="96" y="0" type="line" smooth="yes"/>
      <point x="118" y="0"/>
      <point x="135" y="11"/>
      <point x="148" y="32" type="curve" smooth="yes"/>
      <point x="518" y="630" type="line" smooth="yes"/>
      <point x="527" y="644"/>
      <point x="534" y="659"/>
      <point x="536" y="676" type="curve" smooth="yes"/>
      <point x="540" y="716" type="line"/>
    </contour>
  </outline>
</glyph>
<glyph name="eight" format="1">
  <advance width="550"/>
  <unicode hex="0038"/>
  <note>
    eight
  </note>
  <outline>
    <contour>
      <point x="268" y="-8"/>
      <point x="300" y="-4"/>
      <point x="331" y="6" type="curve" smooth="yes"/>
      <point x="362" y="16"/>
      <point x="390" y="29"/>
      <point x="413" y="47" type="curve" smooth="yes"/>
      <point x="436" y="65"/>
      <point x="455" y="86"/>
      <point x="470" y="111" type="curve" smooth="yes"/>
      <point x="485" y="136"/>
      <point x="494" y="165"/>
      <point x="498" y="196" type="curve" smooth="yes"/>
      <point x="504" y="242"/>
      <point x="496" y="280"/>
      <point x="476" y="310" type="curve" smooth="yes"/>
      <point x="456" y="340"/>
      <point x="424" y="361"/>
      <point x="381" y="374" type="curve"/>
      <point x="420" y="388"/>
      <point x="451" y="408"/>
      <point x="474" y="436" type="curve" smooth="yes"/>
      <point x="497" y="464"/>
      <point x="510" y="497"/>
      <point x="515" y="536" type="curve" smooth="yes"/>
      <point x="518" y="562"/>
      <point x="517" y="587"/>
      <point x="509" y="610" type="curve" smooth="yes"/>
      <point x="501" y="633"/>
      <point x="489" y="653"/>
      <point x="472" y="670" type="curve" smooth="yes"/>
      <point x="455" y="687"/>
      <point x="433" y="700"/>
      <point x="408" y="710" type="curve" smooth="yes"/>
      <point x="383" y="720"/>
      <point x="354" y="724"/>
      <point x="322" y="724" type="curve" smooth="yes"/>
      <point x="289" y="724"/>
      <point x="259" y="720"/>
      <point x="231" y="710" type="curve" smooth="yes"/>
      <point x="203" y="700"/>
      <point x="179" y="687"/>
      <point x="158" y="670" type="curve" smooth="yes"/>
      <point x="137" y="653"/>
      <point x="120" y="633"/>
      <point x="107" y="610" type="curve" smooth="yes"/>
      <point x="94" y="587"/>
      <point x="85" y="562"/>
      <point x="82" y="536" type="curve" smooth="yes"/>
      <point x="77" y="497"/>
      <point x="83" y="464"/>
      <point x="99" y="436" type="curve" smooth="yes"/>
      <point x="115" y="408"/>
      <point x="140" y="387"/>
      <point x="176" y="373" type="curve"/>
      <point x="130" y="360"/>
      <point x="93" y="340"/>
      <point x="65" y="310" type="curve" smooth="yes"/>
      <point x="37" y="280"/>
      <point x="21" y="242"/>
      <point x="15" y="196" type="curve" smooth="yes"/>
      <point x="11" y="165"/>
      <point x="13" y="136"/>
      <point x="22" y="111" type="curve" smooth="yes"/>
      <point x="31" y="86"/>
      <point x="45" y="65"/>
      <point x="64" y="47" type="curve" smooth="yes"/>
      <point x="83" y="29"/>
      <point x="107" y="16"/>
      <point x="135" y="6" type="curve" smooth="yes"/>
      <point x="164" y="-4"/>
      <point x="196" y="-8"/>
      <point x="232" y="-8" type="curve" smooth="yes"/>
    </contour>
    <contour>
      <point x="217" y="63"/>
      <point x="197" y="67"/>
      <point x="179" y="73" type="curve" smooth="yes"/>
      <point x="161" y="79"/>
      <point x="146" y="88"/>
      <point x="135" y="100" type="curve" smooth="yes"/>
      <point x="124" y="112"/>
      <point x="116" y="127"/>
      <point x="111" y="143" type="curve" smooth="yes"/>
      <point x="106" y="159"/>
      <point x="105" y="177"/>
      <point x="107" y="197" type="curve" smooth="yes"/>
      <point x="110" y="222"/>
      <point x="117" y="243"/>
      <point x="127" y="261" type="curve" smooth="yes"/>
      <point x="137" y="279"/>
      <point x="151" y="292"/>
      <point x="166" y="303" type="curve" smooth="yes"/>
      <point x="181" y="314"/>
      <point x="197" y="323"/>
      <point x="216" y="328" type="curve" smooth="yes"/>
      <point x="235" y="333"/>
      <point x="254" y="335"/>
      <point x="274" y="335" type="curve" smooth="yes"/>
      <point x="294" y="335"/>
      <point x="312" y="333"/>
      <point x="329" y="328" type="curve" smooth="yes"/>
      <point x="346" y="323"/>
      <point x="362" y="314"/>
      <point x="374" y="303" type="curve" smooth="yes"/>
      <point x="386" y="292"/>
      <point x="396" y="279"/>
      <point x="402" y="261" type="curve" smooth="yes"/>
      <point x="408" y="243"/>
      <point x="409" y="222"/>
      <point x="406" y="197" type="curve" smooth="yes"/>
      <point x="404" y="177"/>
      <point x="398" y="159"/>
      <point x="389" y="143" type="curve" smooth="yes"/>
      <point x="380" y="127"/>
      <point x="369" y="112"/>
      <point x="355" y="100" type="curve" smooth="yes"/>
      <point x="341" y="88"/>
      <point x="323" y="79"/>
      <point x="304" y="73" type="curve" smooth="yes"/>
      <point x="285" y="67"/>
      <point x="263" y="63"/>
      <point x="240" y="63" type="curve" smooth="yes"/>
    </contour>
    <contour>
      <point x="260" y="407"/>
      <point x="240" y="411"/>
      <point x="224" y="418" type="curve" smooth="yes"/>
      <point x="208" y="425"/>
      <point x="197" y="434"/>
      <point x="188" y="446" type="curve" smooth="yes"/>
      <point x="179" y="458"/>
      <point x="173" y="472"/>
      <point x="170" y="487" type="curve" smooth="yes"/>
      <point x="167" y="502"/>
      <point x="167" y="518"/>
      <point x="169" y="534" type="curve" smooth="yes"/>
      <point x="171" y="551"/>
      <point x="176" y="566"/>
      <point x="183" y="581" type="curve" smooth="yes"/>
      <point x="190" y="596"/>
      <point x="200" y="609"/>
      <point x="212" y="620" type="curve" smooth="yes"/>
      <point x="224" y="631"/>
      <point x="239" y="640"/>
      <point x="256" y="646" type="curve" smooth="yes"/>
      <point x="273" y="652"/>
      <point x="292" y="655"/>
      <point x="313" y="655" type="curve" smooth="yes"/>
      <point x="334" y="655"/>
      <point x="353" y="652"/>
      <point x="368" y="646" type="curve" smooth="yes"/>
      <point x="383" y="640"/>
      <point x="397" y="631"/>
      <point x="406" y="620" type="curve" smooth="yes"/>
      <point x="415" y="609"/>
      <point x="421" y="596"/>
      <point x="425" y="581" type="curve" smooth="yes"/>
      <point x="429" y="566"/>
      <point x="430" y="551"/>
      <point x="428" y="534" type="curve" smooth="yes"/>
      <point x="426" y="518"/>
      <point x="422" y="502"/>
      <point x="415" y="487" type="curve" smooth="yes"/>
      <point x="408" y="472"/>
      <point x="400" y="458"/>
      <point x="388" y="446" type="curve" smooth="yes"/>
      <point x="376" y="434"/>
      <point x="361" y="425"/>
      <point x="344" y="418" type="curve" smooth="yes"/>
      <point x="327" y="411"/>
      <point x="306" y="407"/>
      <point x="283" y="407" type="curve" smooth="yes"/>
    </contour>
  </outline>
</glyph>
<glyph name="B" format="1">
  <advance width="626"/>
  <unicode hex="0042"/>
  <note>
    B
  </note>
  <outline>
    <contour>
      <point x="501" y="382"/>
      <point x="537" y="404"/>
      <point x="564" y="433" type="curve" smooth="yes"/>
      <point x="577" y="447"/>
      <point x="587" y="462"/>
      <point x="595" y="478" type="curve" smooth="yes"/>
      <point x="603" y="494"/>
      <point x="607" y="515"/>
      <point x="610" y="538" type="curve" smooth="yes"/>
      <point x="613" y="561"/>
      <point x="611" y="585"/>
      <point x="604" y="608" type="curve" smooth="yes"/>
      <point x="582" y="680"/>
      <point x="507" y="716"/>
      <point x="379" y="716" type="curve" smooth="yes"/>
      <point x="79" y="716" type="line"/>
      <point x="74" y="674" type="line" smooth="yes"/>
      <point x="73" y="664"/>
      <point x="76" y="657"/>
      <point x="86" y="655" type="curve" smooth="yes"/>
      <point x="92" y="654"/>
      <point x="111" y="650"/>
      <point x="142" y="644" type="curve"/>
      <point x="72" y="73" type="line"/>
      <point x="14" y="62" type="line" smooth="yes"/>
      <point x="4" y="60"/>
      <point x="-3" y="53"/>
      <point x="-4" y="43" type="curve" smooth="yes"/>
      <point x="-9" y="0" type="line"/>
      <point x="316" y="0" type="line" smooth="yes"/>
      <point x="395" y="0"/>
      <point x="459" y="18"/>
      <point x="509" y="56" type="curve" smooth="yes"/>
      <point x="557" y="93"/>
      <point x="585" y="142"/>
      <point x="593" y="204" type="curve" smooth="yes"/>
      <point x="604" y="293"/>
      <point x="558" y="347"/>
      <point x="455" y="368" type="curve"/>
    </contour>
    <contour>
      <point x="239" y="640" type="line"/>
      <point x="370" y="640" type="line" smooth="yes"/>
      <point x="423" y="640"/>
      <point x="461" y="630"/>
      <point x="484" y="610" type="curve" smooth="yes"/>
      <point x="507" y="590"/>
      <point x="516" y="560"/>
      <point x="511" y="518" type="curve" smooth="yes"/>
      <point x="509" y="500"/>
      <point x="503" y="483"/>
      <point x="495" y="468" type="curve" smooth="yes"/>
      <point x="469" y="420"/>
      <point x="417" y="396"/>
      <point x="337" y="396" type="curve" smooth="yes"/>
      <point x="209" y="396" type="line"/>
    </contour>
    <contour>
      <point x="169" y="77" type="line"/>
      <point x="200" y="326" type="line"/>
      <point x="355" y="326" type="line" smooth="yes"/>
      <point x="408" y="326"/>
      <point x="445" y="316"/>
      <point x="469" y="294" type="curve" smooth="yes"/>
      <point x="493" y="272"/>
      <point x="503" y="243"/>
      <point x="498" y="206" type="curve" smooth="yes"/>
      <point x="496" y="187"/>
      <point x="490" y="170"/>
      <point x="482" y="154" type="curve" smooth="yes"/>
      <point x="456" y="102"/>
      <point x="404" y="77"/>
      <point x="324" y="77" type="curve" smooth="yes"/>
    </contour>
    <contour>
      <point x="369" y="716" type="move" name="top"/>
    </contour>
    <contour>
      <point x="283" y="0" type="move" name="bottom"/>
    </contour>
  </outline>
</glyph>
<glyph name="G" format="1">
  <advance width="678"/>
  <unicode hex="0047"/>
  <note>
    G
  </note>
  <outline>
    <contour>
      <point x="266" y="70"/>
      <point x="207" y="95"/>
      <point x="165" y="146" type="curve" smooth="yes"/>
      <point x="122" y="198"/>
      <point x="106" y="269"/>
      <point x="117" y="358" type="curve" smooth="yes"/>
      <point x="128" y="445"/>
      <point x="160" y="513"/>
      <point x="214" y="564" type="curve" smooth="yes"/>
      <point x="240" y="588"/>
      <point x="270" y="608"/>
      <point x="304" y="621" type="curve" smooth="yes"/>
      <point x="338" y="634"/>
      <point x="381" y="640"/>
      <point x="429" y="640" type="curve" smooth="yes"/>
      <point x="477" y="640"/>
      <point x="520" y="635"/>
      <point x="556" y="625" type="curve"/>
      <point x="565" y="622"/>
      <point x="578" y="619"/>
      <point x="593" y="614" type="curve"/>
      <point x="591" y="559"/>
      <point x="589" y="528"/>
      <point x="589" y="523" type="curve"/>
      <point x="590" y="512"/>
      <point x="596" y="506"/>
      <point x="608" y="506" type="curve" smooth="yes"/>
      <point x="656" y="506" type="line"/>
      <point x="676" y="673" type="line"/>
      <point x="589" y="707"/>
      <point x="508" y="724"/>
      <point x="430" y="724" type="curve" smooth="yes"/>
      <point x="319" y="724"/>
      <point x="225" y="691"/>
      <point x="150" y="623" type="curve" smooth="yes"/>
      <point x="76" y="556"/>
      <point x="32" y="468"/>
      <point x="18" y="358" type="curve" smooth="yes"/>
      <point x="5" y="250"/>
      <point x="27" y="161"/>
      <point x="85" y="93" type="curve" smooth="yes"/>
      <point x="143" y="25"/>
      <point x="224" y="-8"/>
      <point x="328" y="-8" type="curve" smooth="yes"/>
      <point x="438" y="-8"/>
      <point x="532" y="17"/>
      <point x="610" y="69" type="curve"/>
      <point x="644" y="344" type="line"/>
      <point x="424" y="344" type="line"/>
      <point x="417" y="289" type="line"/>
      <point x="416" y="284"/>
      <point x="418" y="280"/>
      <point x="421" y="276" type="curve" smooth="yes"/>
      <point x="424" y="272"/>
      <point x="429" y="270"/>
      <point x="435" y="270" type="curve" smooth="yes"/>
      <point x="546" y="270" type="line"/>
      <point x="527" y="112" type="line"/>
      <point x="471" y="84"/>
      <point x="409" y="70"/>
      <point x="344" y="70" type="curve" smooth="yes"/>
    </contour>
    <contour>
      <point x="395" y="716" type="move" name="top"/>
    </contour>
    <contour>
      <point x="309" y="0" type="move" name="bottom"/>
    </contour>
  </outline>
</glyph>
<glyph name="J" format="1">
  <advance width="445"/>
  <unicode hex="004A"/>
  <note>
    J
  </note>
  <outline>
    <contour>
      <point x="71" y="73"/>
      <point x="58" y="75"/>
      <point x="48" y="78" type="curve" smooth="yes"/>
      <point x="38" y="81"/>
      <point x="30" y="82"/>
      <point x="24" y="82" type="curve" smooth="yes"/>
      <point x="18" y="82"/>
      <point x="12" y="80"/>
      <point x="7" y="76" type="curve" smooth="yes"/>
      <point x="2" y="72"/>
      <point x="-4" y="48"/>
      <point x="-12" y="6" type="curve"/>
      <point x="22" y="-3"/>
      <point x="56" y="-8"/>
      <point x="90" y="-8" type="curve" smooth="yes"/>
      <point x="124" y="-8"/>
      <point x="157" y="-2"/>
      <point x="186" y="10" type="curve" smooth="yes"/>
      <point x="276" y="46"/>
      <point x="329" y="125"/>
      <point x="344" y="248" type="curve" smooth="yes"/>
      <point x="393" y="644" type="line"/>
      <point x="451" y="655" type="line" smooth="yes"/>
      <point x="461" y="657"/>
      <point x="467" y="664"/>
      <point x="468" y="674" type="curve"/>
      <point x="474" y="716" type="line"/>
      <point x="224" y="716" type="line"/>
      <point x="218" y="674" type="line"/>
      <point x="217" y="664"/>
      <point x="221" y="657"/>
      <point x="231" y="655" type="curve" smooth="yes"/>
      <point x="237" y="654"/>
      <point x="258" y="650"/>
      <point x="296" y="644" type="curve"/>
      <point x="247" y="246" type="line" smooth="yes"/>
      <point x="233" y="131"/>
      <point x="180" y="73"/>
      <point x="88" y="73" type="curve" smooth="yes"/>
    </contour>
    <contour>
      <point x="279" y="716" type="move" name="top"/>
    </contour>
    <contour>
      <point x="193" y="0" type="move" name="bottom"/>
    </contour>
  </outline>
</glyph>
<glyph name="K" format="1">
  <advance width="682"/>
  <unicode hex="004B"/>
  <note>
    K
  </note>
  <outline>
    <contour>
      <point x="628" y="60"/>
      <point x="612" y="64"/>
      <point x="585" y="70" type="curve"/>
      <point x="392" y="340" type="line" smooth="yes"/>
      <point x="378" y="359"/>
      <point x="364" y="371"/>
      <point x="350" y="376" type="curve"/>
      <point x="362" y="381"/>
      <point x="376" y="392"/>
      <point x="393" y="408" type="curve" smooth="yes"/>
      <point x="636" y="648" type="line"/>
      <point x="662" y="654"/>
      <point x="678" y="659"/>
      <point x="684" y="660" type="curve" smooth="yes"/>
      <point x="694" y="662"/>
      <point x="700" y="668"/>
      <point x="701" y="678" type="curve" smooth="yes"/>
      <point x="704" y="716" type="line"/>
      <point x="478" y="716" type="line"/>
      <point x="474" y="676" type="line" smooth="yes"/>
      <point x="473" y="666"/>
      <point x="476" y="661"/>
      <point x="485" y="659" type="curve" smooth="yes"/>
      <point x="490" y="658"/>
      <point x="505" y="655"/>
      <point x="528" y="650" type="curve"/>
      <point x="299" y="424" type="line" smooth="yes"/>
      <point x="285" y="410"/>
      <point x="267" y="402"/>
      <point x="245" y="402" type="curve" smooth="yes"/>
      <point x="209" y="402" type="line"/>
      <point x="239" y="644" type="line"/>
      <point x="247" y="645"/>
      <point x="266" y="649"/>
      <point x="297" y="655" type="curve" smooth="yes"/>
      <point x="308" y="657"/>
      <point x="314" y="664"/>
      <point x="315" y="674" type="curve" smooth="yes"/>
      <point x="320" y="716" type="line"/>
      <point x="79" y="716" type="line"/>
      <point x="74" y="674" type="line" smooth="yes"/>
      <point x="73" y="664"/>
      <point x="76" y="657"/>
      <point x="86" y="655" type="curve" smooth="yes"/>
      <point x="92" y="654"/>
      <point x="111" y="650"/>
      <point x="142" y="644" type="curve"/>
      <point x="72" y="73" type="line"/>
      <point x="14" y="62" type="line" smooth="yes"/>
      <point x="4" y="60"/>
      <point x="-3" y="53"/>
      <point x="-4" y="43" type="curve" smooth="yes"/>
      <point x="-9" y="0" type="line"/>
      <point x="232" y="0" type="line"/>
      <point x="237" y="43" type="line" smooth="yes"/>
      <point x="238" y="53"/>
      <point x="234" y="60"/>
      <point x="224" y="62" type="curve" smooth="yes"/>
      <point x="198" y="67"/>
      <point x="179" y="71"/>
      <point x="168" y="73" type="curve"/>
      <point x="200" y="328" type="line"/>
      <point x="244" y="328" type="line" smooth="yes"/>
      <point x="252" y="328"/>
      <point x="260" y="327"/>
      <point x="269" y="326" type="curve" smooth="yes"/>
      <point x="278" y="325"/>
      <point x="287" y="318"/>
      <point x="297" y="305" type="curve" smooth="yes"/>
      <point x="475" y="66" type="line"/>
      <point x="447" y="61"/>
      <point x="432" y="59"/>
      <point x="428" y="58" type="curve"/>
      <point x="418" y="56"/>
      <point x="413" y="50"/>
      <point x="412" y="40" type="curve" smooth="yes"/>
      <point x="407" y="0" type="line"/>
      <point x="642" y="0" type="line"/>
      <point x="647" y="40" type="line" smooth="yes"/>
      <point x="648" y="50"/>
      <point x="644" y="57"/>
      <point x="634" y="59" type="curve" smooth="yes"/>
    </contour>
    <contour>
      <point x="397" y="716" type="move" name="top"/>
    </contour>
    <contour>
      <point x="311" y="0" type="move" name="bottom"/>
    </contour>
  </outline>
</glyph>
<glyph name="M" format="1">
  <advance width="943"/>
  <unicode hex="004D"/>
  <note>
    M
  </note>
  <outline>
    <contour>
      <point x="411" y="126" type="line" smooth="yes"/>
      <point x="417" y="111"/>
      <point x="429" y="103"/>
      <point x="444" y="103" type="curve" smooth="yes"/>
      <point x="458" y="103" type="line" smooth="yes"/>
      <point x="473" y="103"/>
      <point x="485" y="111"/>
      <point x="495" y="126" type="curve" smooth="yes"/>
      <point x="796" y="574" type="line"/>
      <point x="793" y="557"/>
      <point x="790" y="541"/>
      <point x="788" y="526" type="curve" smooth="yes"/>
      <point x="732" y="73" type="line"/>
      <point x="696" y="67"/>
      <point x="674" y="64"/>
      <point x="664" y="62" type="curve" smooth="yes"/>
      <point x="654" y="60"/>
      <point x="648" y="53"/>
      <point x="647" y="43" type="curve" smooth="yes"/>
      <point x="642" y="0" type="line"/>
      <point x="881" y="0" type="line"/>
      <point x="886" y="43" type="line" smooth="yes"/>
      <point x="887" y="53"/>
      <point x="883" y="60"/>
      <point x="873" y="62" type="curve" smooth="yes"/>
      <point x="867" y="63"/>
      <point x="849" y="67"/>
      <point x="817" y="73" type="curve"/>
      <point x="888" y="644" type="line"/>
      <point x="888" y="644"/>
      <point x="907" y="647"/>
      <point x="946" y="655" type="curve" smooth="yes"/>
      <point x="957" y="657"/>
      <point x="963" y="664"/>
      <point x="964" y="674" type="curve" smooth="yes"/>
      <point x="969" y="716" type="line"/>
      <point x="825" y="716" type="line" smooth="yes"/>
      <point x="816" y="716"/>
      <point x="810" y="716"/>
      <point x="805" y="714" type="curve" smooth="yes"/>
      <point x="800" y="712"/>
      <point x="794" y="708"/>
      <point x="789" y="700" type="curve" smooth="yes"/>
      <point x="493" y="260" type="line" smooth="yes"/>
      <point x="483" y="244"/>
      <point x="472" y="226"/>
      <point x="463" y="207" type="curve"/>
      <point x="457" y="232"/>
      <point x="452" y="249"/>
      <point x="447" y="259" type="curve"/>
      <point x="254" y="700" type="line"/>
      <point x="251" y="708"/>
      <point x="246" y="712"/>
      <point x="242" y="714" type="curve" smooth="yes"/>
      <point x="238" y="716"/>
      <point x="231" y="716"/>
      <point x="222" y="716" type="curve" smooth="yes"/>
      <point x="79" y="716" type="line"/>
      <point x="74" y="674" type="line" smooth="yes"/>
      <point x="73" y="664"/>
      <point x="76" y="657"/>
      <point x="86" y="655" type="curve" smooth="yes"/>
      <point x="92" y="654"/>
      <point x="111" y="650"/>
      <point x="142" y="644" type="curve"/>
      <point x="72" y="73" type="line"/>
      <point x="14" y="62" type="line" smooth="yes"/>
      <point x="4" y="60"/>
      <point x="-3" y="53"/>
      <point x="-4" y="43" type="curve" smooth="yes"/>
      <point x="-9" y="0" type="line"/>
      <point x="230" y="0" type="line"/>
      <point x="235" y="43" type="line" smooth="yes"/>
      <point x="236" y="53"/>
      <point x="232" y="59"/>
      <point x="223" y="61" type="curve" smooth="yes"/>
      <point x="214" y="63"/>
      <point x="192" y="67"/>
      <point x="157" y="73" type="curve"/>
      <point x="213" y="526" type="line" smooth="yes"/>
      <point x="215" y="541"/>
      <point x="216" y="558"/>
      <point x="216" y="575" type="curve"/>
    </contour>
    <contour>
      <point x="528" y="716" type="move" name="top"/>
    </contour>
    <contour>
      <point x="442" y="0" type="move" name="bottom"/>
    </contour>
  </outline>
</glyph>
<glyph name="P" format="1">
  <advance width="584"/>
  <unicode hex="0050"/>
  <note>
    P
  </note>
  <outline>
    <contour>
      <point x="434" y="711"/>
      <point x="394" y="716"/>
      <point x="349" y="716" type="curve" smooth="yes"/>
      <point x="79" y="716" type="line"/>
      <point x="74" y="674" type="line" smooth="yes"/>
      <point x="73" y="664"/>
      <point x="77" y="657"/>
      <point x="87" y="655" type="curve" smooth="yes"/>
      <point x="93" y="654"/>
      <point x="112" y="649"/>
      <point x="143" y="643" type="curve"/>
      <point x="72" y="73" type="line"/>
      <point x="14" y="61" type="line" smooth="yes"/>
      <point x="4" y="59"/>
      <point x="-2" y="53"/>
      <point x="-3" y="43" type="curve" smooth="yes"/>
      <point x="-8" y="0" type="line"/>
      <point x="232" y="0" type="line"/>
      <point x="237" y="43" type="line" smooth="yes"/>
      <point x="238" y="53"/>
      <point x="235" y="59"/>
      <point x="225" y="61" type="curve" smooth="yes"/>
      <point x="194" y="67"/>
      <point x="175" y="72"/>
      <point x="169" y="73" type="curve"/>
      <point x="193" y="268" type="line"/>
      <point x="294" y="268" type="line" smooth="yes"/>
      <point x="379" y="268"/>
      <point x="448" y="290"/>
      <point x="501" y="332" type="curve" smooth="yes"/>
      <point x="552" y="373"/>
      <point x="581" y="426"/>
      <point x="589" y="494" type="curve" smooth="yes"/>
      <point x="602" y="600"/>
      <point x="561" y="670"/>
      <point x="466" y="701" type="curve" smooth="yes"/>
    </contour>
    <contour>
      <point x="486" y="449"/>
      <point x="467" y="413"/>
      <point x="434" y="386" type="curve" smooth="yes"/>
      <point x="401" y="359"/>
      <point x="358" y="345"/>
      <point x="304" y="345" type="curve" smooth="yes"/>
      <point x="202" y="345" type="line"/>
      <point x="239" y="640" type="line"/>
      <point x="340" y="640" type="line" smooth="yes"/>
      <point x="397" y="640"/>
      <point x="438" y="628"/>
      <point x="463" y="602" type="curve" smooth="yes"/>
      <point x="488" y="576"/>
      <point x="498" y="541"/>
      <point x="492" y="495" type="curve" smooth="yes"/>
    </contour>
    <contour>
      <point x="348" y="716" type="move" name="top"/>
    </contour>
    <contour>
      <point x="262" y="0" type="move" name="bottom"/>
    </contour>
  </outline>
</glyph>
<glyph name="R" format="1">
  <advance width="635"/>
  <unicode hex="0052"/>
  <note>
    R
  </note>
  <outline>
    <contour>
      <point x="585" y="64"/>
      <point x="544" y="72"/>
      <point x="538" y="73" type="curve"/>
      <point x="408" y="285" type="line" smooth="yes"/>
      <point x="400" y="298"/>
      <point x="391" y="308"/>
      <point x="380" y="315" type="curve"/>
      <point x="408" y="321"/>
      <point x="435" y="331"/>
      <point x="458" y="343" type="curve" smooth="yes"/>
      <point x="481" y="355"/>
      <point x="502" y="371"/>
      <point x="519" y="388" type="curve" smooth="yes"/>
      <point x="536" y="406"/>
      <point x="550" y="425"/>
      <point x="561" y="447" type="curve" smooth="yes"/>
      <point x="572" y="469"/>
      <point x="579" y="493"/>
      <point x="582" y="518" type="curve" smooth="yes"/>
      <point x="586" y="548"/>
      <point x="583" y="576"/>
      <point x="576" y="600" type="curve" smooth="yes"/>
      <point x="569" y="624"/>
      <point x="555" y="646"/>
      <point x="536" y="663" type="curve" smooth="yes"/>
      <point x="517" y="680"/>
      <point x="491" y="694"/>
      <point x="459" y="703" type="curve" smooth="yes"/>
      <point x="427" y="712"/>
      <point x="388" y="716"/>
      <point x="343" y="716" type="curve" smooth="yes"/>
      <point x="151" y="716" type="line"/>
      <point x="78" y="716" type="line" smooth="yes"/>
      <point x="78" y="716"/>
      <point x="74" y="682"/>
      <point x="73" y="673" type="curve" smooth="yes"/>
      <point x="72" y="664"/>
      <point x="77" y="657"/>
      <point x="86" y="655" type="curve" smooth="yes"/>
      <point x="95" y="653"/>
      <point x="142" y="644"/>
      <point x="142" y="644" type="curve"/>
      <point x="72" y="73" type="line"/>
      <point x="72" y="73"/>
      <point x="22" y="64"/>
      <point x="13" y="62" type="curve" smooth="yes"/>
      <point x="4" y="60"/>
      <point x="-3" y="52"/>
      <point x="-4" y="43" type="curve" smooth="yes"/>
      <point x="-5" y="34"/>
      <point x="-10" y="0"/>
      <point x="-10" y="0" type="curve"/>
      <point x="63" y="0" type="line"/>
      <point x="159" y="0" type="line"/>
      <point x="159" y="0" type="line"/>
      <point x="231" y="0" type="line"/>
      <point x="231" y="0"/>
      <point x="236" y="34"/>
      <point x="237" y="43" type="curve" smooth="yes"/>
      <point x="238" y="52"/>
      <point x="233" y="60"/>
      <point x="224" y="62" type="curve" smooth="yes"/>
      <point x="215" y="64"/>
      <point x="168" y="73"/>
      <point x="168" y="73" type="curve"/>
      <point x="196" y="299" type="line"/>
      <point x="260" y="299" type="line" smooth="yes"/>
      <point x="273" y="299"/>
      <point x="283" y="297"/>
      <point x="289" y="294" type="curve"/>
      <point x="295" y="290"/>
      <point x="300" y="285"/>
      <point x="305" y="277" type="curve" smooth="yes"/>
      <point x="460" y="21" type="line"/>
      <point x="467" y="7"/>
      <point x="478" y="0"/>
      <point x="496" y="0" type="curve" smooth="yes"/>
      <point x="528" y="0" type="line"/>
      <point x="582" y="0" type="line"/>
      <point x="600" y="0" type="line"/>
      <point x="600" y="0"/>
      <point x="605" y="34"/>
      <point x="606" y="43" type="curve" smooth="yes"/>
      <point x="607" y="52"/>
      <point x="602" y="60"/>
      <point x="593" y="62" type="curve" smooth="yes"/>
    </contour>
    <contour>
      <point x="205" y="370" type="line"/>
      <point x="238" y="640" type="line"/>
      <point x="334" y="640" type="line" smooth="yes"/>
      <point x="390" y="640"/>
      <point x="430" y="630"/>
      <point x="456" y="608" type="curve" smooth="yes"/>
      <point x="482" y="586"/>
      <point x="491" y="554"/>
      <point x="486" y="511" type="curve" smooth="yes"/>
      <point x="483" y="490"/>
      <point x="477" y="471"/>
      <point x="468" y="454" type="curve" smooth="yes"/>
      <point x="459" y="437"/>
      <point x="446" y="422"/>
      <point x="430" y="409" type="curve"/>
      <point x="414" y="397"/>
      <point x="394" y="387"/>
      <point x="372" y="380" type="curve" smooth="yes"/>
      <point x="350" y="373"/>
      <point x="324" y="370"/>
      <point x="296" y="370" type="curve" smooth="yes"/>
    </contour>
    <contour>
      <point x="374" y="716" type="move" name="top"/>
    </contour>
    <contour>
      <point x="288" y="0" type="move" name="bottom"/>
    </contour>
  </outline>
</glyph>
<glyph name="S" format="1">
  <advance width="515"/>
  <unicode hex="0053"/>
  <note>
    S
  </note>
  <outline>
    <contour>
      <point x="366" y="389"/>
      <point x="326" y="404"/>
      <point x="268" y="424" type="curve" smooth="yes"/>
      <point x="248" y="431"/>
      <point x="231" y="440"/>
      <point x="216" y="449" type="curve" smooth="yes"/>
      <point x="183" y="470"/>
      <point x="168" y="497"/>
      <point x="172" y="532" type="curve" smooth="yes"/>
      <point x="176" y="565"/>
      <point x="191" y="592"/>
      <point x="216" y="612" type="curve" smooth="yes"/>
      <point x="243" y="634"/>
      <point x="277" y="644"/>
      <point x="319" y="644" type="curve" smooth="yes"/>
      <point x="353" y="644"/>
      <point x="391" y="638"/>
      <point x="434" y="625" type="curve"/>
      <point x="432" y="568"/>
      <point x="432" y="538"/>
      <point x="432" y="536" type="curve"/>
      <point x="433" y="525"/>
      <point x="438" y="519"/>
      <point x="450" y="519" type="curve" smooth="yes"/>
      <point x="498" y="519" type="line"/>
      <point x="519" y="684" type="line"/>
      <point x="454" y="711"/>
      <point x="389" y="724"/>
      <point x="323" y="724" type="curve" smooth="yes"/>
      <point x="257" y="724"/>
      <point x="202" y="704"/>
      <point x="156" y="664" type="curve" smooth="yes"/>
      <point x="113" y="626"/>
      <point x="89" y="581"/>
      <point x="82" y="528" type="curve" smooth="yes"/>
      <point x="75" y="471"/>
      <point x="87" y="426"/>
      <point x="119" y="394" type="curve" smooth="yes"/>
      <point x="133" y="380"/>
      <point x="149" y="368"/>
      <point x="169" y="359" type="curve" smooth="yes"/>
      <point x="189" y="350"/>
      <point x="229" y="336"/>
      <point x="290" y="316" type="curve" smooth="yes"/>
      <point x="310" y="309"/>
      <point x="327" y="301"/>
      <point x="342" y="292" type="curve" smooth="yes"/>
      <point x="375" y="271"/>
      <point x="389" y="242"/>
      <point x="384" y="204" type="curve" smooth="yes"/>
      <point x="379" y="165"/>
      <point x="363" y="133"/>
      <point x="334" y="109" type="curve" smooth="yes"/>
      <point x="320" y="97"/>
      <point x="304" y="88"/>
      <point x="285" y="82" type="curve" smooth="yes"/>
      <point x="266" y="76"/>
      <point x="241" y="72"/>
      <point x="210" y="72" type="curve" smooth="yes"/>
      <point x="179" y="72"/>
      <point x="139" y="82"/>
      <point x="92" y="100" type="curve"/>
      <point x="92" y="100"/>
      <point x="93" y="115"/>
      <point x="94" y="144" type="curve" smooth="yes"/>
      <point x="95" y="173"/>
      <point x="95" y="189"/>
      <point x="95" y="193" type="curve"/>
      <point x="94" y="204"/>
      <point x="88" y="210"/>
      <point x="77" y="210" type="curve" smooth="yes"/>
      <point x="29" y="210" type="line"/>
      <point x="6" y="30" type="line"/>
      <point x="34" y="20" type="line"/>
      <point x="53" y="14"/>
      <point x="78" y="8"/>
      <point x="112" y="2" type="curve" smooth="yes"/>
      <point x="146" y="-4"/>
      <point x="178" y="-8"/>
      <point x="209" y="-8" type="curve" smooth="yes"/>
      <point x="283" y="-8"/>
      <point x="345" y="14"/>
      <point x="395" y="58" type="curve" smooth="yes"/>
      <point x="442" y="99"/>
      <point x="469" y="153"/>
      <point x="477" y="218" type="curve" smooth="yes"/>
      <point x="486" y="293"/>
      <point x="456" y="346"/>
      <point x="388" y="379" type="curve" smooth="yes"/>
    </contour>
    <contour>
      <point x="314" y="716" type="move" name="top"/>
    </contour>
    <contour>
      <point x="228" y="0" type="move" name="bottom"/>
    </contour>
  </outline>
</glyph>
<glyph name="W" format="1">
  <advance width="1078"/>
  <unicode hex="0057"/>
  <note>
    W
  </note>
  <outline>
    <contour>
      <point x="1064" y="716" type="line"/>
      <point x="869" y="716" type="line"/>
      <point x="864" y="674" type="line" smooth="yes"/>
      <point x="863" y="664"/>
      <point x="867" y="657"/>
      <point x="877" y="655" type="curve" smooth="yes"/>
      <point x="910" y="648"/>
      <point x="928" y="645"/>
      <point x="932" y="644" type="curve"/>
      <point x="744" y="196" type="line" smooth="yes"/>
      <point x="740" y="187"/>
      <point x="737" y="177"/>
      <point x="734" y="167" type="curve" smooth="yes"/>
      <point x="731" y="157"/>
      <point x="727" y="147"/>
      <point x="724" y="136" type="curve"/>
      <point x="722" y="158"/>
      <point x="720" y="179"/>
      <point x="716" y="196" type="curve" smooth="yes"/>
      <point x="609" y="694" type="line" smooth="yes"/>
      <point x="606" y="709"/>
      <point x="596" y="716"/>
      <point x="579" y="716" type="curve" smooth="yes"/>
      <point x="551" y="716" type="line" smooth="yes"/>
      <point x="543" y="716"/>
      <point x="535" y="714"/>
      <point x="529" y="709" type="curve" smooth="yes"/>
      <point x="523" y="704"/>
      <point x="518" y="700"/>
      <point x="515" y="694" type="curve" smooth="yes"/>
      <point x="286" y="196" type="line" smooth="yes"/>
      <point x="281" y="185"/>
      <point x="273" y="164"/>
      <point x="263" y="134" type="curve"/>
      <point x="262" y="160"/>
      <point x="259" y="181"/>
      <point x="257" y="196" type="curve"/>
      <point x="179" y="644" type="line"/>
      <point x="183" y="645"/>
      <point x="202" y="648"/>
      <point x="237" y="655" type="curve" smooth="yes"/>
      <point x="247" y="657"/>
      <point x="254" y="664"/>
      <point x="255" y="674" type="curve" smooth="yes"/>
      <point x="260" y="716" type="line"/>
      <point x="17" y="716" type="line"/>
      <point x="12" y="674" type="line" smooth="yes"/>
      <point x="11" y="664"/>
      <point x="14" y="657"/>
      <point x="24" y="655" type="curve" smooth="yes"/>
      <point x="30" y="654"/>
      <point x="47" y="650"/>
      <point x="74" y="644" type="curve"/>
      <point x="195" y="0" type="line"/>
      <point x="282" y="0" type="line"/>
      <point x="532" y="546" type="line"/>
      <point x="534" y="551"/>
      <point x="536" y="558"/>
      <point x="538" y="564" type="curve" smooth="yes"/>
      <point x="540" y="570"/>
      <point x="544" y="576"/>
      <point x="546" y="582" type="curve"/>
      <point x="547" y="568"/>
      <point x="549" y="556"/>
      <point x="551" y="546" type="curve" smooth="yes"/>
      <point x="666" y="0" type="line"/>
      <point x="753" y="0" type="line"/>
      <point x="1033" y="644" type="line"/>
      <point x="1084" y="655" type="line" smooth="yes"/>
      <point x="1094" y="657"/>
      <point x="1100" y="664"/>
      <point x="1101" y="674" type="curve" smooth="yes"/>
      <point x="1106" y="716" type="line"/>
    </contour>
    <contour>
      <point x="595" y="716" type="move" name="top"/>
    </contour>
    <contour>
      <point x="509" y="0" type="move" name="bottom"/>
    </contour>
  </outline>
</glyph>
<glyph name="Y" format="1">
  <advance width="651"/>
  <unicode hex="0059"/>
  <note>
    Y
  </note>
  <outline>
    <contour>
      <point x="438" y="716" type="line"/>
      <point x="433" y="674" type="line" smooth="yes"/>
      <point x="432" y="664"/>
      <point x="435" y="657"/>
      <point x="445" y="655" type="curve" smooth="yes"/>
      <point x="478" y="648"/>
      <point x="497" y="645"/>
      <point x="501" y="644" type="curve"/>
      <point x="339" y="416" type="line" smooth="yes"/>
      <point x="327" y="399"/>
      <point x="315" y="377"/>
      <point x="303" y="352" type="curve"/>
      <point x="297" y="376"/>
      <point x="290" y="397"/>
      <point x="282" y="416" type="curve"/>
      <point x="176" y="644" type="line"/>
      <point x="180" y="645"/>
      <point x="198" y="648"/>
      <point x="233" y="655" type="curve" smooth="yes"/>
      <point x="244" y="657"/>
      <point x="250" y="664"/>
      <point x="251" y="674" type="curve"/>
      <point x="257" y="716" type="line"/>
      <point x="16" y="716" type="line"/>
      <point x="10" y="674" type="line"/>
      <point x="9" y="664"/>
      <point x="13" y="657"/>
      <point x="22" y="655" type="curve" smooth="yes"/>
      <point x="31" y="653"/>
      <point x="48" y="650"/>
      <point x="72" y="644" type="curve"/>
      <point x="246" y="285" type="line"/>
      <point x="220" y="73" type="line"/>
      <point x="161" y="62" type="line" smooth="yes"/>
      <point x="151" y="60"/>
      <point x="145" y="53"/>
      <point x="144" y="43" type="curve" smooth="yes"/>
      <point x="139" y="0" type="line"/>
      <point x="211" y="0" type="line"/>
      <point x="307" y="0" type="line"/>
      <point x="379" y="0" type="line"/>
      <point x="384" y="43" type="line" smooth="yes"/>
      <point x="385" y="53"/>
      <point x="382" y="60"/>
      <point x="372" y="62" type="curve" smooth="yes"/>
      <point x="339" y="69"/>
      <point x="321" y="72"/>
      <point x="316" y="73" type="curve"/>
      <point x="342" y="285" type="line"/>
      <point x="605" y="644" type="line"/>
      <point x="659" y="656" type="line" smooth="yes"/>
      <point x="668" y="658"/>
      <point x="673" y="664"/>
      <point x="674" y="674" type="curve" smooth="yes"/>
      <point x="679" y="716" type="line"/>
    </contour>
    <contour>
      <point x="382" y="716" type="move" name="top"/>
    </contour>
    <contour>
      <point x="296" y="0" type="move" name="bottom"/>
    </contour>
    <contour>
      <point x="76" y="716" type="move" name="topleft"/>
    </contour>
  </outline>
</glyph>
<glyph name="Z" format="1">
  <advance width="600"/>
  <unicode hex="005A"/>
  <note>
    Z
  </note>
  <outline>
    <contour>
      <point x="605" y="648" type="line" smooth="yes"/>
      <point x="613" y="658"/>
      <point x="619" y="669"/>
      <point x="620" y="680" type="curve" smooth="yes"/>
      <point x="624" y="716" type="line"/>
      <point x="100" y="716" type="line"/>
      <point x="90" y="638" type="line"/>
      <point x="79" y="542" type="line"/>
      <point x="127" y="542" type="line" smooth="yes"/>
      <point x="138" y="542"/>
      <point x="146" y="548"/>
      <point x="150" y="559" type="curve"/>
      <point x="152" y="563"/>
      <point x="156" y="589"/>
      <point x="166" y="637" type="curve"/>
      <point x="487" y="637" type="line"/>
      <point x="11" y="66" type="line" smooth="yes"/>
      <point x="4" y="57"/>
      <point x="-1" y="48"/>
      <point x="-2" y="38" type="curve" smooth="yes"/>
      <point x="-7" y="0" type="line"/>
      <point x="529" y="0" type="line"/>
      <point x="539" y="79" type="line"/>
      <point x="550" y="174" type="line"/>
      <point x="502" y="174" type="line" smooth="yes"/>
      <point x="491" y="174"/>
      <point x="483" y="168"/>
      <point x="479" y="157" type="curve"/>
      <point x="478" y="153"/>
      <point x="473" y="127"/>
      <point x="463" y="79" type="curve"/>
      <point x="130" y="79" type="line"/>
    </contour>
    <contour>
      <point x="356" y="716" type="move" name="top"/>
    </contour>
    <contour>
      <point x="270" y="0" type="move" name="bottom"/>
    </contour>
  </outline>
</glyph>
<glyph name="c" format="1">
  <advance width="442"/>
  <unicode hex="0063"/>
  <note>
    c
  </note>
  <outline>
    <contour>
      <point x="377" y="104" type="line"/>
      <point x="374" y="110"/>
      <point x="369" y="112"/>
      <point x="362" y="112" type="curve" smooth="yes"/>
      <point x="355" y="112"/>
      <point x="349" y="109"/>
      <point x="342" y="104" type="curve"/>
      <point x="306" y="76"/>
      <point x="267" y="62"/>
      <point x="225" y="62" type="curve" smooth="yes"/>
      <point x="179" y="62"/>
      <point x="146" y="79"/>
      <point x="124" y="112" type="curve" smooth="yes"/>
      <point x="102" y="146"/>
      <point x="94" y="194"/>
      <point x="101" y="254" type="curve" smooth="yes"/>
      <point x="108" y="314"/>
      <point x="127" y="360"/>
      <point x="157" y="394" type="curve" smooth="yes"/>
      <point x="172" y="411"/>
      <point x="189" y="423"/>
      <point x="208" y="431" type="curve" smooth="yes"/>
      <point x="227" y="439"/>
      <point x="247" y="444"/>
      <point x="265" y="444" type="curve" smooth="yes"/>
      <point x="283" y="444"/>
      <point x="302" y="443"/>
      <point x="321" y="440" type="curve"/>
      <point x="330" y="439"/>
      <point x="341" y="436"/>
      <point x="356" y="431" type="curve"/>
      <point x="356" y="430"/>
      <point x="356" y="419"/>
      <point x="355" y="398" type="curve" smooth="yes"/>
      <point x="354" y="377"/>
      <point x="353" y="364"/>
      <point x="354" y="360" type="curve"/>
      <point x="355" y="351"/>
      <point x="359" y="346"/>
      <point x="369" y="346" type="curve" smooth="yes"/>
      <point x="409" y="346" type="line"/>
      <point x="426" y="478" type="line"/>
      <point x="368" y="503"/>
      <point x="319" y="515"/>
      <point x="280" y="515" type="curve" smooth="yes"/>
      <point x="205" y="515"/>
      <point x="143" y="490"/>
      <point x="94" y="441" type="curve" smooth="yes"/>
      <point x="47" y="394"/>
      <point x="20" y="332"/>
      <point x="10" y="254" type="curve" smooth="yes"/>
      <point x="0" y="173"/>
      <point x="14" y="109"/>
      <point x="51" y="62" type="curve" smooth="yes"/>
      <point x="86" y="16"/>
      <point x="136" y="-7"/>
      <point x="201" y="-7" type="curve" smooth="yes"/>
      <point x="283" y="-7"/>
      <point x="349" y="19"/>
      <point x="398" y="71" type="curve"/>
    </contour>
    <contour>
      <point x="251" y="506" type="move" name="top"/>
    </contour>
    <contour>
      <point x="191" y="0" type="move" name="bottom"/>
    </contour>
  </outline>
</glyph>
<glyph name="g" format="1">
  <advance width="487"/>
  <unicode hex="0067"/>
  <note>
    g
  </note>
  <outline>
    <contour>
      <point x="419" y="376"/>
      <point x="419" y="386"/>
      <point x="417" y="395" type="curve" smooth="yes"/>
      <point x="415" y="405"/>
      <point x="413" y="413"/>
      <point x="410" y="422" type="curve"/>
      <point x="473" y="433" type="line" smooth="yes"/>
      <point x="479" y="434"/>
      <point x="484" y="437"/>
      <point x="487" y="442" type="curve" smooth="yes"/>
      <point x="490" y="447"/>
      <point x="492" y="451"/>
      <point x="493" y="457" type="curve" smooth="yes"/>
      <point x="497" y="487" type="line"/>
      <point x="359" y="487" type="line"/>
      <point x="332" y="504"/>
      <point x="301" y="513"/>
      <point x="264" y="513" type="curve" smooth="yes"/>
      <point x="231" y="513"/>
      <point x="202" y="507"/>
      <point x="177" y="496" type="curve" smooth="yes"/>
      <point x="152" y="485"/>
      <point x="131" y="470"/>
      <point x="114" y="452" type="curve" smooth="yes"/>
      <point x="97" y="434"/>
      <point x="85" y="413"/>
      <point x="76" y="390" type="curve" smooth="yes"/>
      <point x="67" y="367"/>
      <point x="63" y="344"/>
      <point x="63" y="320" type="curve" smooth="yes"/>
      <point x="63" y="295"/>
      <point x="67" y="274"/>
      <point x="74" y="255" type="curve" smooth="yes"/>
      <point x="81" y="236"/>
      <point x="91" y="221"/>
      <point x="104" y="209" type="curve" smooth="yes"/>
      <point x="117" y="197"/>
      <point x="131" y="187"/>
      <point x="148" y="181" type="curve" smooth="yes"/>
      <point x="165" y="175"/>
      <point x="183" y="171"/>
      <point x="202" y="171" type="curve" smooth="yes"/>
      <point x="222" y="171"/>
      <point x="239" y="173"/>
      <point x="255" y="178" type="curve" smooth="yes"/>
      <point x="271" y="183"/>
      <point x="285" y="189"/>
      <point x="298" y="198" type="curve"/>
      <point x="291" y="184"/>
      <point x="285" y="172"/>
      <point x="282" y="161" type="curve" smooth="yes"/>
      <point x="279" y="150"/>
      <point x="277" y="139"/>
      <point x="277" y="129" type="curve" smooth="yes"/>
      <point x="277" y="121"/>
      <point x="278" y="114"/>
      <point x="280" y="107" type="curve" smooth="yes"/>
      <point x="282" y="100"/>
      <point x="284" y="93"/>
      <point x="287" y="87" type="curve"/>
      <point x="275" y="89"/>
      <point x="264" y="90"/>
      <point x="252" y="91" type="curve" smooth="yes"/>
      <point x="240" y="92"/>
      <point x="228" y="93"/>
      <point x="216" y="93" type="curve" smooth="yes"/>
      <point x="186" y="93"/>
      <point x="158" y="90"/>
      <point x="129" y="84" type="curve" smooth="yes"/>
      <point x="100" y="78"/>
      <point x="75" y="69"/>
      <point x="53" y="57" type="curve" smooth="yes"/>
      <point x="31" y="45"/>
      <point x="13" y="29"/>
      <point x="-1" y="10" type="curve" smooth="yes"/>
      <point x="-15" y="-9"/>
      <point x="-22" y="-32"/>
      <point x="-22" y="-58" type="curve" smooth="yes"/>
      <point x="-22" y="-77"/>
      <point x="-17" y="-94"/>
      <point x="-8" y="-109" type="curve" smooth="yes"/>
      <point x="1" y="-125"/>
      <point x="14" y="-138"/>
      <point x="31" y="-149" type="curve" smooth="yes"/>
      <point x="48" y="-160"/>
      <point x="68" y="-168"/>
      <point x="92" y="-174" type="curve" smooth="yes"/>
      <point x="116" y="-180"/>
      <point x="142" y="-183"/>
      <point x="171" y="-183" type="curve" smooth="yes"/>
      <point x="207" y="-183"/>
      <point x="241" y="-178"/>
      <point x="270" y="-169" type="curve" smooth="yes"/>
      <point x="299" y="-160"/>
      <point x="324" y="-146"/>
      <point x="344" y="-130" type="curve" smooth="yes"/>
      <point x="364" y="-114"/>
      <point x="380" y="-95"/>
      <point x="391" y="-74" type="curve" smooth="yes"/>
      <point x="402" y="-53"/>
      <point x="407" y="-31"/>
      <point x="407" y="-7" type="curve" smooth="yes"/>
      <point x="407" y="12"/>
      <point x="404" y="29"/>
      <point x="397" y="43" type="curve" smooth="yes"/>
      <point x="390" y="57"/>
      <point x="383" y="71"/>
      <point x="375" y="83" type="curve" smooth="yes"/>
      <point x="367" y="95"/>
      <point x="359" y="107"/>
      <point x="352" y="118" type="curve" smooth="yes"/>
      <point x="345" y="129"/>
      <point x="342" y="142"/>
      <point x="342" y="156" type="curve" smooth="yes"/>
      <point x="342" y="168"/>
      <point x="344" y="180"/>
      <point x="348" y="190" type="curve" smooth="yes"/>
      <point x="352" y="200"/>
      <point x="356" y="211"/>
      <point x="362" y="221" type="curve" smooth="yes"/>
      <point x="368" y="231"/>
      <point x="373" y="241"/>
      <point x="380" y="251" type="curve" smooth="yes"/>
      <point x="387" y="261"/>
      <point x="393" y="272"/>
      <point x="399" y="283" type="curve" smooth="yes"/>
      <point x="405" y="294"/>
      <point x="409" y="307"/>
      <point x="413" y="320" type="curve" smooth="yes"/>
      <point x="417" y="333"/>
      <point x="419" y="348"/>
      <point x="419" y="365" type="curve" smooth="yes"/>
    </contour>
    <contour>
      <point x="326" y="-28"/>
      <point x="323" y="-42"/>
      <point x="316" y="-55" type="curve" smooth="yes"/>
      <point x="309" y="-68"/>
      <point x="299" y="-79"/>
      <point x="286" y="-89" type="curve" smooth="yes"/>
      <point x="273" y="-99"/>
      <point x="257" y="-106"/>
      <point x="239" y="-112" type="curve" smooth="yes"/>
      <point x="221" y="-118"/>
      <point x="201" y="-121"/>
      <point x="179" y="-121" type="curve" smooth="yes"/>
      <point x="142" y="-121"/>
      <point x="113" y="-115"/>
      <point x="93" y="-102" type="curve" smooth="yes"/>
      <point x="73" y="-89"/>
      <point x="63" y="-71"/>
      <point x="63" y="-47" type="curve" smooth="yes"/>
      <point x="63" y="-36"/>
      <point x="66" y="-24"/>
      <point x="72" y="-14" type="curve"/>
      <point x="78" y="-3"/>
      <point x="88" y="6"/>
      <point x="101" y="14" type="curve" smooth="yes"/>
      <point x="114" y="22"/>
      <point x="131" y="28"/>
      <point x="151" y="33" type="curve" smooth="yes"/>
      <point x="171" y="38"/>
      <point x="195" y="40"/>
      <point x="222" y="40" type="curve" smooth="yes"/>
      <point x="236" y="40"/>
      <point x="251" y="39"/>
      <point x="267" y="38" type="curve" smooth="yes"/>
      <point x="283" y="37"/>
      <point x="299" y="35"/>
      <point x="317" y="32" type="curve"/>
      <point x="320" y="25"/>
      <point x="322" y="17"/>
      <point x="324" y="10" type="curve" smooth="yes"/>
      <point x="326" y="2"/>
      <point x="326" y="-5"/>
      <point x="326" y="-14" type="curve" smooth="yes"/>
    </contour>
    <contour>
      <point x="200" y="227"/>
      <point x="181" y="234"/>
      <point x="166" y="250" type="curve" smooth="yes"/>
      <point x="152" y="266"/>
      <point x="144" y="289"/>
      <point x="144" y="319" type="curve" smooth="yes"/>
      <point x="144" y="336"/>
      <point x="146" y="352"/>
      <point x="151" y="368" type="curve" smooth="yes"/>
      <point x="156" y="384"/>
      <point x="163" y="398"/>
      <point x="172" y="410" type="curve" smooth="yes"/>
      <point x="181" y="422"/>
      <point x="193" y="432"/>
      <point x="207" y="439" type="curve" smooth="yes"/>
      <point x="221" y="446"/>
      <point x="236" y="450"/>
      <point x="254" y="450" type="curve" smooth="yes"/>
      <point x="280" y="450"/>
      <point x="301" y="443"/>
      <point x="316" y="428" type="curve" smooth="yes"/>
      <point x="331" y="413"/>
      <point x="338" y="390"/>
      <point x="338" y="361" type="curve" smooth="yes"/>
      <point x="338" y="345"/>
      <point x="335" y="329"/>
      <point x="330" y="313" type="curve" smooth="yes"/>
      <point x="325" y="297"/>
      <point x="318" y="283"/>
      <point x="309" y="270" type="curve" smooth="yes"/>
      <point x="300" y="257"/>
      <point x="288" y="247"/>
      <point x="274" y="239" type="curve" smooth="yes"/>
      <point x="260" y="231"/>
      <point x="244" y="227"/>
      <point x="226" y="227" type="curve" smooth="yes"/>
    </contour>
    <contour>
      <point x="274" y="506" type="move" name="top"/>
    </contour>
    <contour>
      <point x="214" y="0" type="move" name="bottom"/>
    </contour>
  </outline>
</glyph>
<glyph name="h" format="1">
  <advance width="581"/>
  <unicode hex="0068"/>
  <note>
    h
  </note>
  <outline>
    <contour>
      <point x="524" y="62"/>
      <point x="505" y="67"/>
      <point x="474" y="73" type="curve"/>
      <point x="505" y="322" type="line" smooth="yes"/>
      <point x="512" y="381"/>
      <point x="504" y="428"/>
      <point x="479" y="462" type="curve" smooth="yes"/>
      <point x="454" y="497"/>
      <point x="414" y="514"/>
      <point x="359" y="514" type="curve" smooth="yes"/>
      <point x="298" y="514"/>
      <point x="241" y="489"/>
      <point x="187" y="438" type="curve"/>
      <point x="223" y="736" type="line"/>
      <point x="52" y="736" type="line"/>
      <point x="47" y="694" type="line" smooth="yes"/>
      <point x="46" y="684"/>
      <point x="50" y="677"/>
      <point x="60" y="675" type="curve" smooth="yes"/>
      <point x="66" y="674"/>
      <point x="87" y="669"/>
      <point x="125" y="663" type="curve"/>
      <point x="56" y="98" type="line"/>
      <point x="44" y="0" type="line"/>
      <point x="133" y="0" type="line"/>
      <point x="154" y="175" type="line"/>
      <point x="179" y="373" type="line"/>
      <point x="227" y="420"/>
      <point x="275" y="443"/>
      <point x="324" y="443" type="curve" smooth="yes"/>
      <point x="395" y="443"/>
      <point x="426" y="403"/>
      <point x="416" y="322" type="curve" smooth="yes"/>
      <point x="377" y="0" type="line"/>
      <point x="538" y="0" type="line"/>
      <point x="543" y="43" type="line" smooth="yes"/>
      <point x="544" y="53"/>
      <point x="540" y="59"/>
      <point x="530" y="61" type="curve" smooth="yes"/>
    </contour>
    <contour>
      <point x="291" y="253" type="move" name="center"/>
    </contour>
    <contour>
      <point x="261" y="0" type="move" name="bottom"/>
    </contour>
    <contour>
      <point x="321" y="506" type="move" name="top"/>
    </contour>
  </outline>
</glyph>
<glyph name="l" format="1">
  <advance width="247"/>
  <unicode hex="006C"/>
  <note>
    l
  </note>
  <outline>
    <contour>
      <point x="184" y="62"/>
      <point x="166" y="67"/>
      <point x="134" y="73" type="curve"/>
      <point x="216" y="736" type="line"/>
      <point x="55" y="736" type="line"/>
      <point x="50" y="694" type="line" smooth="yes"/>
      <point x="49" y="684"/>
      <point x="52" y="677"/>
      <point x="62" y="675" type="curve" smooth="yes"/>
      <point x="68" y="674"/>
      <point x="87" y="669"/>
      <point x="118" y="663" type="curve"/>
      <point x="36" y="0" type="line"/>
      <point x="198" y="0" type="line"/>
      <point x="203" y="43" type="line" smooth="yes"/>
      <point x="204" y="53"/>
      <point x="200" y="59"/>
      <point x="190" y="61" type="curve" smooth="yes"/>
    </contour>
    <contour>
      <point x="94" y="0" type="move" name="bottom"/>
    </contour>
    <contour>
      <point x="154" y="506" type="move" name="top"/>
    </contour>
    <contour>
      <point x="257" y="506" type="move" name="topright"/>
    </contour>
    <contour>
      <point x="124" y="253" type="move" name="center"/>
    </contour>
  </outline>
</glyph>
<glyph name="n" format="1">
  <advance width="578"/>
  <unicode hex="006E"/>
  <note>
    n
  </note>
  <outline>
    <contour>
      <point x="518" y="62"/>
      <point x="500" y="67"/>
      <point x="468" y="73" type="curve"/>
      <point x="499" y="323" type="line" smooth="yes"/>
      <point x="513" y="439"/>
      <point x="463" y="515"/>
      <point x="353" y="515" type="curve" smooth="yes"/>
      <point x="290" y="515"/>
      <point x="231" y="487"/>
      <point x="175" y="433" type="curve"/>
      <point x="175" y="488" type="line"/>
      <point x="173" y="500"/>
      <point x="166" y="507"/>
      <point x="153" y="507" type="curve" smooth="yes"/>
      <point x="28" y="507" type="line"/>
      <point x="23" y="464" type="line" smooth="yes"/>
      <point x="22" y="454"/>
      <point x="25" y="447"/>
      <point x="35" y="445" type="curve" smooth="yes"/>
      <point x="41" y="444"/>
      <point x="60" y="440"/>
      <point x="91" y="434" type="curve"/>
      <point x="38" y="0" type="line"/>
      <point x="127" y="0" type="line"/>
      <point x="173" y="373" type="line"/>
      <point x="221" y="420"/>
      <point x="269" y="444"/>
      <point x="318" y="444" type="curve" smooth="yes"/>
      <point x="389" y="444"/>
      <point x="420" y="403"/>
      <point x="410" y="322" type="curve" smooth="yes"/>
      <point x="370" y="0" type="line"/>
      <point x="532" y="0" type="line"/>
      <point x="537" y="43" type="line" smooth="yes"/>
      <point x="538" y="53"/>
      <point x="534" y="59"/>
      <point x="524" y="61" type="curve" smooth="yes"/>
    </contour>
    <contour>
      <point x="319" y="506" type="move" name="top"/>
    </contour>
    <contour>
      <point x="259" y="0" type="move" name="bottom"/>
    </contour>
  </outline>
</glyph>
<glyph name="p" format="1">
  <advance width="562"/>
  <unicode hex="0070"/>
  <note>
    p
  </note>
  <outline>
    <contour>
      <point x="194" y="488" type="line"/>
      <point x="192" y="500"/>
      <point x="186" y="506"/>
      <point x="173" y="506" type="curve" smooth="yes"/>
      <point x="120" y="506" type="line"/>
      <point x="48" y="506" type="line"/>
      <point x="42" y="464" type="line"/>
      <point x="41" y="454"/>
      <point x="45" y="447"/>
      <point x="55" y="445" type="curve" smooth="yes"/>
      <point x="61" y="444"/>
      <point x="80" y="440"/>
      <point x="111" y="434" type="curve"/>
      <point x="45" y="-98" type="line"/>
      <point x="-13" y="-110" type="line" smooth="yes"/>
      <point x="-23" y="-112"/>
      <point x="-29" y="-118"/>
      <point x="-30" y="-128" type="curve"/>
      <point x="-36" y="-172" type="line"/>
      <point x="198" y="-172" type="line"/>
      <point x="203" y="-128" type="line" smooth="yes"/>
      <point x="204" y="-118"/>
      <point x="200" y="-112"/>
      <point x="190" y="-110" type="curve"/>
      <point x="187" y="-109"/>
      <point x="178" y="-107"/>
      <point x="161" y="-104" type="curve" smooth="yes"/>
      <point x="144" y="-101"/>
      <point x="135" y="-98"/>
      <point x="134" y="-98" type="curve"/>
      <point x="153" y="52" type="line"/>
      <point x="184" y="12"/>
      <point x="230" y="-7"/>
      <point x="292" y="-7" type="curve" smooth="yes"/>
      <point x="354" y="-7"/>
      <point x="409" y="18"/>
      <point x="455" y="69" type="curve" smooth="yes"/>
      <point x="500" y="118"/>
      <point x="527" y="180"/>
      <point x="536" y="256" type="curve" smooth="yes"/>
      <point x="546" y="339"/>
      <point x="536" y="404"/>
      <point x="507" y="450" type="curve" smooth="yes"/>
      <point x="479" y="494"/>
      <point x="435" y="516"/>
      <point x="376" y="516" type="curve" smooth="yes"/>
      <point x="310" y="516"/>
      <point x="250" y="486"/>
      <point x="195" y="428" type="curve"/>
    </contour>
    <contour>
      <point x="192" y="367" type="line"/>
      <point x="237" y="418"/>
      <point x="286" y="444"/>
      <point x="338" y="444" type="curve" smooth="yes"/>
      <point x="424" y="444"/>
      <point x="459" y="382"/>
      <point x="444" y="257" type="curve" smooth="yes"/>
      <point x="436" y="195"/>
      <point x="417" y="147"/>
      <point x="388" y="113" type="curve" smooth="yes"/>
      <point x="359" y="79"/>
      <point x="319" y="62"/>
      <point x="271" y="62" type="curve" smooth="yes"/>
      <point x="223" y="62"/>
      <point x="187" y="82"/>
      <point x="162" y="122" type="curve"/>
    </contour>
    <contour>
      <point x="311" y="506" type="move" name="top"/>
    </contour>
    <contour>
      <point x="251" y="0" type="move" name="bottom"/>
    </contour>
  </outline>
</glyph>
<glyph name="u" format="1">
  <advance width="575"/>
  <unicode hex="0075"/>
  <note>
    u
  </note>
  <outline>
    <contour>
      <point x="197" y="63"/>
      <point x="172" y="73"/>
      <point x="157" y="94" type="curve" smooth="yes"/>
      <point x="142" y="115"/>
      <point x="136" y="146"/>
      <point x="141" y="184" type="curve" smooth="yes"/>
      <point x="181" y="506" type="line"/>
      <point x="20" y="506" type="line"/>
      <point x="15" y="464" type="line" smooth="yes"/>
      <point x="14" y="454"/>
      <point x="17" y="447"/>
      <point x="27" y="445" type="curve" smooth="yes"/>
      <point x="33" y="444"/>
      <point x="52" y="440"/>
      <point x="83" y="434" type="curve"/>
      <point x="52" y="184" type="line" smooth="yes"/>
      <point x="45" y="125"/>
      <point x="53" y="77"/>
      <point x="78" y="44" type="curve" smooth="yes"/>
      <point x="104" y="9"/>
      <point x="144" y="-8"/>
      <point x="198" y="-8" type="curve" smooth="yes"/>
      <point x="261" y="-8"/>
      <point x="321" y="19"/>
      <point x="376" y="73" type="curve"/>
      <point x="377" y="18" type="line"/>
      <point x="379" y="6"/>
      <point x="385" y="0"/>
      <point x="398" y="0" type="curve" smooth="yes"/>
      <point x="524" y="0" type="line"/>
      <point x="529" y="43" type="line" smooth="yes"/>
      <point x="530" y="53"/>
      <point x="526" y="60"/>
      <point x="516" y="62" type="curve" smooth="yes"/>
      <point x="510" y="63"/>
      <point x="492" y="67"/>
      <point x="460" y="73" type="curve"/>
      <point x="513" y="506" type="line"/>
      <point x="424" y="506" type="line"/>
      <point x="352" y="506" type="line"/>
      <point x="347" y="464" type="line" smooth="yes"/>
      <point x="346" y="454"/>
      <point x="350" y="447"/>
      <point x="360" y="445" type="curve" smooth="yes"/>
      <point x="391" y="439"/>
      <point x="410" y="435"/>
      <point x="416" y="434" type="curve"/>
      <point x="379" y="133" type="line"/>
      <point x="332" y="86"/>
      <point x="283" y="63"/>
      <point x="233" y="63" type="curve" smooth="yes"/>
    </contour>
    <contour>
      <point x="487" y="10" type="move" name="ogonek"/>
    </contour>
    <contour>
      <point x="318" y="506" type="move" name="top"/>
    </contour>
    <contour>
      <point x="585" y="506" type="move" name="topright"/>
    </contour>
    <contour>
      <point x="258" y="0" type="move" name="bottom"/>
    </contour>
  </outline>
</glyph>
<glyph name="w" format="1">
  <advance width="834"/>
  <unicode hex="0077"/>
  <note>
    w
  </note>
  <outline>
    <contour>
      <point x="623" y="506" type="line"/>
      <point x="618" y="464" type="line" smooth="yes"/>
      <point x="617" y="454"/>
      <point x="621" y="447"/>
      <point x="631" y="445" type="curve" smooth="yes"/>
      <point x="665" y="438"/>
      <point x="684" y="435"/>
      <point x="689" y="434" type="curve"/>
      <point x="573" y="162" type="line" smooth="yes"/>
      <point x="564" y="140"/>
      <point x="555" y="117"/>
      <point x="549" y="94" type="curve"/>
      <point x="545" y="125"/>
      <point x="543" y="148"/>
      <point x="540" y="162" type="curve" smooth="yes"/>
      <point x="476" y="490" type="line"/>
      <point x="473" y="502"/>
      <point x="466" y="508"/>
      <point x="453" y="508" type="curve" smooth="yes"/>
      <point x="414" y="508" type="line" smooth="yes"/>
      <point x="401" y="508"/>
      <point x="392" y="502"/>
      <point x="387" y="490" type="curve" smooth="yes"/>
      <point x="240" y="162" type="line" smooth="yes"/>
      <point x="226" y="130"/>
      <point x="217" y="107"/>
      <point x="212" y="94" type="curve"/>
      <point x="212" y="109"/>
      <point x="210" y="132"/>
      <point x="207" y="162" type="curve"/>
      <point x="160" y="434" type="line"/>
      <point x="191" y="440"/>
      <point x="210" y="444"/>
      <point x="216" y="445" type="curve" smooth="yes"/>
      <point x="227" y="447"/>
      <point x="233" y="454"/>
      <point x="234" y="464" type="curve" smooth="yes"/>
      <point x="239" y="506" type="line"/>
      <point x="13" y="506" type="line"/>
      <point x="8" y="464" type="line" smooth="yes"/>
      <point x="7" y="454"/>
      <point x="10" y="447"/>
      <point x="20" y="445" type="curve"/>
      <point x="23" y="444"/>
      <point x="34" y="442"/>
      <point x="53" y="438" type="curve"/>
      <point x="61" y="436"/>
      <point x="66" y="435"/>
      <point x="69" y="435" type="curve"/>
      <point x="157" y="0" type="line"/>
      <point x="224" y="0" type="line" smooth="yes"/>
      <point x="234" y="0"/>
      <point x="241" y="6"/>
      <point x="246" y="17" type="curve" smooth="yes"/>
      <point x="402" y="360" type="line"/>
      <point x="406" y="368"/>
      <point x="409" y="375"/>
      <point x="411" y="383" type="curve" smooth="yes"/>
      <point x="413" y="390"/>
      <point x="416" y="398"/>
      <point x="419" y="407" type="curve"/>
      <point x="420" y="401"/>
      <point x="420" y="394"/>
      <point x="421" y="385" type="curve" smooth="yes"/>
      <point x="422" y="377"/>
      <point x="423" y="368"/>
      <point x="425" y="360" type="curve"/>
      <point x="495" y="17" type="line" smooth="yes"/>
      <point x="497" y="6"/>
      <point x="502" y="0"/>
      <point x="511" y="0" type="curve" smooth="yes"/>
      <point x="581" y="0" type="line"/>
      <point x="775" y="435" type="line"/>
      <point x="778" y="436"/>
      <point x="786" y="437"/>
      <point x="800" y="440" type="curve" smooth="yes"/>
      <point x="814" y="443"/>
      <point x="822" y="444"/>
      <point x="826" y="445" type="curve"/>
      <point x="836" y="447"/>
      <point x="843" y="454"/>
      <point x="844" y="464" type="curve" smooth="yes"/>
      <point x="849" y="506" type="line"/>
    </contour>
    <contour>
      <point x="447" y="506" type="move" name="top"/>
    </contour>
    <contour>
      <point x="387" y="0" type="move" name="bottom"/>
    </contour>
  </outline>
</glyph>
<glyph name="y" format="1">
  <advance width="559"/>
  <unicode hex="0079"/>
  <note>
    y
  </note>
  <outline>
    <contour>
      <point x="538" y="506" type="line"/>
      <point x="350" y="506" type="line"/>
      <point x="345" y="464" type="line" smooth="yes"/>
      <point x="344" y="454"/>
      <point x="348" y="447"/>
      <point x="357" y="445" type="curve" smooth="yes"/>
      <point x="366" y="443"/>
      <point x="384" y="439"/>
      <point x="410" y="434" type="curve"/>
      <point x="268" y="170" type="line" smooth="yes"/>
      <point x="263" y="160"/>
      <point x="256" y="144"/>
      <point x="248" y="124" type="curve"/>
      <point x="246" y="140"/>
      <point x="244" y="156"/>
      <point x="240" y="169" type="curve" smooth="yes"/>
      <point x="160" y="434" type="line"/>
      <point x="192" y="440"/>
      <point x="211" y="444"/>
      <point x="216" y="445" type="curve" smooth="yes"/>
      <point x="226" y="447"/>
      <point x="232" y="454"/>
      <point x="233" y="464" type="curve" smooth="yes"/>
      <point x="238" y="506" type="line"/>
      <point x="11" y="506" type="line"/>
      <point x="6" y="464" type="line" smooth="yes"/>
      <point x="5" y="454"/>
      <point x="9" y="447"/>
      <point x="19" y="445" type="curve" smooth="yes"/>
      <point x="25" y="444"/>
      <point x="39" y="441"/>
      <point x="63" y="436" type="curve"/>
      <point x="191" y="30" type="line"/>
      <point x="74" y="-172" type="line"/>
      <point x="140" y="-172" type="line" smooth="yes"/>
      <point x="155" y="-172"/>
      <point x="167" y="-165"/>
      <point x="175" y="-150" type="curve" smooth="yes"/>
      <point x="498" y="434" type="line"/>
      <point x="501" y="434"/>
      <point x="510" y="437"/>
      <point x="525" y="440" type="curve" smooth="yes"/>
      <point x="540" y="443"/>
      <point x="549" y="444"/>
      <point x="552" y="445" type="curve"/>
      <point x="562" y="447"/>
      <point x="568" y="454"/>
      <point x="569" y="464" type="curve" smooth="yes"/>
      <point x="574" y="506" type="line"/>
    </contour>
    <contour>
      <point x="310" y="506" type="move" name="top"/>
    </contour>
    <contour>
      <point x="250" y="0" type="move" name="bottom"/>
    </contour>
  </outline>
</glyph>
<glyph name="bar" format="1">
  <advance width="206"/>
  <unicode hex="007C"/>
  <note>
    bar
  </note>
  <outline>
    <contour>
      <point x="68" y="766" type="line"/>
      <point x="68" y="-172" type="line"/>
      <point x="137" y="-172" type="line"/>
      <point x="137" y="766" type="line"/>
    </contour>
  </outline>
</glyph>
<glyph name="braceright" format="1">
  <advance width="303"/>
  <unicode hex="007D"/>
  <note>
    braceright
  </note>
  <outline>
    <contour>
      <point x="195" y="233"/>
      <point x="203" y="250"/>
      <point x="216" y="264" type="curve" smooth="yes"/>
      <point x="229" y="278"/>
      <point x="248" y="284"/>
      <point x="270" y="284" type="curve"/>
      <point x="276" y="338" type="line"/>
      <point x="254" y="338"/>
      <point x="238" y="345"/>
      <point x="228" y="358" type="curve" smooth="yes"/>
      <point x="218" y="371"/>
      <point x="214" y="389"/>
      <point x="217" y="410" type="curve" smooth="yes"/>
      <point x="219" y="427"/>
      <point x="222" y="444"/>
      <point x="227" y="460" type="curve" smooth="yes"/>
      <point x="232" y="476"/>
      <point x="236" y="493"/>
      <point x="241" y="509" type="curve" smooth="yes"/>
      <point x="246" y="525"/>
      <point x="251" y="541"/>
      <point x="256" y="558" type="curve" smooth="yes"/>
      <point x="261" y="575"/>
      <point x="265" y="592"/>
      <point x="267" y="609" type="curve" smooth="yes"/>
      <point x="270" y="632"/>
      <point x="269" y="653"/>
      <point x="264" y="672" type="curve" smooth="yes"/>
      <point x="259" y="691"/>
      <point x="251" y="708"/>
      <point x="239" y="722" type="curve" smooth="yes"/>
      <point x="227" y="736"/>
      <point x="212" y="747"/>
      <point x="192" y="755" type="curve" smooth="yes"/>
      <point x="172" y="763"/>
      <point x="148" y="766"/>
      <point x="121" y="766" type="curve" smooth="yes"/>
      <point x="95" y="766" type="line"/>
      <point x="90" y="727" type="line" smooth="yes"/>
      <point x="89" y="720"/>
      <point x="91" y="715"/>
      <point x="95" y="712" type="curve" smooth="yes"/>
      <point x="99" y="709"/>
      <point x="104" y="708"/>
      <point x="108" y="708" type="curve" smooth="yes"/>
      <point x="118" y="708" type="line" smooth="yes"/>
      <point x="144" y="708"/>
      <point x="162" y="700"/>
      <point x="175" y="683" type="curve" smooth="yes"/>
      <point x="188" y="666"/>
      <point x="193" y="643"/>
      <point x="189" y="614" type="curve" smooth="yes"/>
      <point x="187" y="595"/>
      <point x="183" y="577"/>
      <point x="179" y="560" type="curve" smooth="yes"/>
      <point x="175" y="543"/>
      <point x="170" y="526"/>
      <point x="165" y="510" type="curve" smooth="yes"/>
      <point x="160" y="494"/>
      <point x="155" y="476"/>
      <point x="151" y="460" type="curve" smooth="yes"/>
      <point x="147" y="444"/>
      <point x="143" y="428"/>
      <point x="141" y="411" type="curve"/>
      <point x="139" y="398"/>
      <point x="140" y="387"/>
      <point x="142" y="376" type="curve" smooth="yes"/>
      <point x="144" y="365"/>
      <point x="149" y="356"/>
      <point x="155" y="347" type="curve"/>
      <point x="161" y="339"/>
      <point x="168" y="331"/>
      <point x="176" y="325" type="curve" smooth="yes"/>
      <point x="184" y="319"/>
      <point x="193" y="314"/>
      <point x="204" y="311" type="curve"/>
      <point x="193" y="308"/>
      <point x="182" y="303"/>
      <point x="172" y="297" type="curve" smooth="yes"/>
      <point x="162" y="291"/>
      <point x="154" y="284"/>
      <point x="146" y="275" type="curve" smooth="yes"/>
      <point x="138" y="266"/>
      <point x="131" y="257"/>
      <point x="126" y="246" type="curve" smooth="yes"/>
      <point x="121" y="235"/>
      <point x="119" y="224"/>
      <point x="117" y="212" type="curve"/>
      <point x="115" y="195"/>
      <point x="114" y="178"/>
      <point x="114" y="162" type="curve" smooth="yes"/>
      <point x="114" y="146"/>
      <point x="115" y="129"/>
      <point x="116" y="113" type="curve" smooth="yes"/>
      <point x="117" y="97"/>
      <point x="118" y="79"/>
      <point x="118" y="62" type="curve" smooth="yes"/>
      <point x="118" y="45"/>
      <point x="117" y="27"/>
      <point x="115" y="8" type="curve" smooth="yes"/>
      <point x="111" y="-21"/>
      <point x="101" y="-43"/>
      <point x="84" y="-60" type="curve" smooth="yes"/>
      <point x="67" y="-77"/>
      <point x="46" y="-85"/>
      <point x="20" y="-85" type="curve" smooth="yes"/>
      <point x="10" y="-85" type="line" smooth="yes"/>
      <point x="6" y="-85"/>
      <point x="2" y="-87"/>
      <point x="-3" y="-90" type="curve" smooth="yes"/>
      <point x="-8" y="-93"/>
      <point x="-11" y="-97"/>
      <point x="-12" y="-104" type="curve" smooth="yes"/>
      <point x="-17" y="-144" type="line"/>
      <point x="10" y="-144" type="line" smooth="yes"/>
      <point x="37" y="-144"/>
      <point x="62" y="-141"/>
      <point x="83" y="-133" type="curve" smooth="yes"/>
      <point x="104" y="-125"/>
      <point x="123" y="-114"/>
      <point x="138" y="-100" type="curve" smooth="yes"/>
      <point x="153" y="-86"/>
      <point x="166" y="-69"/>
      <point x="175" y="-50" type="curve" smooth="yes"/>
      <point x="184" y="-31"/>
      <point x="190" y="-9"/>
      <point x="193" y="14" type="curve" smooth="yes"/>
      <point x="195" y="31"/>
      <point x="197" y="48"/>
      <point x="196" y="64" type="curve" smooth="yes"/>
      <point x="195" y="80"/>
      <point x="194" y="98"/>
      <point x="193" y="114" type="curve" smooth="yes"/>
      <point x="192" y="130"/>
      <point x="191" y="147"/>
      <point x="190" y="163" type="curve" smooth="yes"/>
      <point x="189" y="179"/>
      <point x="190" y="195"/>
      <point x="192" y="212" type="curve" smooth="yes"/>
    </contour>
  </outline>
</glyph>
<glyph name="asciitilde" format="1">
  <advance width="571"/>
  <unicode hex="007E"/>
  <note>
    asciitilde
  </note>
  <outline>
    <contour>
      <point x="364" y="306"/>
      <point x="351" y="309"/>
      <point x="337" y="315" type="curve" smooth="yes"/>
      <point x="323" y="321"/>
      <point x="309" y="327"/>
      <point x="294" y="333" type="curve" smooth="yes"/>
      <point x="279" y="339"/>
      <point x="263" y="345"/>
      <point x="247" y="351" type="curve" smooth="yes"/>
      <point x="231" y="357"/>
      <point x="214" y="359"/>
      <point x="197" y="359" type="curve" smooth="yes"/>
      <point x="175" y="359"/>
      <point x="156" y="356"/>
      <point x="138" y="348" type="curve"/>
      <point x="120" y="341"/>
      <point x="104" y="329"/>
      <point x="91" y="316" type="curve" smooth="yes"/>
      <point x="78" y="303"/>
      <point x="67" y="287"/>
      <point x="59" y="268" type="curve" smooth="yes"/>
      <point x="51" y="249"/>
      <point x="45" y="229"/>
      <point x="42" y="207" type="curve"/>
      <point x="114" y="207" type="line"/>
      <point x="117" y="231"/>
      <point x="126" y="250"/>
      <point x="140" y="264" type="curve" smooth="yes"/>
      <point x="154" y="278"/>
      <point x="171" y="284"/>
      <point x="193" y="284" type="curve" smooth="yes"/>
      <point x="205" y="284"/>
      <point x="218" y="282"/>
      <point x="232" y="276" type="curve" smooth="yes"/>
      <point x="246" y="270"/>
      <point x="260" y="264"/>
      <point x="275" y="258" type="curve" smooth="yes"/>
      <point x="290" y="252"/>
      <point x="306" y="245"/>
      <point x="322" y="240" type="curve" smooth="yes"/>
      <point x="338" y="235"/>
      <point x="355" y="232"/>
      <point x="372" y="232" type="curve" smooth="yes"/>
      <point x="393" y="232"/>
      <point x="413" y="237"/>
      <point x="431" y="244" type="curve" smooth="yes"/>
      <point x="449" y="251"/>
      <point x="465" y="261"/>
      <point x="478" y="274" type="curve" smooth="yes"/>
      <point x="491" y="287"/>
      <point x="502" y="303"/>
      <point x="510" y="322" type="curve" smooth="yes"/>
      <point x="518" y="341"/>
      <point x="524" y="362"/>
      <point x="527" y="384" type="curve"/>
      <point x="455" y="384" type="line"/>
      <point x="452" y="361"/>
      <point x="443" y="342"/>
      <point x="429" y="328" type="curve" smooth="yes"/>
      <point x="415" y="314"/>
      <point x="398" y="306"/>
      <point x="376" y="306" type="curve" smooth="yes"/>
    </contour>
  </outline>
</glyph>
<glyph name="exclamdown" format="1">
  <advance width="231"/>
  <unicode hex="00A1"/>
  <note>
    exclamdown
  </note>
  <outline>
    <contour>
      <point x="20" y="-172" type="line"/>
      <point x="104" y="-172" type="line"/>
      <point x="138" y="99" type="line" smooth="yes"/>
      <point x="140" y="114"/>
      <point x="141" y="129"/>
      <point x="142" y="143" type="curve" smooth="yes"/>
      <point x="143" y="157"/>
      <point x="144" y="172"/>
      <point x="145" y="186" type="curve" smooth="yes"/>
      <point x="146" y="200"/>
      <point x="147" y="215"/>
      <point x="147" y="230" type="curve" smooth="yes"/>
      <point x="147" y="245"/>
      <point x="148" y="263"/>
      <point x="148" y="280" type="curve"/>
      <point x="87" y="280" type="line"/>
      <point x="83" y="263"/>
      <point x="79" y="245"/>
      <point x="76" y="230" type="curve" smooth="yes"/>
      <point x="73" y="215"/>
      <point x="70" y="200"/>
      <point x="67" y="186" type="curve" smooth="yes"/>
      <point x="64" y="172"/>
      <point x="61" y="157"/>
      <point x="59" y="143" type="curve" smooth="yes"/>
      <point x="57" y="129"/>
      <point x="55" y="114"/>
      <point x="53" y="99" type="curve" smooth="yes"/>
    </contour>
    <contour>
      <point x="74" y="443"/>
      <point x="74" y="436"/>
      <point x="76" y="428" type="curve" smooth="yes"/>
      <point x="78" y="420"/>
      <point x="82" y="414"/>
      <point x="87" y="408" type="curve" smooth="yes"/>
      <point x="92" y="402"/>
      <point x="98" y="397"/>
      <point x="105" y="394" type="curve" smooth="yes"/>
      <point x="112" y="391"/>
      <point x="120" y="389"/>
      <point x="129" y="389" type="curve" smooth="yes"/>
      <point x="138" y="389"/>
      <point x="146" y="391"/>
      <point x="154" y="394" type="curve" smooth="yes"/>
      <point x="162" y="397"/>
      <point x="170" y="402"/>
      <point x="176" y="408" type="curve" smooth="yes"/>
      <point x="182" y="414"/>
      <point x="188" y="420"/>
      <point x="192" y="428" type="curve" smooth="yes"/>
      <point x="196" y="436"/>
      <point x="199" y="443"/>
      <point x="200" y="452" type="curve" smooth="yes"/>
      <point x="201" y="461"/>
      <point x="200" y="469"/>
      <point x="198" y="477" type="curve" smooth="yes"/>
      <point x="196" y="484"/>
      <point x="192" y="491"/>
      <point x="187" y="497" type="curve" smooth="yes"/>
      <point x="182" y="503"/>
      <point x="175" y="507"/>
      <point x="168" y="510" type="curve" smooth="yes"/>
      <point x="161" y="513"/>
      <point x="154" y="514"/>
      <point x="145" y="514" type="curve" smooth="yes"/>
      <point x="136" y="514"/>
      <point x="127" y="513"/>
      <point x="119" y="510" type="curve" smooth="yes"/>
      <point x="111" y="507"/>
      <point x="104" y="503"/>
      <point x="98" y="497" type="curve" smooth="yes"/>
      <point x="92" y="491"/>
      <point x="86" y="485"/>
      <point x="82" y="477" type="curve" smooth="yes"/>
      <point x="78" y="469"/>
      <point x="76" y="461"/>
      <point x="75" y="452" type="curve" smooth="yes"/>
    </contour>
  </outline>
</glyph>
<glyph name="dieresis" format="1">
  <advance width="389"/>
  <unicode hex="00A8"/>
  <note>
    dieresis
  </note>
  <outline>
    <contour>
      <point x="175" y="589"/>
      <point x="204" y="614"/>
      <point x="208" y="645" type="curve" smooth="yes"/>
      <point x="212" y="676"/>
      <point x="189" y="701"/>
      <point x="158" y="701" type="curve" smooth="yes"/>
      <point x="127" y="701"/>
      <point x="98" y="676"/>
      <point x="95" y="645" type="curve" smooth="yes"/>
      <point x="92" y="614"/>
      <point x="114" y="589"/>
      <point x="144" y="589" type="curve" smooth="yes"/>
    </contour>
    <contour>
      <point x="354" y="589"/>
      <point x="383" y="614"/>
      <point x="387" y="645" type="curve" smooth="yes"/>
      <point x="391" y="676"/>
      <point x="368" y="701"/>
      <point x="337" y="701" type="curve" smooth="yes"/>
      <point x="306" y="701"/>
      <point x="277" y="676"/>
      <point x="274" y="645" type="curve" smooth="yes"/>
      <point x="271" y="614"/>
      <point x="293" y="589"/>
      <point x="323" y="589" type="curve" smooth="yes"/>
    </contour>
  </outline>
</glyph>
<glyph name="logicalnot" format="1">
  <advance width="536"/>
  <unicode hex="00AC"/>
  <note>
    logicalnot
  </note>
  <outline>
    <contour>
      <point x="54" y="370" type="line"/>
      <point x="46" y="302" type="line"/>
      <point x="400" y="302" type="line"/>
      <point x="382" y="158" type="line"/>
      <point x="458" y="158" type="line"/>
      <point x="484" y="370" type="line"/>
    </contour>
  </outline>
</glyph>
<glyph name="registered" format="1">
  <advance width="790"/>
  <unicode hex="00AE"/>
  <note>
    registered
  </note>
  <outline>
    <contour>
      <point x="25" y="324"/>
      <point x="25" y="292"/>
      <point x="30" y="261" type="curve" smooth="yes"/>
      <point x="35" y="230"/>
      <point x="44" y="201"/>
      <point x="57" y="174" type="curve" smooth="yes"/>
      <point x="70" y="147"/>
      <point x="85" y="122"/>
      <point x="105" y="100" type="curve" smooth="yes"/>
      <point x="125" y="78"/>
      <point x="147" y="59"/>
      <point x="172" y="43" type="curve" smooth="yes"/>
      <point x="197" y="27"/>
      <point x="224" y="15"/>
      <point x="254" y="6" type="curve" smooth="yes"/>
      <point x="284" y="-3"/>
      <point x="316" y="-7"/>
      <point x="350" y="-7" type="curve" smooth="yes"/>
      <point x="384" y="-7"/>
      <point x="416" y="-3"/>
      <point x="448" y="6" type="curve" smooth="yes"/>
      <point x="480" y="15"/>
      <point x="511" y="27"/>
      <point x="540" y="43" type="curve" smooth="yes"/>
      <point x="569" y="59"/>
      <point x="596" y="78"/>
      <point x="621" y="100" type="curve" smooth="yes"/>
      <point x="646" y="122"/>
      <point x="669" y="147"/>
      <point x="688" y="174" type="curve" smooth="yes"/>
      <point x="707" y="201"/>
      <point x="723" y="230"/>
      <point x="735" y="261" type="curve" smooth="yes"/>
      <point x="747" y="292"/>
      <point x="756" y="325"/>
      <point x="760" y="358" type="curve" smooth="yes"/>
      <point x="764" y="392"/>
      <point x="764" y="424"/>
      <point x="759" y="455" type="curve" smooth="yes"/>
      <point x="754" y="486"/>
      <point x="745" y="516"/>
      <point x="733" y="543" type="curve" smooth="yes"/>
      <point x="721" y="570"/>
      <point x="705" y="595"/>
      <point x="685" y="617" type="curve" smooth="yes"/>
      <point x="665" y="639"/>
      <point x="643" y="658"/>
      <point x="618" y="674" type="curve" smooth="yes"/>
      <point x="593" y="690"/>
      <point x="565" y="702"/>
      <point x="535" y="711" type="curve" smooth="yes"/>
      <point x="505" y="720"/>
      <point x="473" y="724"/>
      <point x="439" y="724" type="curve" smooth="yes"/>
      <point x="405" y="724"/>
      <point x="373" y="720"/>
      <point x="341" y="711" type="curve" smooth="yes"/>
      <point x="309" y="702"/>
      <point x="278" y="690"/>
      <point x="249" y="674" type="curve" smooth="yes"/>
      <point x="220" y="658"/>
      <point x="193" y="639"/>
      <point x="168" y="617" type="curve" smooth="yes"/>
      <point x="143" y="595"/>
      <point x="121" y="570"/>
      <point x="102" y="543" type="curve" smooth="yes"/>
      <point x="83" y="516"/>
      <point x="66" y="486"/>
      <point x="54" y="455" type="curve" smooth="yes"/>
      <point x="42" y="424"/>
      <point x="33" y="392"/>
      <point x="29" y="358" type="curve" smooth="yes"/>
    </contour>
    <contour>
      <point x="84" y="403"/>
      <point x="98" y="445"/>
      <point x="119" y="484" type="curve" smooth="yes"/>
      <point x="140" y="523"/>
      <point x="167" y="557"/>
      <point x="199" y="586" type="curve" smooth="yes"/>
      <point x="231" y="615"/>
      <point x="267" y="638"/>
      <point x="307" y="655" type="curve" smooth="yes"/>
      <point x="347" y="672"/>
      <point x="390" y="680"/>
      <point x="434" y="680" type="curve" smooth="yes"/>
      <point x="463" y="680"/>
      <point x="491" y="677"/>
      <point x="517" y="669" type="curve" smooth="yes"/>
      <point x="543" y="661"/>
      <point x="567" y="651"/>
      <point x="589" y="637" type="curve" smooth="yes"/>
      <point x="611" y="623"/>
      <point x="630" y="606"/>
      <point x="647" y="586" type="curve" smooth="yes"/>
      <point x="664" y="566"/>
      <point x="677" y="545"/>
      <point x="688" y="521" type="curve" smooth="yes"/>
      <point x="699" y="497"/>
      <point x="706" y="472"/>
      <point x="710" y="444" type="curve" smooth="yes"/>
      <point x="714" y="416"/>
      <point x="715" y="388"/>
      <point x="711" y="358" type="curve" smooth="yes"/>
      <point x="706" y="313"/>
      <point x="692" y="272"/>
      <point x="671" y="233" type="curve" smooth="yes"/>
      <point x="650" y="194"/>
      <point x="623" y="160"/>
      <point x="591" y="131" type="curve" smooth="yes"/>
      <point x="559" y="102"/>
      <point x="523" y="80"/>
      <point x="482" y="63" type="curve" smooth="yes"/>
      <point x="441" y="46"/>
      <point x="399" y="38"/>
      <point x="355" y="38" type="curve" smooth="yes"/>
      <point x="326" y="38"/>
      <point x="298" y="41"/>
      <point x="272" y="49" type="curve" smooth="yes"/>
      <point x="246" y="57"/>
      <point x="222" y="67"/>
      <point x="200" y="81" type="curve" smooth="yes"/>
      <point x="178" y="95"/>
      <point x="160" y="112"/>
      <point x="143" y="131" type="curve" smooth="yes"/>
      <point x="126" y="150"/>
      <point x="113" y="172"/>
      <point x="102" y="196" type="curve" smooth="yes"/>
      <point x="91" y="220"/>
      <point x="84" y="245"/>
      <point x="80" y="272" type="curve" smooth="yes"/>
      <point x="76" y="299"/>
      <point x="75" y="328"/>
      <point x="79" y="358" type="curve" smooth="yes"/>
    </contour>
    <contour>
      <point x="317" y="313" type="line"/>
      <point x="357" y="313" type="line" smooth="yes"/>
      <point x="366" y="313"/>
      <point x="372" y="312"/>
      <point x="376" y="310" type="curve" smooth="yes"/>
      <point x="380" y="308"/>
      <point x="383" y="304"/>
      <point x="385" y="300" type="curve" smooth="yes"/>
      <point x="467" y="148" type="line" smooth="yes"/>
      <point x="471" y="140"/>
      <point x="479" y="136"/>
      <point x="490" y="136" type="curve" smooth="yes"/>
      <point x="564" y="136" type="line"/>
      <point x="471" y="303" type="line"/>
      <point x="468" y="310"/>
      <point x="465" y="315"/>
      <point x="461" y="320" type="curve" smooth="yes"/>
      <point x="457" y="325"/>
      <point x="453" y="330"/>
      <point x="448" y="333" type="curve"/>
      <point x="484" y="341"/>
      <point x="512" y="356"/>
      <point x="533" y="378" type="curve" smooth="yes"/>
      <point x="554" y="400"/>
      <point x="566" y="427"/>
      <point x="570" y="458" type="curve" smooth="yes"/>
      <point x="575" y="499"/>
      <point x="565" y="530"/>
      <point x="540" y="551" type="curve" smooth="yes"/>
      <point x="515" y="572"/>
      <point x="473" y="582"/>
      <point x="416" y="582" type="curve" smooth="yes"/>
      <point x="272" y="582" type="line"/>
      <point x="217" y="136" type="line"/>
      <point x="295" y="136" type="line"/>
    </contour>
    <contour>
      <point x="324" y="370" type="line"/>
      <point x="342" y="522" type="line"/>
      <point x="408" y="522" type="line" smooth="yes"/>
      <point x="425" y="522"/>
      <point x="440" y="521"/>
      <point x="451" y="518" type="curve" smooth="yes"/>
      <point x="462" y="515"/>
      <point x="472" y="510"/>
      <point x="478" y="504" type="curve" smooth="yes"/>
      <point x="484" y="498"/>
      <point x="489" y="490"/>
      <point x="491" y="481" type="curve" smooth="yes"/>
      <point x="493" y="472"/>
      <point x="493" y="460"/>
      <point x="491" y="448" type="curve" smooth="yes"/>
      <point x="489" y="435"/>
      <point x="487" y="425"/>
      <point x="482" y="415" type="curve" smooth="yes"/>
      <point x="477" y="405"/>
      <point x="471" y="398"/>
      <point x="462" y="391" type="curve" smooth="yes"/>
      <point x="453" y="384"/>
      <point x="442" y="379"/>
      <point x="429" y="375" type="curve" smooth="yes"/>
      <point x="416" y="371"/>
      <point x="400" y="370"/>
      <point x="382" y="370" type="curve" smooth="yes"/>
    </contour>
  </outline>
</glyph>
<glyph name="macron" format="1">
  <advance width="400"/>
  <unicode hex="00AF"/>
  <note>
    macron
  </note>
  <outline>
    <contour>
      <point x="107" y="674" type="line"/>
      <point x="100" y="616" type="line"/>
      <point x="387" y="616" type="line"/>
      <point x="394" y="674" type="line"/>
    </contour>
  </outline>
</glyph>
<glyph name="threesuperior" format="1">
  <advance width="316"/>
  <unicode hex="00B3"/>
  <note>
    threesuperior
  </note>
  <outline>
    <contour>
      <point x="179" y="818"/>
      <point x="164" y="816"/>
      <point x="149" y="812" type="curve" smooth="yes"/>
      <point x="134" y="808"/>
      <point x="121" y="801"/>
      <point x="109" y="792" type="curve" smooth="yes"/>
      <point x="97" y="783"/>
      <point x="87" y="772"/>
      <point x="78" y="759" type="curve" smooth="yes"/>
      <point x="69" y="746"/>
      <point x="63" y="730"/>
      <point x="58" y="712" type="curve"/>
      <point x="91" y="706" type="line"/>
      <point x="95" y="706" type="line"/>
      <point x="100" y="706" type="line" smooth="yes"/>
      <point x="105" y="706"/>
      <point x="109" y="707"/>
      <point x="112" y="709" type="curve" smooth="yes"/>
      <point x="115" y="711"/>
      <point x="118" y="716"/>
      <point x="121" y="721" type="curve"/>
      <point x="127" y="734"/>
      <point x="136" y="745"/>
      <point x="146" y="753" type="curve" smooth="yes"/>
      <point x="156" y="761"/>
      <point x="169" y="764"/>
      <point x="185" y="764" type="curve" smooth="yes"/>
      <point x="201" y="764"/>
      <point x="213" y="761"/>
      <point x="222" y="752" type="curve" smooth="yes"/>
      <point x="231" y="743"/>
      <point x="234" y="731"/>
      <point x="232" y="714" type="curve" smooth="yes"/>
      <point x="230" y="697"/>
      <point x="222" y="682"/>
      <point x="209" y="672" type="curve" smooth="yes"/>
      <point x="196" y="662"/>
      <point x="175" y="657"/>
      <point x="146" y="657" type="curve"/>
      <point x="141" y="614" type="line"/>
      <point x="157" y="614"/>
      <point x="169" y="612"/>
      <point x="180" y="610" type="curve" smooth="yes"/>
      <point x="191" y="608"/>
      <point x="199" y="605"/>
      <point x="205" y="600" type="curve" smooth="yes"/>
      <point x="211" y="595"/>
      <point x="215" y="589"/>
      <point x="217" y="582" type="curve" smooth="yes"/>
      <point x="219" y="575"/>
      <point x="219" y="566"/>
      <point x="218" y="556" type="curve"/>
      <point x="217" y="549"/>
      <point x="214" y="542"/>
      <point x="211" y="535" type="curve" smooth="yes"/>
      <point x="208" y="528"/>
      <point x="203" y="523"/>
      <point x="197" y="518" type="curve" smooth="yes"/>
      <point x="191" y="513"/>
      <point x="184" y="508"/>
      <point x="176" y="505" type="curve" smooth="yes"/>
      <point x="168" y="502"/>
      <point x="158" y="500"/>
      <point x="148" y="500" type="curve" smooth="yes"/>
      <point x="137" y="500"/>
      <point x="129" y="502"/>
      <point x="122" y="505" type="curve" smooth="yes"/>
      <point x="115" y="508"/>
      <point x="109" y="511"/>
      <point x="105" y="516" type="curve" smooth="yes"/>
      <point x="101" y="521"/>
      <point x="97" y="526"/>
      <point x="95" y="531" type="curve" smooth="yes"/>
      <point x="93" y="536"/>
      <point x="90" y="542"/>
      <point x="89" y="546" type="curve"/>
      <point x="86" y="554"/>
      <point x="80" y="557"/>
      <point x="70" y="557" type="curve" smooth="yes"/>
      <point x="65" y="557"/>
      <point x="60" y="556"/>
      <point x="55" y="554" type="curve" smooth="yes"/>
      <point x="26" y="542" type="line"/>
      <point x="29" y="526"/>
      <point x="34" y="513"/>
      <point x="40" y="501" type="curve" smooth="yes"/>
      <point x="46" y="489"/>
      <point x="53" y="479"/>
      <point x="62" y="471" type="curve" smooth="yes"/>
      <point x="71" y="463"/>
      <point x="83" y="456"/>
      <point x="96" y="452" type="curve" smooth="yes"/>
      <point x="109" y="448"/>
      <point x="126" y="446"/>
      <point x="145" y="446" type="curve" smooth="yes"/>
      <point x="161" y="446"/>
      <point x="176" y="448"/>
      <point x="192" y="453" type="curve" smooth="yes"/>
      <point x="208" y="458"/>
      <point x="222" y="465"/>
      <point x="235" y="475" type="curve" smooth="yes"/>
      <point x="248" y="485"/>
      <point x="258" y="496"/>
      <point x="267" y="510" type="curve" smooth="yes"/>
      <point x="276" y="524"/>
      <point x="281" y="540"/>
      <point x="283" y="558" type="curve" smooth="yes"/>
      <point x="286" y="579"/>
      <point x="282" y="596"/>
      <point x="272" y="609" type="curve" smooth="yes"/>
      <point x="262" y="622"/>
      <point x="247" y="632"/>
      <point x="226" y="638" type="curve"/>
      <point x="268" y="653"/>
      <point x="291" y="681"/>
      <point x="296" y="724" type="curve"/>
      <point x="298" y="737"/>
      <point x="296" y="751"/>
      <point x="292" y="762" type="curve" smooth="yes"/>
      <point x="288" y="773"/>
      <point x="282" y="782"/>
      <point x="273" y="791" type="curve"/>
      <point x="264" y="799"/>
      <point x="253" y="806"/>
      <point x="240" y="811" type="curve" smooth="yes"/>
      <point x="227" y="816"/>
      <point x="212" y="818"/>
      <point x="195" y="818" type="curve" smooth="yes"/>
    </contour>
  </outline>
</glyph>
<glyph name="acute" format="1">
  <advance width="287"/>
  <unicode hex="00B4"/>
  <note>
    acute
  </note>
  <outline>
    <contour>
      <point x="301" y="724" type="line"/>
      <point x="214" y="724" type="line" smooth="yes"/>
      <point x="203" y="724"/>
      <point x="195" y="723"/>
      <point x="189" y="719" type="curve"/>
      <point x="183" y="716"/>
      <point x="178" y="710"/>
      <point x="172" y="702" type="curve" smooth="yes"/>
      <point x="83" y="582" type="line"/>
      <point x="136" y="582" type="line" smooth="yes"/>
      <point x="143" y="582"/>
      <point x="149" y="583"/>
      <point x="154" y="585" type="curve" smooth="yes"/>
      <point x="159" y="587"/>
      <point x="164" y="591"/>
      <point x="169" y="596" type="curve" smooth="yes"/>
    </contour>
  </outline>
</glyph>
<glyph name="cedilla" format="1">
  <advance width="276"/>
  <unicode hex="00B8"/>
  <note>
    cedilla
  </note>
  <outline>
    <contour>
      <point x="25" y="-124"/>
      <point x="21" y="-126"/>
      <point x="18" y="-132" type="curve" smooth="yes"/>
      <point x="7" y="-160" type="line"/>
      <point x="25" y="-169"/>
      <point x="57" y="-176"/>
      <point x="78" y="-176" type="curve" smooth="yes"/>
      <point x="131" y="-176"/>
      <point x="191" y="-152"/>
      <point x="195" y="-106" type="curve" smooth="yes"/>
      <point x="200" y="-63"/>
      <point x="166" y="-46"/>
      <point x="118" y="-35" type="curve"/>
      <point x="135" y="5" type="line"/>
      <point x="79" y="5" type="line"/>
      <point x="49" y="-66" type="line"/>
      <point x="93" y="-73"/>
      <point x="124" y="-80"/>
      <point x="124" y="-106" type="curve" smooth="yes"/>
      <point x="124" y="-124"/>
      <point x="106" y="-135"/>
      <point x="78" y="-135" type="curve" smooth="yes"/>
      <point x="53" y="-135"/>
      <point x="41" y="-124"/>
      <point x="31" y="-124" type="curve" smooth="yes"/>
    </contour>
  </outline>
</glyph>
<glyph name="onequarter" format="1">
  <advance width="654"/>
  <unicode hex="00BC"/>
  <note>
    onequarter
  </note>
  <outline>
    <contour>
      <point x="573" y="134" type="line"/>
      <point x="601" y="364" type="line"/>
      <point x="539" y="364" type="line"/>
      <point x="339" y="130" type="line"/>
      <point x="341" y="102" type="line"/>
      <point x="341" y="98"/>
      <point x="343" y="95"/>
      <point x="346" y="92" type="curve" smooth="yes"/>
      <point x="349" y="89"/>
      <point x="354" y="88"/>
      <point x="360" y="88" type="curve" smooth="yes"/>
      <point x="513" y="88" type="line"/>
      <point x="502" y="0" type="line"/>
      <point x="556" y="0" type="line"/>
      <point x="567" y="88" type="line"/>
      <point x="608" y="88" type="line" smooth="yes"/>
      <point x="612" y="88"/>
      <point x="616" y="90"/>
      <point x="619" y="92" type="curve" smooth="yes"/>
      <point x="622" y="94"/>
      <point x="623" y="97"/>
      <point x="623" y="101" type="curve"/>
      <point x="627" y="134" type="line"/>
    </contour>
    <contour>
      <point x="35" y="394" type="line"/>
      <point x="30" y="352" type="line"/>
      <point x="233" y="352" type="line"/>
      <point x="238" y="394" type="line"/>
      <point x="173" y="394" type="line"/>
      <point x="213" y="717" type="line"/>
      <point x="159" y="717" type="line"/>
      <point x="36" y="622" type="line"/>
      <point x="52" y="594" type="line"/>
      <point x="54" y="589"/>
      <point x="59" y="587"/>
      <point x="67" y="587" type="curve" smooth="yes"/>
      <point x="72" y="587"/>
      <point x="77" y="589"/>
      <point x="81" y="592" type="curve" smooth="yes"/>
      <point x="140" y="636" type="line"/>
      <point x="135" y="614" type="line"/>
      <point x="108" y="394" type="line"/>
    </contour>
    <contour>
      <point x="518" y="134" type="line"/>
      <point x="400" y="134" type="line"/>
      <point x="541" y="297" type="line"/>
      <point x="539" y="289"/>
      <point x="537" y="281"/>
      <point x="536" y="274" type="curve" smooth="yes"/>
      <point x="535" y="267"/>
      <point x="534" y="260"/>
      <point x="533" y="254" type="curve"/>
    </contour>
    <contour>
      <point x="625" y="716" type="line"/>
      <point x="587" y="716" type="line" smooth="yes"/>
      <point x="576" y="716"/>
      <point x="566" y="713"/>
      <point x="558" y="708" type="curve" smooth="yes"/>
      <point x="550" y="703"/>
      <point x="542" y="696"/>
      <point x="535" y="686" type="curve" smooth="yes"/>
      <point x="42" y="0" type="line"/>
      <point x="80" y="0" type="line" smooth="yes"/>
      <point x="90" y="0"/>
      <point x="98" y="2"/>
      <point x="106" y="6" type="curve" smooth="yes"/>
      <point x="114" y="10"/>
      <point x="121" y="16"/>
      <point x="129" y="26" type="curve"/>
    </contour>
  </outline>
</glyph>
<glyph name="threequarters" format="1">
  <advance width="677"/>
  <unicode hex="00BE"/>
  <note>
    threequarters
  </note>
  <outline>
    <contour>
      <point x="595" y="134" type="line"/>
      <point x="623" y="364" type="line"/>
      <point x="561" y="364" type="line"/>
      <point x="362" y="130" type="line"/>
      <point x="363" y="102" type="line"/>
      <point x="363" y="98"/>
      <point x="365" y="95"/>
      <point x="368" y="92" type="curve" smooth="yes"/>
      <point x="371" y="89"/>
      <point x="376" y="88"/>
      <point x="382" y="88" type="curve" smooth="yes"/>
      <point x="535" y="88" type="line"/>
      <point x="524" y="0" type="line"/>
      <point x="578" y="0" type="line"/>
      <point x="589" y="88" type="line"/>
      <point x="630" y="88" type="line" smooth="yes"/>
      <point x="634" y="88"/>
      <point x="638" y="90"/>
      <point x="641" y="92" type="curve" smooth="yes"/>
      <point x="644" y="94"/>
      <point x="645" y="97"/>
      <point x="645" y="101" type="curve"/>
      <point x="649" y="134" type="line"/>
    </contour>
    <contour>
      <point x="172" y="720"/>
      <point x="157" y="717"/>
      <point x="142" y="713" type="curve" smooth="yes"/>
      <point x="127" y="709"/>
      <point x="114" y="702"/>
      <point x="102" y="693" type="curve" smooth="yes"/>
      <point x="90" y="684"/>
      <point x="80" y="673"/>
      <point x="71" y="660" type="curve" smooth="yes"/>
      <point x="62" y="647"/>
      <point x="55" y="632"/>
      <point x="50" y="614" type="curve"/>
      <point x="83" y="608" type="line"/>
      <point x="85" y="608"/>
      <point x="87" y="607"/>
      <point x="88" y="607" type="curve" smooth="yes"/>
      <point x="92" y="607" type="line" smooth="yes"/>
      <point x="97" y="607"/>
      <point x="101" y="609"/>
      <point x="104" y="611" type="curve" smooth="yes"/>
      <point x="107" y="613"/>
      <point x="111" y="618"/>
      <point x="114" y="623" type="curve"/>
      <point x="120" y="636"/>
      <point x="128" y="646"/>
      <point x="138" y="654" type="curve" smooth="yes"/>
      <point x="148" y="662"/>
      <point x="162" y="666"/>
      <point x="178" y="666" type="curve" smooth="yes"/>
      <point x="194" y="666"/>
      <point x="206" y="662"/>
      <point x="215" y="653" type="curve" smooth="yes"/>
      <point x="224" y="644"/>
      <point x="226" y="632"/>
      <point x="224" y="615" type="curve" smooth="yes"/>
      <point x="222" y="598"/>
      <point x="215" y="584"/>
      <point x="202" y="574" type="curve" smooth="yes"/>
      <point x="189" y="564"/>
      <point x="168" y="559"/>
      <point x="139" y="559" type="curve"/>
      <point x="133" y="515" type="line"/>
      <point x="149" y="515"/>
      <point x="162" y="514"/>
      <point x="173" y="512" type="curve" smooth="yes"/>
      <point x="184" y="510"/>
      <point x="191" y="506"/>
      <point x="197" y="501" type="curve" smooth="yes"/>
      <point x="203" y="496"/>
      <point x="207" y="490"/>
      <point x="209" y="483" type="curve" smooth="yes"/>
      <point x="211" y="476"/>
      <point x="211" y="468"/>
      <point x="210" y="458" type="curve"/>
      <point x="209" y="451"/>
      <point x="207" y="444"/>
      <point x="204" y="437" type="curve" smooth="yes"/>
      <point x="201" y="430"/>
      <point x="195" y="424"/>
      <point x="189" y="419" type="curve" smooth="yes"/>
      <point x="183" y="414"/>
      <point x="176" y="410"/>
      <point x="168" y="407" type="curve" smooth="yes"/>
      <point x="160" y="404"/>
      <point x="150" y="402"/>
      <point x="140" y="402" type="curve" smooth="yes"/>
      <point x="129" y="402"/>
      <point x="121" y="403"/>
      <point x="114" y="406" type="curve" smooth="yes"/>
      <point x="107" y="409"/>
      <point x="101" y="413"/>
      <point x="97" y="418" type="curve" smooth="yes"/>
      <point x="93" y="423"/>
      <point x="89" y="428"/>
      <point x="87" y="433" type="curve" smooth="yes"/>
      <point x="85" y="438"/>
      <point x="82" y="444"/>
      <point x="81" y="448" type="curve"/>
      <point x="78" y="456"/>
      <point x="73" y="459"/>
      <point x="63" y="459" type="curve" smooth="yes"/>
      <point x="58" y="459"/>
      <point x="53" y="458"/>
      <point x="48" y="456" type="curve" smooth="yes"/>
      <point x="19" y="444" type="line"/>
      <point x="22" y="428"/>
      <point x="26" y="415"/>
      <point x="32" y="403" type="curve" smooth="yes"/>
      <point x="38" y="391"/>
      <point x="45" y="380"/>
      <point x="54" y="372" type="curve" smooth="yes"/>
      <point x="63" y="364"/>
      <point x="75" y="358"/>
      <point x="88" y="354" type="curve" smooth="yes"/>
      <point x="101" y="350"/>
      <point x="118" y="348"/>
      <point x="137" y="348" type="curve" smooth="yes"/>
      <point x="153" y="348"/>
      <point x="169" y="350"/>
      <point x="185" y="355" type="curve" smooth="yes"/>
      <point x="201" y="360"/>
      <point x="214" y="366"/>
      <point x="227" y="376" type="curve" smooth="yes"/>
      <point x="240" y="386"/>
      <point x="251" y="398"/>
      <point x="260" y="412" type="curve" smooth="yes"/>
      <point x="269" y="426"/>
      <point x="274" y="442"/>
      <point x="276" y="460" type="curve" smooth="yes"/>
      <point x="279" y="481"/>
      <point x="275" y="498"/>
      <point x="265" y="511" type="curve" smooth="yes"/>
      <point x="255" y="524"/>
      <point x="239" y="534"/>
      <point x="218" y="540" type="curve"/>
      <point x="260" y="555"/>
      <point x="283" y="583"/>
      <point x="288" y="626" type="curve"/>
      <point x="290" y="639"/>
      <point x="289" y="652"/>
      <point x="285" y="663" type="curve" smooth="yes"/>
      <point x="281" y="674"/>
      <point x="275" y="684"/>
      <point x="266" y="693" type="curve"/>
      <point x="257" y="701"/>
      <point x="246" y="708"/>
      <point x="233" y="713" type="curve" smooth="yes"/>
      <point x="220" y="718"/>
      <point x="205" y="720"/>
      <point x="188" y="720" type="curve" smooth="yes"/>
    </contour>
    <contour>
      <point x="540" y="134" type="line"/>
      <point x="422" y="134" type="line"/>
      <point x="563" y="297" type="line"/>
      <point x="561" y="289"/>
      <point x="559" y="282"/>
      <point x="558" y="275" type="curve" smooth="yes"/>
      <point x="557" y="268"/>
      <point x="556" y="260"/>
      <point x="555" y="254" type="curve"/>
    </contour>
    <contour>
      <point x="649" y="717" type="line"/>
      <point x="611" y="717" type="line" smooth="yes"/>
      <point x="600" y="717"/>
      <point x="590" y="714"/>
      <point x="582" y="709" type="curve" smooth="yes"/>
      <point x="574" y="704"/>
      <point x="566" y="696"/>
      <point x="559" y="686" type="curve" smooth="yes"/>
      <point x="66" y="0" type="line"/>
      <point x="104" y="0" type="line" smooth="yes"/>
      <point x="114" y="0"/>
      <point x="122" y="2"/>
      <point x="130" y="6" type="curve" smooth="yes"/>
      <point x="138" y="10"/>
      <point x="145" y="17"/>
      <point x="153" y="27" type="curve"/>
    </contour>
  </outline>
</glyph>
<glyph name="Aacute" format="1">
  <advance width="738"/>
  <unicode hex="00C1"/>
  <note>
    Aacute
  </note>
  <outline>
    <contour>
      <point x="665" y="68" type="line"/>
      <point x="485" y="716" type="line"/>
      <point x="387" y="716" type="line"/>
      <point x="48" y="68" type="line"/>
      <point x="6" y="56" type="line"/>
      <point x="-3" y="54"/>
      <point x="-8" y="49"/>
      <point x="-9" y="40" type="curve" smooth="yes"/>
      <point x="-14" y="0" type="line"/>
      <point x="192" y="0" type="line"/>
      <point x="197" y="40" type="line" smooth="yes"/>
      <point x="198" y="49"/>
      <point x="194" y="54"/>
      <point x="185" y="56" type="curve"/>
      <point x="146" y="68" type="line"/>
      <point x="220" y="212" type="line"/>
      <point x="529" y="212" type="line"/>
      <point x="567" y="68" type="line"/>
      <point x="524" y="56" type="line"/>
      <point x="515" y="54"/>
      <point x="510" y="49"/>
      <point x="509" y="40" type="curve" smooth="yes"/>
      <point x="504" y="0" type="line"/>
      <point x="710" y="0" type="line"/>
      <point x="714" y="40" type="line" smooth="yes"/>
      <point x="715" y="49"/>
      <point x="711" y="54"/>
      <point x="703" y="56" type="curve"/>
    </contour>
    <contour>
      <point x="255" y="282" type="line"/>
      <point x="395" y="557" type="line" smooth="yes"/>
      <point x="403" y="573"/>
      <point x="413" y="596"/>
      <point x="425" y="625" type="curve"/>
      <point x="429" y="598"/>
      <point x="433" y="576"/>
      <point x="438" y="558" type="curve" smooth="yes"/>
      <point x="510" y="282" type="line"/>
    </contour>
    <component base="acutecomb.case"/>
  </outline>
</glyph>
<glyph name="AE" format="1">
  <advance width="962"/>
  <unicode hex="00C6"/>
  <note>
    AE
  </note>
  <outline>
    <contour>
      <point x="-14" y="0" type="line"/>
      <point x="40" y="0" type="line"/>
      <point x="78" y="0" type="line"/>
      <point x="79" y="0" type="line"/>
      <point x="192" y="0" type="line"/>
      <point x="197" y="40" type="line" smooth="yes"/>
      <point x="198" y="49"/>
      <point x="194" y="54"/>
      <point x="185" y="56" type="curve"/>
      <point x="146" y="68" type="line"/>
      <point x="228" y="196" type="line"/>
      <point x="506" y="196" type="line"/>
      <point x="506" y="71" type="line"/>
      <point x="502" y="70"/>
      <point x="494" y="68"/>
      <point x="481" y="66" type="curve" smooth="yes"/>
      <point x="468" y="64"/>
      <point x="460" y="63"/>
      <point x="457" y="62" type="curve"/>
      <point x="447" y="60"/>
      <point x="441" y="53"/>
      <point x="440" y="43" type="curve"/>
      <point x="434" y="0" type="line"/>
      <point x="892" y="0" type="line"/>
      <point x="913" y="167" type="line"/>
      <point x="865" y="167" type="line" smooth="yes"/>
      <point x="854" y="167"/>
      <point x="846" y="161"/>
      <point x="842" y="150" type="curve" smooth="yes"/>
      <point x="841" y="147"/>
      <point x="836" y="123"/>
      <point x="827" y="79" type="curve"/>
      <point x="598" y="79" type="line"/>
      <point x="597" y="324" type="line"/>
      <point x="852" y="324" type="line"/>
      <point x="862" y="400" type="line"/>
      <point x="597" y="400" type="line"/>
      <point x="596" y="638" type="line"/>
      <point x="895" y="638" type="line"/>
      <point x="893" y="590"/>
      <point x="892" y="564"/>
      <point x="892" y="561" type="curve"/>
      <point x="893" y="550"/>
      <point x="900" y="544"/>
      <point x="911" y="544" type="curve" smooth="yes"/>
      <point x="959" y="544" type="line"/>
      <point x="980" y="716" type="line"/>
      <point x="398" y="716" type="line"/>
      <point x="393" y="674" type="line" smooth="yes"/>
      <point x="392" y="664"/>
      <point x="395" y="657"/>
      <point x="405" y="655" type="curve"/>
      <point x="406" y="655"/>
      <point x="409" y="654"/>
      <point x="414" y="653" type="curve" smooth="yes"/>
      <point x="419" y="652"/>
      <point x="423" y="651"/>
      <point x="427" y="650" type="curve"/>
      <point x="48" y="68" type="line"/>
      <point x="6" y="56" type="line"/>
      <point x="6" y="56" type="line"/>
      <point x="-3" y="54"/>
      <point x="-8" y="49"/>
      <point x="-9" y="40" type="curve" smooth="yes"/>
    </contour>
    <contour>
      <point x="273" y="266" type="line"/>
      <point x="469" y="572" type="line"/>
      <point x="486" y="601"/>
      <point x="497" y="624"/>
      <point x="505" y="642" type="curve"/>
      <point x="506" y="266" type="line"/>
    </contour>
  </outline>
</glyph>
<glyph name="Edieresis" format="1">
  <advance width="573"/>
  <unicode hex="00CB"/>
  <note>
    Edieresis
  </note>
  <outline>
    <contour>
      <point x="78" y="716" type="line"/>
      <point x="73" y="674" type="line" smooth="yes"/>
      <point x="72" y="664"/>
      <point x="76" y="657"/>
      <point x="86" y="655" type="curve" smooth="yes"/>
      <point x="92" y="654"/>
      <point x="111" y="650"/>
      <point x="142" y="644" type="curve"/>
      <point x="71" y="73" type="line"/>
      <point x="13" y="62" type="line" smooth="yes"/>
      <point x="3" y="60"/>
      <point x="-3" y="53"/>
      <point x="-4" y="43" type="curve"/>
      <point x="-10" y="0" type="line"/>
      <point x="504" y="0" type="line"/>
      <point x="525" y="167" type="line"/>
      <point x="477" y="167" type="line" smooth="yes"/>
      <point x="465" y="167"/>
      <point x="457" y="161"/>
      <point x="453" y="150" type="curve" smooth="yes"/>
      <point x="452" y="147"/>
      <point x="447" y="123"/>
      <point x="438" y="79" type="curve"/>
      <point x="170" y="79" type="line"/>
      <point x="200" y="324" type="line"/>
      <point x="464" y="324" type="line"/>
      <point x="473" y="400" type="line"/>
      <point x="209" y="400" type="line"/>
      <point x="238" y="638" type="line"/>
      <point x="506" y="638" type="line"/>
      <point x="504" y="590"/>
      <point x="504" y="564"/>
      <point x="504" y="561" type="curve"/>
      <point x="505" y="549"/>
      <point x="511" y="544"/>
      <point x="523" y="544" type="curve" smooth="yes"/>
      <point x="571" y="544" type="line"/>
      <point x="592" y="716" type="line"/>
    </contour>
    <contour>
      <point x="342" y="841"/>
      <point x="341" y="848"/>
      <point x="339" y="855" type="curve" smooth="yes"/>
      <point x="337" y="862"/>
      <point x="333" y="867"/>
      <point x="329" y="872" type="curve" smooth="yes"/>
      <point x="325" y="877"/>
      <point x="319" y="881"/>
      <point x="313" y="884" type="curve" smooth="yes"/>
      <point x="307" y="887"/>
      <point x="300" y="889"/>
      <point x="292" y="889" type="curve" smooth="yes"/>
      <point x="285" y="889"/>
      <point x="278" y="887"/>
      <point x="271" y="884" type="curve" smooth="yes"/>
      <point x="264" y="881"/>
      <point x="258" y="877"/>
      <point x="252" y="872" type="curve" smooth="yes"/>
      <point x="246" y="867"/>
      <point x="242" y="862"/>
      <point x="238" y="855" type="curve" smooth="yes"/>
      <point x="234" y="848"/>
      <point x="232" y="841"/>
      <point x="231" y="833" type="curve" smooth="yes"/>
      <point x="230" y="826"/>
      <point x="231" y="818"/>
      <point x="233" y="812" type="curve" smooth="yes"/>
      <point x="235" y="806"/>
      <point x="239" y="800"/>
      <point x="243" y="795" type="curve" smooth="yes"/>
      <point x="247" y="790"/>
      <point x="252" y="786"/>
      <point x="258" y="783" type="curve" smooth="yes"/>
      <point x="264" y="780"/>
      <point x="271" y="779"/>
      <point x="278" y="779" type="curve" smooth="yes"/>
      <point x="286" y="779"/>
      <point x="293" y="780"/>
      <point x="300" y="783" type="curve" smooth="yes"/>
      <point x="307" y="786"/>
      <point x="314" y="790"/>
      <point x="320" y="795" type="curve" smooth="yes"/>
      <point x="326" y="800"/>
      <point x="330" y="806"/>
      <point x="334" y="812" type="curve" smooth="yes"/>
      <point x="338" y="818"/>
      <point x="340" y="826"/>
      <point x="341" y="833" type="curve" smooth="yes"/>
    </contour>
    <contour>
      <point x="555" y="841"/>
      <point x="554" y="848"/>
      <point x="552" y="855" type="curve" smooth="yes"/>
      <point x="550" y="862"/>
      <point x="546" y="867"/>
      <point x="542" y="872" type="curve" smooth="yes"/>
      <point x="538" y="877"/>
      <point x="532" y="881"/>
      <point x="526" y="884" type="curve" smooth="yes"/>
      <point x="520" y="887"/>
      <point x="513" y="889"/>
      <point x="506" y="889" type="curve" smooth="yes"/>
      <point x="498" y="889"/>
      <point x="491" y="887"/>
      <point x="484" y="884" type="curve" smooth="yes"/>
      <point x="477" y="881"/>
      <point x="471" y="877"/>
      <point x="465" y="872" type="curve" smooth="yes"/>
      <point x="459" y="867"/>
      <point x="455" y="862"/>
      <point x="451" y="855" type="curve" smooth="yes"/>
      <point x="447" y="848"/>
      <point x="445" y="841"/>
      <point x="444" y="833" type="curve" smooth="yes"/>
      <point x="443" y="826"/>
      <point x="443" y="818"/>
      <point x="445" y="812" type="curve" smooth="yes"/>
      <point x="447" y="806"/>
      <point x="451" y="800"/>
      <point x="455" y="795" type="curve" smooth="yes"/>
      <point x="459" y="790"/>
      <point x="465" y="786"/>
      <point x="471" y="783" type="curve" smooth="yes"/>
      <point x="477" y="780"/>
      <point x="484" y="779"/>
      <point x="492" y="779" type="curve" smooth="yes"/>
      <point x="499" y="779"/>
      <point x="507" y="780"/>
      <point x="514" y="783" type="curve" smooth="yes"/>
      <point x="521" y="786"/>
      <point x="527" y="790"/>
      <point x="533" y="795" type="curve" smooth="yes"/>
      <point x="539" y="800"/>
      <point x="543" y="806"/>
      <point x="547" y="812" type="curve" smooth="yes"/>
      <point x="551" y="818"/>
      <point x="553" y="826"/>
      <point x="554" y="833" type="curve" smooth="yes"/>
    </contour>
  </outline>
</glyph>
<glyph name="Ocircumflex" format="1">
  <advance width="742"/>
  <unicode hex="00D4"/>
  <note>
    Ocircumflex
  </note>
  <outline>
    <contour>
      <point x="731" y="412"/>
      <point x="727" y="461"/>
      <point x="716" y="506" type="curve" smooth="yes"/>
      <point x="705" y="551"/>
      <point x="685" y="589"/>
      <point x="658" y="622" type="curve" smooth="yes"/>
      <point x="631" y="654"/>
      <point x="597" y="680"/>
      <point x="556" y="698" type="curve" smooth="yes"/>
      <point x="515" y="716"/>
      <point x="468" y="724"/>
      <point x="415" y="724" type="curve" smooth="yes"/>
      <point x="362" y="724"/>
      <point x="314" y="716"/>
      <point x="268" y="698" type="curve" smooth="yes"/>
      <point x="222" y="680"/>
      <point x="182" y="654"/>
      <point x="147" y="622" type="curve" smooth="yes"/>
      <point x="112" y="590"/>
      <point x="84" y="551"/>
      <point x="61" y="506" type="curve" smooth="yes"/>
      <point x="38" y="461"/>
      <point x="24" y="412"/>
      <point x="17" y="358" type="curve" smooth="yes"/>
      <point x="10" y="304"/>
      <point x="13" y="255"/>
      <point x="24" y="210" type="curve" smooth="yes"/>
      <point x="35" y="165"/>
      <point x="55" y="126"/>
      <point x="82" y="94" type="curve" smooth="yes"/>
      <point x="109" y="62"/>
      <point x="144" y="37"/>
      <point x="185" y="19" type="curve" smooth="yes"/>
      <point x="226" y="1"/>
      <point x="272" y="-8"/>
      <point x="325" y="-8" type="curve" smooth="yes"/>
      <point x="378" y="-8"/>
      <point x="427" y="1"/>
      <point x="473" y="19" type="curve" smooth="yes"/>
      <point x="519" y="37"/>
      <point x="559" y="62"/>
      <point x="594" y="94" type="curve" smooth="yes"/>
      <point x="629" y="126"/>
      <point x="657" y="165"/>
      <point x="680" y="210" type="curve" smooth="yes"/>
      <point x="703" y="255"/>
      <point x="717" y="304"/>
      <point x="724" y="358" type="curve" smooth="yes"/>
    </contour>
    <contour>
      <point x="619" y="314"/>
      <point x="608" y="275"/>
      <point x="592" y="240" type="curve" smooth="yes"/>
      <point x="576" y="205"/>
      <point x="555" y="175"/>
      <point x="530" y="151" type="curve" smooth="yes"/>
      <point x="505" y="127"/>
      <point x="476" y="109"/>
      <point x="443" y="96" type="curve" smooth="yes"/>
      <point x="410" y="83"/>
      <point x="375" y="76"/>
      <point x="336" y="76" type="curve" smooth="yes"/>
      <point x="298" y="76"/>
      <point x="263" y="83"/>
      <point x="233" y="96" type="curve" smooth="yes"/>
      <point x="203" y="109"/>
      <point x="179" y="127"/>
      <point x="160" y="151" type="curve" smooth="yes"/>
      <point x="141" y="175"/>
      <point x="128" y="205"/>
      <point x="120" y="240" type="curve" smooth="yes"/>
      <point x="112" y="275"/>
      <point x="111" y="314"/>
      <point x="116" y="358" type="curve" smooth="yes"/>
      <point x="121" y="402"/>
      <point x="133" y="441"/>
      <point x="149" y="476" type="curve" smooth="yes"/>
      <point x="165" y="511"/>
      <point x="186" y="541"/>
      <point x="211" y="565" type="curve" smooth="yes"/>
      <point x="236" y="589"/>
      <point x="265" y="608"/>
      <point x="298" y="621" type="curve" smooth="yes"/>
      <point x="331" y="634"/>
      <point x="367" y="640"/>
      <point x="405" y="640" type="curve" smooth="yes"/>
      <point x="444" y="640"/>
      <point x="477" y="634"/>
      <point x="507" y="621" type="curve" smooth="yes"/>
      <point x="537" y="608"/>
      <point x="562" y="589"/>
      <point x="581" y="565" type="curve" smooth="yes"/>
      <point x="600" y="541"/>
      <point x="613" y="511"/>
      <point x="621" y="476" type="curve" smooth="yes"/>
      <point x="629" y="441"/>
      <point x="629" y="402"/>
      <point x="624" y="358" type="curve" smooth="yes"/>
    </contour>
    <contour>
      <point x="585" y="773" type="line"/>
      <point x="479" y="878" type="line"/>
      <point x="391" y="878" type="line"/>
      <point x="259" y="773" type="line"/>
      <point x="327" y="773" type="line" smooth="yes"/>
      <point x="331" y="773"/>
      <point x="335" y="774"/>
      <point x="340" y="775" type="curve" smooth="yes"/>
      <point x="345" y="776"/>
      <point x="349" y="777"/>
      <point x="352" y="779" type="curve" smooth="yes"/>
      <point x="423" y="827" type="line"/>
      <point x="424" y="828"/>
      <point x="426" y="829"/>
      <point x="429" y="831" type="curve"/>
      <point x="430" y="830"/>
      <point x="432" y="828"/>
      <point x="435" y="827" type="curve"/>
      <point x="494" y="779" type="line"/>
      <point x="497" y="777"/>
      <point x="500" y="776"/>
      <point x="505" y="775" type="curve" smooth="yes"/>
      <point x="510" y="774"/>
      <point x="514" y="773"/>
      <point x="518" y="773" type="curve" smooth="yes"/>
    </contour>
  </outline>
</glyph>
<glyph name="acircumflex" format="1">
  <advance width="512"/>
  <unicode hex="00E2"/>
  <note>
    acircumflex
  </note>
  <outline>
    <contour>
      <point x="388" y="1" type="line"/>
      <point x="469" y="1" type="line"/>
      <point x="469" y="44" type="line" smooth="yes"/>
      <point x="469" y="53"/>
      <point x="463" y="61"/>
      <point x="454" y="63" type="curve" smooth="yes"/>
      <point x="446" y="65"/>
      <point x="400" y="73"/>
      <point x="397" y="74" type="curve"/>
      <point x="449" y="491" type="line"/>
      <point x="413" y="507"/>
      <point x="374" y="514"/>
      <point x="325" y="514" type="curve" smooth="yes"/>
      <point x="222" y="514"/>
      <point x="148" y="467"/>
      <point x="97" y="411" type="curve" smooth="yes"/>
      <point x="46" y="355"/>
      <point x="4" y="276"/>
      <point x="4" y="172" type="curve" smooth="yes"/>
      <point x="4" y="75"/>
      <point x="42" y="-6"/>
      <point x="137" y="-6" type="curve" smooth="yes"/>
      <point x="155" y="-6"/>
      <point x="173" y="-3"/>
      <point x="190" y="4" type="curve" smooth="yes"/>
      <point x="250" y="27"/>
      <point x="290" y="78"/>
      <point x="321" y="133" type="curve"/>
      <point x="312" y="32" type="line"/>
      <point x="312" y="12"/>
      <point x="321" y="1"/>
      <point x="342" y="1" type="curve" smooth="yes"/>
    </contour>
    <contour>
      <point x="334" y="268" type="line"/>
      <point x="317" y="214"/>
      <point x="293" y="163"/>
      <point x="263" y="125" type="curve" smooth="yes"/>
      <point x="242" y="98"/>
      <point x="211" y="68"/>
      <point x="170" y="68" type="curve" smooth="yes"/>
      <point x="119" y="68"/>
      <point x="93" y="108"/>
      <point x="93" y="188" type="curve" smooth="yes"/>
      <point x="93" y="266"/>
      <point x="122" y="326"/>
      <point x="158" y="370" type="curve" smooth="yes"/>
      <point x="192" y="411"/>
      <point x="242" y="448"/>
      <point x="313" y="448" type="curve" smooth="yes"/>
      <point x="334" y="448" type="line" smooth="yes"/>
      <point x="341" y="448"/>
      <point x="349" y="446"/>
      <point x="356" y="440" type="curve"/>
    </contour>
    <contour>
      <point x="420" y="584" type="line"/>
      <point x="325" y="716" type="line"/>
      <point x="242" y="716" type="line"/>
      <point x="114" y="584" type="line"/>
      <point x="176" y="584" type="line" smooth="yes"/>
      <point x="180" y="584"/>
      <point x="183" y="585"/>
      <point x="187" y="587" type="curve" smooth="yes"/>
      <point x="191" y="589"/>
      <point x="194" y="590"/>
      <point x="196" y="592" type="curve"/>
      <point x="269" y="654" type="line"/>
      <point x="278" y="663" type="line"/>
      <point x="285" y="654" type="line"/>
      <point x="341" y="592" type="line"/>
      <point x="347" y="587"/>
      <point x="354" y="584"/>
      <point x="361" y="584" type="curve" smooth="yes"/>
    </contour>
  </outline>
</glyph>
<glyph name="atilde" format="1">
  <advance width="514"/>
  <unicode hex="00E3"/>
  <note>
    atilde
  </note>
  <outline>
    <contour>
      <point x="389" y="1" type="line"/>
      <point x="470" y="1" type="line"/>
      <point x="470" y="44" type="line" smooth="yes"/>
      <point x="470" y="53"/>
      <point x="464" y="61"/>
      <point x="455" y="63" type="curve" smooth="yes"/>
      <point x="447" y="65"/>
      <point x="401" y="73"/>
      <point x="398" y="74" type="curve"/>
      <point x="449" y="491" type="line"/>
      <point x="413" y="507"/>
      <point x="374" y="514"/>
      <point x="325" y="514" type="curve" smooth="yes"/>
      <point x="222" y="514"/>
      <point x="149" y="467"/>
      <point x="98" y="411" type="curve" smooth="yes"/>
      <point x="47" y="355"/>
      <point x="5" y="276"/>
      <point x="5" y="172" type="curve" smooth="yes"/>
      <point x="5" y="75"/>
      <point x="42" y="-6"/>
      <point x="137" y="-6" type="curve" smooth="yes"/>
      <point x="155" y="-6"/>
      <point x="173" y="-3"/>
      <point x="190" y="4" type="curve" smooth="yes"/>
      <point x="250" y="27"/>
      <point x="291" y="78"/>
      <point x="322" y="133" type="curve"/>
      <point x="313" y="32" type="line"/>
      <point x="313" y="12"/>
      <point x="322" y="1"/>
      <point x="343" y="1" type="curve" smooth="yes"/>
    </contour>
    <contour>
      <point x="335" y="268" type="line"/>
      <point x="318" y="214"/>
      <point x="293" y="163"/>
      <point x="263" y="125" type="curve" smooth="yes"/>
      <point x="242" y="98"/>
      <point x="212" y="68"/>
      <point x="171" y="68" type="curve" smooth="yes"/>
      <point x="120" y="68"/>
      <point x="94" y="108"/>
      <point x="94" y="188" type="curve" smooth="yes"/>
      <point x="94" y="266"/>
      <point x="122" y="326"/>
      <point x="158" y="370" type="curve" smooth="yes"/>
      <point x="192" y="411"/>
      <point x="242" y="448"/>
      <point x="313" y="448" type="curve" smooth="yes"/>
      <point x="335" y="448" type="line" smooth="yes"/>
      <point x="342" y="448"/>
      <point x="349" y="446"/>
      <point x="356" y="440" type="curve"/>
    </contour>
    <contour>
      <point x="326" y="662"/>
      <point x="318" y="665"/>
      <point x="311" y="670" type="curve" smooth="yes"/>
      <point x="304" y="675"/>
      <point x="296" y="680"/>
      <point x="288" y="686" type="curve" smooth="yes"/>
      <point x="280" y="692"/>
      <point x="271" y="696"/>
      <point x="261" y="701" type="curve" smooth="yes"/>
      <point x="251" y="706"/>
      <point x="241" y="708"/>
      <point x="229" y="708" type="curve" smooth="yes"/>
      <point x="216" y="708"/>
      <point x="204" y="706"/>
      <point x="192" y="701" type="curve" smooth="yes"/>
      <point x="180" y="696"/>
      <point x="170" y="689"/>
      <point x="161" y="679" type="curve"/>
      <point x="152" y="670"/>
      <point x="144" y="658"/>
      <point x="138" y="645" type="curve" smooth="yes"/>
      <point x="132" y="632"/>
      <point x="129" y="617"/>
      <point x="127" y="601" type="curve"/>
      <point x="182" y="601" type="line"/>
      <point x="186" y="630"/>
      <point x="200" y="645"/>
      <point x="224" y="645" type="curve" smooth="yes"/>
      <point x="232" y="645"/>
      <point x="240" y="643"/>
      <point x="247" y="638" type="curve" smooth="yes"/>
      <point x="254" y="633"/>
      <point x="263" y="628"/>
      <point x="271" y="622" type="curve" smooth="yes"/>
      <point x="279" y="616"/>
      <point x="287" y="611"/>
      <point x="297" y="606" type="curve" smooth="yes"/>
      <point x="307" y="601"/>
      <point x="317" y="599"/>
      <point x="329" y="599" type="curve" smooth="yes"/>
      <point x="342" y="599"/>
      <point x="356" y="602"/>
      <point x="367" y="607" type="curve" smooth="yes"/>
      <point x="378" y="612"/>
      <point x="388" y="619"/>
      <point x="397" y="628" type="curve" smooth="yes"/>
      <point x="406" y="637"/>
      <point x="413" y="649"/>
      <point x="419" y="662" type="curve" smooth="yes"/>
      <point x="425" y="675"/>
      <point x="429" y="689"/>
      <point x="431" y="705" type="curve"/>
      <point x="377" y="705" type="line"/>
      <point x="375" y="690"/>
      <point x="370" y="680"/>
      <point x="363" y="673" type="curve" smooth="yes"/>
      <point x="356" y="666"/>
      <point x="346" y="662"/>
      <point x="334" y="662" type="curve" smooth="yes"/>
    </contour>
  </outline>
</glyph>
<glyph name="aring" format="1">
  <advance width="510"/>
  <unicode hex="00E5"/>
  <note>
    aring
  </note>
  <outline>
    <contour>
      <point x="387" y="1" type="line"/>
      <point x="468" y="1" type="line"/>
      <point x="468" y="44" type="line" smooth="yes"/>
      <point x="468" y="53"/>
      <point x="462" y="61"/>
      <point x="453" y="63" type="curve" smooth="yes"/>
      <point x="445" y="65"/>
      <point x="399" y="73"/>
      <point x="396" y="74" type="curve"/>
      <point x="448" y="491" type="line"/>
      <point x="412" y="507"/>
      <point x="373" y="514"/>
      <point x="324" y="514" type="curve" smooth="yes"/>
      <point x="221" y="514"/>
      <point x="147" y="467"/>
      <point x="96" y="411" type="curve" smooth="yes"/>
      <point x="45" y="355"/>
      <point x="4" y="276"/>
      <point x="4" y="172" type="curve" smooth="yes"/>
      <point x="4" y="75"/>
      <point x="41" y="-6"/>
      <point x="136" y="-6" type="curve" smooth="yes"/>
      <point x="154" y="-6"/>
      <point x="172" y="-3"/>
      <point x="189" y="4" type="curve" smooth="yes"/>
      <point x="249" y="27"/>
      <point x="289" y="78"/>
      <point x="320" y="133" type="curve"/>
      <point x="311" y="32" type="line"/>
      <point x="311" y="12"/>
      <point x="320" y="1"/>
      <point x="341" y="1" type="curve" smooth="yes"/>
    </contour>
    <contour>
      <point x="333" y="268" type="line"/>
      <point x="316" y="214"/>
      <point x="292" y="163"/>
      <point x="262" y="125" type="curve" smooth="yes"/>
      <point x="241" y="98"/>
      <point x="210" y="68"/>
      <point x="169" y="68" type="curve" smooth="yes"/>
      <point x="118" y="68"/>
      <point x="92" y="108"/>
      <point x="92" y="188" type="curve" smooth="yes"/>
      <point x="92" y="266"/>
      <point x="121" y="326"/>
      <point x="157" y="370" type="curve" smooth="yes"/>
      <point x="191" y="411"/>
      <point x="241" y="448"/>
      <point x="312" y="448" type="curve" smooth="yes"/>
      <point x="333" y="448" type="line" smooth="yes"/>
      <point x="340" y="448"/>
      <point x="348" y="446"/>
      <point x="355" y="440" type="curve"/>
    </contour>
    <contour>
      <point x="173" y="644"/>
      <point x="174" y="631"/>
      <point x="178" y="620" type="curve" smooth="yes"/>
      <point x="182" y="609"/>
      <point x="188" y="599"/>
      <point x="196" y="591" type="curve" smooth="yes"/>
      <point x="204" y="583"/>
      <point x="215" y="576"/>
      <point x="226" y="572" type="curve" smooth="yes"/>
      <point x="237" y="568"/>
      <point x="250" y="566"/>
      <point x="263" y="566" type="curve" smooth="yes"/>
      <point x="277" y="566"/>
      <point x="289" y="568"/>
      <point x="302" y="572" type="curve" smooth="yes"/>
      <point x="315" y="576"/>
      <point x="327" y="583"/>
      <point x="337" y="591" type="curve" smooth="yes"/>
      <point x="347" y="599"/>
      <point x="355" y="609"/>
      <point x="362" y="620" type="curve" smooth="yes"/>
      <point x="369" y="631"/>
      <point x="373" y="644"/>
      <point x="375" y="658" type="curve" smooth="yes"/>
      <point x="377" y="672"/>
      <point x="376" y="684"/>
      <point x="372" y="695" type="curve" smooth="yes"/>
      <point x="368" y="706"/>
      <point x="361" y="717"/>
      <point x="353" y="725" type="curve" smooth="yes"/>
      <point x="345" y="733"/>
      <point x="335" y="739"/>
      <point x="323" y="744" type="curve"/>
      <point x="311" y="748"/>
      <point x="300" y="751"/>
      <point x="286" y="751" type="curve" smooth="yes"/>
      <point x="273" y="751"/>
      <point x="260" y="748"/>
      <point x="247" y="744" type="curve" smooth="yes"/>
      <point x="234" y="740"/>
      <point x="223" y="733"/>
      <point x="213" y="725" type="curve" smooth="yes"/>
      <point x="203" y="717"/>
      <point x="194" y="706"/>
      <point x="187" y="695" type="curve" smooth="yes"/>
      <point x="180" y="684"/>
      <point x="177" y="672"/>
      <point x="175" y="658" type="curve" smooth="yes"/>
    </contour>
    <contour>
      <point x="227" y="672"/>
      <point x="233" y="685"/>
      <point x="243" y="694" type="curve" smooth="yes"/>
      <point x="253" y="703"/>
      <point x="265" y="708"/>
      <point x="281" y="708" type="curve" smooth="yes"/>
      <point x="296" y="708"/>
      <point x="308" y="703"/>
      <point x="316" y="694" type="curve" smooth="yes"/>
      <point x="324" y="685"/>
      <point x="327" y="672"/>
      <point x="325" y="657" type="curve" smooth="yes"/>
      <point x="323" y="642"/>
      <point x="317" y="630"/>
      <point x="307" y="621" type="curve" smooth="yes"/>
      <point x="297" y="612"/>
      <point x="284" y="607"/>
      <point x="269" y="607" type="curve" smooth="yes"/>
      <point x="253" y="607"/>
      <point x="242" y="612"/>
      <point x="234" y="621" type="curve" smooth="yes"/>
      <point x="226" y="630"/>
      <point x="223" y="642"/>
      <point x="225" y="657" type="curve" smooth="yes"/>
    </contour>
  </outline>
</glyph>
<glyph name="ccedilla" format="1">
  <advance width="441"/>
  <unicode hex="00E7"/>
  <note>
    ccedilla
  </note>
  <outline>
    <contour>
      <point x="376" y="104" type="line"/>
      <point x="373" y="110"/>
      <point x="368" y="112"/>
      <point x="361" y="112" type="curve" smooth="yes"/>
      <point x="354" y="112"/>
      <point x="348" y="109"/>
      <point x="341" y="104" type="curve"/>
      <point x="305" y="76"/>
      <point x="267" y="62"/>
      <point x="225" y="62" type="curve" smooth="yes"/>
      <point x="179" y="62"/>
      <point x="145" y="79"/>
      <point x="123" y="112" type="curve" smooth="yes"/>
      <point x="101" y="146"/>
      <point x="94" y="194"/>
      <point x="101" y="254" type="curve" smooth="yes"/>
      <point x="108" y="314"/>
      <point x="126" y="360"/>
      <point x="156" y="394" type="curve" smooth="yes"/>
      <point x="171" y="411"/>
      <point x="189" y="423"/>
      <point x="208" y="431" type="curve" smooth="yes"/>
      <point x="227" y="439"/>
      <point x="247" y="444"/>
      <point x="265" y="444" type="curve" smooth="yes"/>
      <point x="283" y="444"/>
      <point x="302" y="443"/>
      <point x="321" y="440" type="curve"/>
      <point x="330" y="439"/>
      <point x="341" y="436"/>
      <point x="356" y="431" type="curve"/>
      <point x="356" y="430"/>
      <point x="355" y="419"/>
      <point x="354" y="398" type="curve" smooth="yes"/>
      <point x="353" y="377"/>
      <point x="353" y="364"/>
      <point x="354" y="360" type="curve"/>
      <point x="355" y="351"/>
      <point x="359" y="346"/>
      <point x="369" y="346" type="curve" smooth="yes"/>
      <point x="409" y="346" type="line"/>
      <point x="425" y="477" type="line"/>
      <point x="367" y="502"/>
      <point x="319" y="514"/>
      <point x="280" y="514" type="curve" smooth="yes"/>
      <point x="205" y="514"/>
      <point x="143" y="489"/>
      <point x="94" y="440" type="curve" smooth="yes"/>
      <point x="47" y="393"/>
      <point x="19" y="332"/>
      <point x="9" y="254" type="curve" smooth="yes"/>
      <point x="-1" y="173"/>
      <point x="13" y="109"/>
      <point x="50" y="62" type="curve" smooth="yes"/>
      <point x="79" y="24"/>
      <point x="118" y="2"/>
      <point x="169" y="-5" type="curve"/>
      <point x="143" y="-66" type="line"/>
      <point x="171" y="-70"/>
      <point x="190" y="-73"/>
      <point x="201" y="-78" type="curve"/>
      <point x="207" y="-81"/>
      <point x="213" y="-86"/>
      <point x="216" y="-90" type="curve" smooth="yes"/>
      <point x="219" y="-94"/>
      <point x="220" y="-99"/>
      <point x="219" y="-107" type="curve" smooth="yes"/>
      <point x="218" y="-115"/>
      <point x="214" y="-121"/>
      <point x="206" y="-127" type="curve" smooth="yes"/>
      <point x="198" y="-133"/>
      <point x="187" y="-135"/>
      <point x="174" y="-135" type="curve" smooth="yes"/>
      <point x="161" y="-135"/>
      <point x="151" y="-133"/>
      <point x="142" y="-129" type="curve"/>
      <point x="139" y="-128"/>
      <point x="136" y="-126"/>
      <point x="133" y="-125" type="curve" smooth="yes"/>
      <point x="130" y="-124"/>
      <point x="128" y="-124"/>
      <point x="126" y="-124" type="curve" smooth="yes"/>
      <point x="120" y="-124"/>
      <point x="116" y="-126"/>
      <point x="113" y="-132" type="curve"/>
      <point x="101" y="-160" type="line"/>
      <point x="123" y="-170"/>
      <point x="146" y="-176"/>
      <point x="172" y="-176" type="curve" smooth="yes"/>
      <point x="205" y="-176"/>
      <point x="232" y="-169"/>
      <point x="253" y="-157" type="curve" smooth="yes"/>
      <point x="263" y="-151"/>
      <point x="272" y="-143"/>
      <point x="278" y="-135" type="curve" smooth="yes"/>
      <point x="284" y="-127"/>
      <point x="288" y="-115"/>
      <point x="290" y="-101" type="curve" smooth="yes"/>
      <point x="292" y="-87"/>
      <point x="287" y="-74"/>
      <point x="275" y="-62" type="curve" smooth="yes"/>
      <point x="263" y="-50"/>
      <point x="242" y="-42"/>
      <point x="213" y="-35" type="curve"/>
      <point x="225" y="-6" type="line"/>
      <point x="297" y="-1"/>
      <point x="354" y="25"/>
      <point x="397" y="71" type="curve"/>
    </contour>
  </outline>
</glyph>
<glyph name="eacute" format="1">
  <advance width="433"/>
  <unicode hex="00E9"/>
  <note>
    eacute
  </note>
  <outline>
    <contour>
      <point x="379" y="121" type="line" smooth="yes"/>
      <point x="374" y="127"/>
      <point x="369" y="129"/>
      <point x="363" y="129" type="curve" smooth="yes"/>
      <point x="358" y="129"/>
      <point x="352" y="127"/>
      <point x="347" y="124" type="curve" smooth="yes"/>
      <point x="334" y="116"/>
      <point x="322" y="106"/>
      <point x="309" y="96" type="curve" smooth="yes"/>
      <point x="284" y="77"/>
      <point x="251" y="63"/>
      <point x="207" y="63" type="curve" smooth="yes"/>
      <point x="125" y="63"/>
      <point x="89" y="115"/>
      <point x="89" y="200" type="curve" smooth="yes"/>
      <point x="89" y="211" type="line" smooth="yes"/>
      <point x="89" y="215"/>
      <point x="90" y="218"/>
      <point x="90" y="222" type="curve"/>
      <point x="156" y="229"/>
      <point x="210" y="237"/>
      <point x="252" y="248" type="curve" smooth="yes"/>
      <point x="294" y="259"/>
      <point x="326" y="272"/>
      <point x="350" y="287" type="curve" smooth="yes"/>
      <point x="390" y="311"/>
      <point x="413" y="342"/>
      <point x="413" y="398" type="curve" smooth="yes"/>
      <point x="413" y="410"/>
      <point x="411" y="423"/>
      <point x="405" y="437" type="curve" smooth="yes"/>
      <point x="385" y="484"/>
      <point x="334" y="513"/>
      <point x="265" y="513" type="curve" smooth="yes"/>
      <point x="174" y="513"/>
      <point x="113" y="468"/>
      <point x="73" y="415" type="curve" smooth="yes"/>
      <point x="33" y="362"/>
      <point x="2" y="289"/>
      <point x="2" y="198" type="curve" smooth="yes"/>
      <point x="2" y="167"/>
      <point x="6" y="138"/>
      <point x="15" y="113" type="curve" smooth="yes"/>
      <point x="39" y="42"/>
      <point x="95" y="-7"/>
      <point x="189" y="-7" type="curve" smooth="yes"/>
      <point x="292" y="-7"/>
      <point x="349" y="40"/>
      <point x="401" y="94" type="curve"/>
    </contour>
    <contour>
      <point x="334" y="360"/>
      <point x="319" y="344"/>
      <point x="293" y="329" type="curve"/>
      <point x="276" y="320"/>
      <point x="252" y="311"/>
      <point x="221" y="303" type="curve" smooth="yes"/>
      <point x="190" y="295"/>
      <point x="149" y="287"/>
      <point x="98" y="281" type="curve"/>
      <point x="103" y="305"/>
      <point x="110" y="327"/>
      <point x="120" y="347" type="curve" smooth="yes"/>
      <point x="144" y="399"/>
      <point x="187" y="449"/>
      <point x="260" y="449" type="curve" smooth="yes"/>
      <point x="299" y="449"/>
      <point x="334" y="431"/>
      <point x="334" y="394" type="curve" smooth="yes"/>
    </contour>
    <contour>
      <point x="416" y="725" type="line"/>
      <point x="329" y="725" type="line" smooth="yes"/>
      <point x="318" y="725"/>
      <point x="310" y="723"/>
      <point x="304" y="719" type="curve"/>
      <point x="298" y="716"/>
      <point x="293" y="711"/>
      <point x="287" y="703" type="curve" smooth="yes"/>
      <point x="198" y="582" type="line"/>
      <point x="251" y="582" type="line" smooth="yes"/>
      <point x="258" y="582"/>
      <point x="264" y="583"/>
      <point x="269" y="585" type="curve" smooth="yes"/>
      <point x="274" y="587"/>
      <point x="279" y="591"/>
      <point x="284" y="596" type="curve" smooth="yes"/>
    </contour>
  </outline>
</glyph>
<glyph name="ecircumflex" format="1">
  <advance width="431"/>
  <unicode hex="00EA"/>
  <note>
    ecircumflex
  </note>
  <outline>
    <contour>
      <point x="380" y="121" type="line" smooth="yes"/>
      <point x="375" y="127"/>
      <point x="369" y="129"/>
      <point x="363" y="129" type="curve" smooth="yes"/>
      <point x="358" y="129"/>
      <point x="352" y="127"/>
      <point x="347" y="124" type="curve" smooth="yes"/>
      <point x="334" y="116"/>
      <point x="322" y="106"/>
      <point x="309" y="96" type="curve" smooth="yes"/>
      <point x="284" y="77"/>
      <point x="251" y="63"/>
      <point x="207" y="63" type="curve" smooth="yes"/>
      <point x="125" y="63"/>
      <point x="90" y="115"/>
      <point x="90" y="200" type="curve" smooth="yes"/>
      <point x="90" y="211" type="line"/>
      <point x="90" y="222" type="line"/>
      <point x="156" y="229"/>
      <point x="210" y="237"/>
      <point x="252" y="248" type="curve" smooth="yes"/>
      <point x="294" y="259"/>
      <point x="327" y="272"/>
      <point x="351" y="287" type="curve" smooth="yes"/>
      <point x="391" y="311"/>
      <point x="414" y="342"/>
      <point x="414" y="398" type="curve" smooth="yes"/>
      <point x="414" y="410"/>
      <point x="411" y="423"/>
      <point x="405" y="437" type="curve" smooth="yes"/>
      <point x="385" y="484"/>
      <point x="335" y="513"/>
      <point x="266" y="513" type="curve" smooth="yes"/>
      <point x="175" y="513"/>
      <point x="114" y="468"/>
      <point x="74" y="415" type="curve" smooth="yes"/>
      <point x="34" y="362"/>
      <point x="3" y="289"/>
      <point x="3" y="198" type="curve" smooth="yes"/>
      <point x="3" y="167"/>
      <point x="7" y="138"/>
      <point x="16" y="113" type="curve" smooth="yes"/>
      <point x="40" y="42"/>
      <point x="95" y="-7"/>
      <point x="189" y="-7" type="curve" smooth="yes"/>
      <point x="292" y="-7"/>
      <point x="350" y="40"/>
      <point x="402" y="94" type="curve"/>
    </contour>
    <contour>
      <point x="334" y="360"/>
      <point x="319" y="344"/>
      <point x="293" y="329" type="curve"/>
      <point x="276" y="320"/>
      <point x="253" y="311"/>
      <point x="222" y="303" type="curve" smooth="yes"/>
      <point x="191" y="295"/>
      <point x="149" y="287"/>
      <point x="98" y="281" type="curve"/>
      <point x="103" y="305"/>
      <point x="111" y="327"/>
      <point x="121" y="347" type="curve" smooth="yes"/>
      <point x="145" y="399"/>
      <point x="188" y="449"/>
      <point x="261" y="449" type="curve" smooth="yes"/>
      <point x="300" y="449"/>
      <point x="334" y="431"/>
      <point x="334" y="394" type="curve" smooth="yes"/>
    </contour>
    <contour>
      <point x="408" y="585" type="line"/>
      <point x="313" y="717" type="line"/>
      <point x="230" y="717" type="line"/>
      <point x="102" y="585" type="line"/>
      <point x="164" y="585" type="line" smooth="yes"/>
      <point x="168" y="585"/>
      <point x="171" y="585"/>
      <point x="175" y="587" type="curve" smooth="yes"/>
      <point x="179" y="589"/>
      <point x="182" y="590"/>
      <point x="184" y="592" type="curve"/>
      <point x="257" y="655" type="line"/>
      <point x="266" y="663" type="line"/>
      <point x="273" y="655" type="line"/>
      <point x="329" y="592" type="line"/>
      <point x="335" y="587"/>
      <point x="342" y="585"/>
      <point x="349" y="585" type="curve" smooth="yes"/>
    </contour>
  </outline>
</glyph>
<glyph name="edieresis" format="1">
  <advance width="437"/>
  <unicode hex="00EB"/>
  <note>
    edieresis
  </note>
  <outline>
    <contour>
      <point x="381" y="121" type="line" smooth="yes"/>
      <point x="376" y="127"/>
      <point x="370" y="129"/>
      <point x="364" y="129" type="curve" smooth="yes"/>
      <point x="359" y="129"/>
      <point x="353" y="127"/>
      <point x="348" y="124" type="curve" smooth="yes"/>
      <point x="335" y="116"/>
      <point x="323" y="106"/>
      <point x="310" y="96" type="curve" smooth="yes"/>
      <point x="285" y="77"/>
      <point x="252" y="63"/>
      <point x="208" y="63" type="curve" smooth="yes"/>
      <point x="126" y="63"/>
      <point x="91" y="115"/>
      <point x="91" y="200" type="curve" smooth="yes"/>
      <point x="91" y="211" type="line"/>
      <point x="91" y="222" type="line"/>
      <point x="157" y="229"/>
      <point x="211" y="237"/>
      <point x="253" y="248" type="curve" smooth="yes"/>
      <point x="295" y="259"/>
      <point x="328" y="272"/>
      <point x="352" y="287" type="curve" smooth="yes"/>
      <point x="392" y="311"/>
      <point x="415" y="342"/>
      <point x="415" y="398" type="curve" smooth="yes"/>
      <point x="415" y="410"/>
      <point x="412" y="423"/>
      <point x="406" y="437" type="curve" smooth="yes"/>
      <point x="386" y="484"/>
      <point x="336" y="513"/>
      <point x="267" y="513" type="curve" smooth="yes"/>
      <point x="176" y="513"/>
      <point x="115" y="468"/>
      <point x="75" y="415" type="curve" smooth="yes"/>
      <point x="35" y="362"/>
      <point x="4" y="289"/>
      <point x="4" y="198" type="curve" smooth="yes"/>
      <point x="4" y="167"/>
      <point x="8" y="138"/>
      <point x="17" y="113" type="curve" smooth="yes"/>
      <point x="41" y="42"/>
      <point x="96" y="-7"/>
      <point x="190" y="-7" type="curve" smooth="yes"/>
      <point x="293" y="-7"/>
      <point x="351" y="40"/>
      <point x="403" y="94" type="curve"/>
    </contour>
    <contour>
      <point x="335" y="360"/>
      <point x="320" y="344"/>
      <point x="294" y="329" type="curve"/>
      <point x="277" y="320"/>
      <point x="254" y="311"/>
      <point x="223" y="303" type="curve" smooth="yes"/>
      <point x="192" y="295"/>
      <point x="150" y="287"/>
      <point x="99" y="281" type="curve"/>
      <point x="104" y="305"/>
      <point x="112" y="327"/>
      <point x="122" y="347" type="curve" smooth="yes"/>
      <point x="146" y="399"/>
      <point x="189" y="449"/>
      <point x="262" y="449" type="curve" smooth="yes"/>
      <point x="301" y="449"/>
      <point x="335" y="431"/>
      <point x="335" y="394" type="curve" smooth="yes"/>
    </contour>
    <contour>
      <point x="231" y="653"/>
      <point x="231" y="660"/>
      <point x="229" y="667" type="curve" smooth="yes"/>
      <point x="227" y="674"/>
      <point x="223" y="680"/>
      <point x="218" y="685" type="curve" smooth="yes"/>
      <point x="213" y="690"/>
      <point x="208" y="694"/>
      <point x="202" y="697" type="curve" smooth="yes"/>
      <point x="196" y="700"/>
      <point x="188" y="702"/>
      <point x="180" y="702" type="curve" smooth="yes"/>
      <point x="173" y="702"/>
      <point x="166" y="700"/>
      <point x="159" y="697" type="curve" smooth="yes"/>
      <point x="152" y="694"/>
      <point x="146" y="690"/>
      <point x="140" y="685" type="curve" smooth="yes"/>
      <point x="134" y="680"/>
      <point x="129" y="674"/>
      <point x="125" y="667" type="curve" smooth="yes"/>
      <point x="121" y="660"/>
      <point x="119" y="653"/>
      <point x="118" y="645" type="curve" smooth="yes"/>
      <point x="117" y="637"/>
      <point x="118" y="630"/>
      <point x="120" y="623" type="curve" smooth="yes"/>
      <point x="122" y="616"/>
      <point x="125" y="611"/>
      <point x="130" y="606" type="curve" smooth="yes"/>
      <point x="135" y="601"/>
      <point x="140" y="597"/>
      <point x="146" y="594" type="curve" smooth="yes"/>
      <point x="152" y="591"/>
      <point x="160" y="589"/>
      <point x="167" y="589" type="curve" smooth="yes"/>
      <point x="175" y="589"/>
      <point x="182" y="591"/>
      <point x="189" y="594" type="curve" smooth="yes"/>
      <point x="196" y="597"/>
      <point x="203" y="601"/>
      <point x="209" y="606" type="curve" smooth="yes"/>
      <point x="215" y="611"/>
      <point x="219" y="616"/>
      <point x="223" y="623" type="curve" smooth="yes"/>
      <point x="227" y="630"/>
      <point x="229" y="637"/>
      <point x="230" y="645" type="curve" smooth="yes"/>
    </contour>
    <contour>
      <point x="411" y="653"/>
      <point x="410" y="660"/>
      <point x="408" y="667" type="curve" smooth="yes"/>
      <point x="406" y="674"/>
      <point x="403" y="680"/>
      <point x="398" y="685" type="curve" smooth="yes"/>
      <point x="393" y="690"/>
      <point x="388" y="694"/>
      <point x="382" y="697" type="curve" smooth="yes"/>
      <point x="376" y="700"/>
      <point x="368" y="702"/>
      <point x="360" y="702" type="curve" smooth="yes"/>
      <point x="352" y="702"/>
      <point x="345" y="700"/>
      <point x="338" y="697" type="curve" smooth="yes"/>
      <point x="331" y="694"/>
      <point x="325" y="690"/>
      <point x="319" y="685" type="curve" smooth="yes"/>
      <point x="313" y="680"/>
      <point x="309" y="674"/>
      <point x="305" y="667" type="curve" smooth="yes"/>
      <point x="301" y="660"/>
      <point x="298" y="653"/>
      <point x="297" y="645" type="curve" smooth="yes"/>
      <point x="296" y="637"/>
      <point x="297" y="630"/>
      <point x="299" y="623" type="curve" smooth="yes"/>
      <point x="301" y="616"/>
      <point x="305" y="611"/>
      <point x="309" y="606" type="curve" smooth="yes"/>
      <point x="313" y="601"/>
      <point x="319" y="597"/>
      <point x="325" y="594" type="curve" smooth="yes"/>
      <point x="331" y="591"/>
      <point x="339" y="589"/>
      <point x="347" y="589" type="curve" smooth="yes"/>
      <point x="355" y="589"/>
      <point x="362" y="591"/>
      <point x="369" y="594" type="curve" smooth="yes"/>
      <point x="376" y="597"/>
      <point x="382" y="601"/>
      <point x="388" y="606" type="curve" smooth="yes"/>
      <point x="394" y="611"/>
      <point x="399" y="616"/>
      <point x="403" y="623" type="curve" smooth="yes"/>
      <point x="407" y="630"/>
      <point x="409" y="637"/>
      <point x="410" y="645" type="curve" smooth="yes"/>
    </contour>
  </outline>
</glyph>
<glyph name="eth" format="1">
  <advance width="513"/>
  <unicode hex="00F0"/>
  <note>
    eth
  </note>
  <outline>
    <contour>
      <point x="222" y="504" type="line"/>
      <point x="322" y="572" type="line"/>
      <point x="351" y="551"/>
      <point x="373" y="524"/>
      <point x="389" y="492" type="curve" smooth="yes"/>
      <point x="405" y="460"/>
      <point x="413" y="422"/>
      <point x="414" y="377" type="curve"/>
      <point x="396" y="406"/>
      <point x="373" y="428"/>
      <point x="345" y="442" type="curve" smooth="yes"/>
      <point x="317" y="456"/>
      <point x="286" y="464"/>
      <point x="253" y="464" type="curve" smooth="yes"/>
      <point x="218" y="464"/>
      <point x="187" y="457"/>
      <point x="158" y="445" type="curve" smooth="yes"/>
      <point x="129" y="433"/>
      <point x="103" y="416"/>
      <point x="81" y="395" type="curve" smooth="yes"/>
      <point x="59" y="374"/>
      <point x="42" y="350"/>
      <point x="28" y="322" type="curve" smooth="yes"/>
      <point x="14" y="294"/>
      <point x="5" y="264"/>
      <point x="1" y="233" type="curve" smooth="yes"/>
      <point x="-4" y="196"/>
      <point x="-1" y="162"/>
      <point x="7" y="132" type="curve" smooth="yes"/>
      <point x="15" y="102"/>
      <point x="29" y="77"/>
      <point x="47" y="57" type="curve" smooth="yes"/>
      <point x="65" y="37"/>
      <point x="88" y="21"/>
      <point x="115" y="10" type="curve" smooth="yes"/>
      <point x="142" y="-1"/>
      <point x="172" y="-6"/>
      <point x="205" y="-6" type="curve" smooth="yes"/>
      <point x="245" y="-6"/>
      <point x="281" y="1"/>
      <point x="313" y="15" type="curve" smooth="yes"/>
      <point x="345" y="29"/>
      <point x="373" y="49"/>
      <point x="397" y="76" type="curve" smooth="yes"/>
      <point x="421" y="103"/>
      <point x="440" y="136"/>
      <point x="455" y="174" type="curve" smooth="yes"/>
      <point x="470" y="212"/>
      <point x="480" y="254"/>
      <point x="486" y="302" type="curve" smooth="yes"/>
      <point x="491" y="339"/>
      <point x="492" y="372"/>
      <point x="489" y="403" type="curve" smooth="yes"/>
      <point x="486" y="434"/>
      <point x="480" y="462"/>
      <point x="472" y="488" type="curve" smooth="yes"/>
      <point x="464" y="514"/>
      <point x="453" y="537"/>
      <point x="439" y="558" type="curve" smooth="yes"/>
      <point x="425" y="579"/>
      <point x="409" y="598"/>
      <point x="391" y="614" type="curve"/>
      <point x="443" y="647" type="line" smooth="yes"/>
      <point x="451" y="652"/>
      <point x="456" y="659"/>
      <point x="457" y="666" type="curve"/>
      <point x="457" y="670"/>
      <point x="456" y="674"/>
      <point x="454" y="678" type="curve" smooth="yes"/>
      <point x="440" y="706" type="line"/>
      <point x="349" y="645" type="line"/>
      <point x="324" y="661"/>
      <point x="297" y="674"/>
      <point x="268" y="684" type="curve" smooth="yes"/>
      <point x="239" y="694"/>
      <point x="209" y="702"/>
      <point x="178" y="707" type="curve"/>
      <point x="164" y="676" type="line"/>
      <point x="162" y="671"/>
      <point x="161" y="667"/>
      <point x="160" y="662" type="curve"/>
      <point x="159" y="654"/>
      <point x="160" y="648"/>
      <point x="164" y="643" type="curve"/>
      <point x="168" y="639"/>
      <point x="172" y="636"/>
      <point x="178" y="634" type="curve"/>
      <point x="196" y="629"/>
      <point x="214" y="624"/>
      <point x="230" y="618" type="curve" smooth="yes"/>
      <point x="246" y="612"/>
      <point x="261" y="607"/>
      <point x="275" y="600" type="curve"/>
      <point x="220" y="564" type="line" smooth="yes"/>
      <point x="212" y="559"/>
      <point x="207" y="553"/>
      <point x="206" y="546" type="curve"/>
      <point x="206" y="544"/>
      <point x="205" y="541"/>
      <point x="206" y="539" type="curve" smooth="yes"/>
      <point x="207" y="537"/>
      <point x="208" y="534"/>
      <point x="209" y="532" type="curve" smooth="yes"/>
    </contour>
    <contour>
      <point x="195" y="62"/>
      <point x="177" y="66"/>
      <point x="160" y="74" type="curve" smooth="yes"/>
      <point x="143" y="82"/>
      <point x="130" y="92"/>
      <point x="118" y="106" type="curve" smooth="yes"/>
      <point x="106" y="120"/>
      <point x="98" y="139"/>
      <point x="93" y="160" type="curve" smooth="yes"/>
      <point x="88" y="181"/>
      <point x="87" y="205"/>
      <point x="90" y="232" type="curve" smooth="yes"/>
      <point x="93" y="255"/>
      <point x="99" y="276"/>
      <point x="108" y="296" type="curve" smooth="yes"/>
      <point x="117" y="316"/>
      <point x="129" y="333"/>
      <point x="143" y="347" type="curve" smooth="yes"/>
      <point x="157" y="361"/>
      <point x="174" y="374"/>
      <point x="194" y="382" type="curve" smooth="yes"/>
      <point x="214" y="390"/>
      <point x="237" y="394"/>
      <point x="262" y="394" type="curve" smooth="yes"/>
      <point x="283" y="394"/>
      <point x="300" y="391"/>
      <point x="316" y="385" type="curve" smooth="yes"/>
      <point x="332" y="379"/>
      <point x="346" y="370"/>
      <point x="357" y="360" type="curve" smooth="yes"/>
      <point x="368" y="350"/>
      <point x="377" y="338"/>
      <point x="384" y="324" type="curve" smooth="yes"/>
      <point x="391" y="311"/>
      <point x="396" y="296"/>
      <point x="400" y="282" type="curve"/>
      <point x="394" y="245"/>
      <point x="386" y="213"/>
      <point x="375" y="185" type="curve" smooth="yes"/>
      <point x="364" y="157"/>
      <point x="351" y="135"/>
      <point x="335" y="117" type="curve" smooth="yes"/>
      <point x="319" y="99"/>
      <point x="301" y="85"/>
      <point x="281" y="76" type="curve" smooth="yes"/>
      <point x="261" y="67"/>
      <point x="239" y="62"/>
      <point x="215" y="62" type="curve" smooth="yes"/>
    </contour>
  </outline>
</glyph>
<glyph name="ntilde" format="1">
  <advance width="573"/>
  <unicode hex="00F1"/>
  <note>
    ntilde
  </note>
  <outline>
    <contour>
      <point x="515" y="62"/>
      <point x="497" y="67"/>
      <point x="465" y="73" type="curve"/>
      <point x="496" y="322" type="line" smooth="yes"/>
      <point x="510" y="438"/>
      <point x="460" y="515"/>
      <point x="350" y="515" type="curve" smooth="yes"/>
      <point x="287" y="515"/>
      <point x="228" y="487"/>
      <point x="172" y="433" type="curve"/>
      <point x="172" y="488" type="line"/>
      <point x="170" y="500"/>
      <point x="163" y="506"/>
      <point x="150" y="506" type="curve" smooth="yes"/>
      <point x="25" y="506" type="line"/>
      <point x="20" y="464" type="line" smooth="yes"/>
      <point x="19" y="454"/>
      <point x="22" y="447"/>
      <point x="32" y="445" type="curve" smooth="yes"/>
      <point x="38" y="444"/>
      <point x="57" y="439"/>
      <point x="88" y="433" type="curve"/>
      <point x="35" y="0" type="line"/>
      <point x="124" y="0" type="line"/>
      <point x="170" y="373" type="line"/>
      <point x="218" y="420"/>
      <point x="266" y="443"/>
      <point x="315" y="443" type="curve" smooth="yes"/>
      <point x="386" y="443"/>
      <point x="417" y="403"/>
      <point x="407" y="322" type="curve" smooth="yes"/>
      <point x="367" y="0" type="line"/>
      <point x="529" y="0" type="line"/>
      <point x="534" y="43" type="line" smooth="yes"/>
      <point x="535" y="53"/>
      <point x="531" y="59"/>
      <point x="521" y="61" type="curve" smooth="yes"/>
    </contour>
    <contour>
      <point x="373" y="663"/>
      <point x="365" y="665"/>
      <point x="358" y="670" type="curve" smooth="yes"/>
      <point x="351" y="675"/>
      <point x="343" y="680"/>
      <point x="335" y="686" type="curve" smooth="yes"/>
      <point x="327" y="692"/>
      <point x="318" y="696"/>
      <point x="308" y="701" type="curve" smooth="yes"/>
      <point x="298" y="706"/>
      <point x="288" y="708"/>
      <point x="276" y="708" type="curve" smooth="yes"/>
      <point x="263" y="708"/>
      <point x="251" y="706"/>
      <point x="239" y="701" type="curve" smooth="yes"/>
      <point x="227" y="696"/>
      <point x="217" y="689"/>
      <point x="208" y="679" type="curve"/>
      <point x="199" y="670"/>
      <point x="191" y="658"/>
      <point x="185" y="645" type="curve" smooth="yes"/>
      <point x="179" y="632"/>
      <point x="176" y="617"/>
      <point x="174" y="601" type="curve"/>
      <point x="229" y="601" type="line"/>
      <point x="233" y="630"/>
      <point x="248" y="645"/>
      <point x="272" y="645" type="curve" smooth="yes"/>
      <point x="280" y="645"/>
      <point x="287" y="643"/>
      <point x="294" y="638" type="curve" smooth="yes"/>
      <point x="301" y="633"/>
      <point x="310" y="628"/>
      <point x="318" y="622" type="curve" smooth="yes"/>
      <point x="326" y="616"/>
      <point x="334" y="611"/>
      <point x="344" y="606" type="curve" smooth="yes"/>
      <point x="354" y="601"/>
      <point x="364" y="599"/>
      <point x="376" y="599" type="curve" smooth="yes"/>
      <point x="389" y="599"/>
      <point x="403" y="602"/>
      <point x="414" y="607" type="curve" smooth="yes"/>
      <point x="425" y="612"/>
      <point x="435" y="619"/>
      <point x="444" y="628" type="curve" smooth="yes"/>
      <point x="453" y="637"/>
      <point x="460" y="649"/>
      <point x="466" y="662" type="curve" smooth="yes"/>
      <point x="472" y="675"/>
      <point x="476" y="690"/>
      <point x="478" y="706" type="curve"/>
      <point x="424" y="706" type="line"/>
      <point x="422" y="691"/>
      <point x="417" y="680"/>
      <point x="410" y="673" type="curve" smooth="yes"/>
      <point x="403" y="666"/>
      <point x="393" y="663"/>
      <point x="381" y="663" type="curve" smooth="yes"/>
    </contour>
  </outline>
</glyph>
<glyph name="ograve" format="1">
  <advance width="510"/>
  <unicode hex="00F2"/>
  <note>
    ograve
  </note>
  <outline>
    <contour>
      <point x="242" y="514"/>
      <point x="208" y="508"/>
      <point x="177" y="496" type="curve" smooth="yes"/>
      <point x="146" y="484"/>
      <point x="118" y="467"/>
      <point x="94" y="444" type="curve" smooth="yes"/>
      <point x="70" y="421"/>
      <point x="51" y="393"/>
      <point x="36" y="361" type="curve" smooth="yes"/>
      <point x="21" y="329"/>
      <point x="10" y="294"/>
      <point x="5" y="254" type="curve" smooth="yes"/>
      <point x="0" y="214"/>
      <point x="2" y="178"/>
      <point x="9" y="146" type="curve" smooth="yes"/>
      <point x="16" y="114"/>
      <point x="30" y="87"/>
      <point x="48" y="64" type="curve" smooth="yes"/>
      <point x="66" y="41"/>
      <point x="89" y="23"/>
      <point x="117" y="11" type="curve" smooth="yes"/>
      <point x="145" y="-1"/>
      <point x="178" y="-7"/>
      <point x="215" y="-7" type="curve" smooth="yes"/>
      <point x="252" y="-7"/>
      <point x="287" y="-1"/>
      <point x="318" y="11" type="curve" smooth="yes"/>
      <point x="349" y="23"/>
      <point x="376" y="41"/>
      <point x="400" y="64" type="curve" smooth="yes"/>
      <point x="424" y="87"/>
      <point x="443" y="114"/>
      <point x="458" y="146" type="curve" smooth="yes"/>
      <point x="473" y="178"/>
      <point x="483" y="214"/>
      <point x="488" y="254" type="curve" smooth="yes"/>
      <point x="493" y="294"/>
      <point x="492" y="329"/>
      <point x="485" y="361" type="curve" smooth="yes"/>
      <point x="478" y="393"/>
      <point x="465" y="421"/>
      <point x="447" y="444" type="curve" smooth="yes"/>
      <point x="429" y="467"/>
      <point x="405" y="484"/>
      <point x="377" y="496" type="curve" smooth="yes"/>
      <point x="349" y="508"/>
      <point x="316" y="514"/>
      <point x="279" y="514" type="curve" smooth="yes"/>
    </contour>
    <contour>
      <point x="199" y="63"/>
      <point x="178" y="67"/>
      <point x="160" y="76" type="curve" smooth="yes"/>
      <point x="142" y="85"/>
      <point x="128" y="97"/>
      <point x="117" y="113" type="curve" smooth="yes"/>
      <point x="106" y="129"/>
      <point x="100" y="148"/>
      <point x="97" y="172" type="curve" smooth="yes"/>
      <point x="94" y="196"/>
      <point x="93" y="223"/>
      <point x="97" y="253" type="curve" smooth="yes"/>
      <point x="101" y="283"/>
      <point x="108" y="310"/>
      <point x="117" y="334" type="curve" smooth="yes"/>
      <point x="126" y="358"/>
      <point x="137" y="378"/>
      <point x="152" y="394" type="curve" smooth="yes"/>
      <point x="167" y="410"/>
      <point x="183" y="423"/>
      <point x="203" y="432" type="curve" smooth="yes"/>
      <point x="223" y="441"/>
      <point x="246" y="445"/>
      <point x="271" y="445" type="curve" smooth="yes"/>
      <point x="321" y="445"/>
      <point x="356" y="428"/>
      <point x="377" y="394" type="curve" smooth="yes"/>
      <point x="398" y="360"/>
      <point x="403" y="313"/>
      <point x="396" y="253" type="curve" smooth="yes"/>
      <point x="389" y="193"/>
      <point x="371" y="147"/>
      <point x="342" y="113" type="curve" smooth="yes"/>
      <point x="313" y="79"/>
      <point x="274" y="63"/>
      <point x="224" y="63" type="curve" smooth="yes"/>
    </contour>
    <contour>
      <point x="172" y="725" type="line"/>
      <point x="273" y="596" type="line" smooth="yes"/>
      <point x="277" y="591"/>
      <point x="281" y="587"/>
      <point x="285" y="585" type="curve" smooth="yes"/>
      <point x="289" y="583"/>
      <point x="295" y="582"/>
      <point x="302" y="582" type="curve" smooth="yes"/>
      <point x="353" y="582" type="line"/>
      <point x="293" y="703" type="line" smooth="yes"/>
      <point x="289" y="711"/>
      <point x="285" y="715"/>
      <point x="280" y="719" type="curve" smooth="yes"/>
      <point x="275" y="723"/>
      <point x="267" y="725"/>
      <point x="256" y="725" type="curve" smooth="yes"/>
    </contour>
  </outline>
</glyph>
<glyph name="otilde" format="1">
  <advance width="513"/>
  <unicode hex="00F5"/>
  <note>
    otilde
  </note>
  <outline>
    <contour>
      <point x="243" y="514"/>
      <point x="208" y="508"/>
      <point x="177" y="496" type="curve" smooth="yes"/>
      <point x="146" y="484"/>
      <point x="119" y="467"/>
      <point x="95" y="444" type="curve" smooth="yes"/>
      <point x="71" y="421"/>
      <point x="51" y="393"/>
      <point x="36" y="361" type="curve" smooth="yes"/>
      <point x="21" y="329"/>
      <point x="11" y="294"/>
      <point x="6" y="254" type="curve" smooth="yes"/>
      <point x="1" y="214"/>
      <point x="3" y="178"/>
      <point x="10" y="146" type="curve" smooth="yes"/>
      <point x="17" y="114"/>
      <point x="30" y="87"/>
      <point x="48" y="64" type="curve" smooth="yes"/>
      <point x="66" y="41"/>
      <point x="90" y="23"/>
      <point x="118" y="11" type="curve" smooth="yes"/>
      <point x="146" y="-1"/>
      <point x="179" y="-7"/>
      <point x="216" y="-7" type="curve" smooth="yes"/>
      <point x="253" y="-7"/>
      <point x="287" y="-1"/>
      <point x="318" y="11" type="curve" smooth="yes"/>
      <point x="349" y="23"/>
      <point x="377" y="41"/>
      <point x="401" y="64" type="curve" smooth="yes"/>
      <point x="425" y="87"/>
      <point x="444" y="114"/>
      <point x="459" y="146" type="curve" smooth="yes"/>
      <point x="474" y="178"/>
      <point x="484" y="214"/>
      <point x="489" y="254" type="curve" smooth="yes"/>
      <point x="494" y="294"/>
      <point x="492" y="329"/>
      <point x="485" y="361" type="curve" smooth="yes"/>
      <point x="478" y="393"/>
      <point x="466" y="421"/>
      <point x="448" y="444" type="curve" smooth="yes"/>
      <point x="430" y="467"/>
      <point x="406" y="484"/>
      <point x="378" y="496" type="curve" smooth="yes"/>
      <point x="350" y="508"/>
      <point x="317" y="514"/>
      <point x="280" y="514" type="curve" smooth="yes"/>
    </contour>
    <contour>
      <point x="199" y="63"/>
      <point x="178" y="67"/>
      <point x="160" y="76" type="curve" smooth="yes"/>
      <point x="142" y="85"/>
      <point x="129" y="97"/>
      <point x="118" y="113" type="curve" smooth="yes"/>
      <point x="107" y="129"/>
      <point x="100" y="148"/>
      <point x="97" y="172" type="curve" smooth="yes"/>
      <point x="94" y="196"/>
      <point x="94" y="223"/>
      <point x="98" y="253" type="curve" smooth="yes"/>
      <point x="102" y="283"/>
      <point x="108" y="310"/>
      <point x="117" y="334" type="curve" smooth="yes"/>
      <point x="126" y="358"/>
      <point x="137" y="378"/>
      <point x="152" y="394" type="curve" smooth="yes"/>
      <point x="167" y="410"/>
      <point x="184" y="423"/>
      <point x="204" y="432" type="curve" smooth="yes"/>
      <point x="224" y="441"/>
      <point x="246" y="445"/>
      <point x="271" y="445" type="curve" smooth="yes"/>
      <point x="321" y="445"/>
      <point x="356" y="428"/>
      <point x="377" y="394" type="curve" smooth="yes"/>
      <point x="398" y="360"/>
      <point x="404" y="313"/>
      <point x="397" y="253" type="curve" smooth="yes"/>
      <point x="390" y="193"/>
      <point x="372" y="147"/>
      <point x="343" y="113" type="curve" smooth="yes"/>
      <point x="314" y="79"/>
      <point x="274" y="63"/>
      <point x="224" y="63" type="curve" smooth="yes"/>
    </contour>
    <contour>
      <point x="346" y="663"/>
      <point x="339" y="665"/>
      <point x="332" y="670" type="curve" smooth="yes"/>
      <point x="325" y="675"/>
      <point x="316" y="680"/>
      <point x="308" y="686" type="curve" smooth="yes"/>
      <point x="300" y="692"/>
      <point x="292" y="696"/>
      <point x="282" y="701" type="curve" smooth="yes"/>
      <point x="272" y="706"/>
      <point x="262" y="708"/>
      <point x="250" y="708" type="curve" smooth="yes"/>
      <point x="237" y="708"/>
      <point x="225" y="706"/>
      <point x="213" y="701" type="curve" smooth="yes"/>
      <point x="201" y="696"/>
      <point x="191" y="689"/>
      <point x="182" y="679" type="curve"/>
      <point x="173" y="670"/>
      <point x="165" y="658"/>
      <point x="159" y="645" type="curve" smooth="yes"/>
      <point x="153" y="632"/>
      <point x="149" y="617"/>
      <point x="147" y="601" type="curve"/>
      <point x="203" y="601" type="line"/>
      <point x="207" y="630"/>
      <point x="221" y="645"/>
      <point x="245" y="645" type="curve" smooth="yes"/>
      <point x="253" y="645"/>
      <point x="261" y="643"/>
      <point x="268" y="638" type="curve" smooth="yes"/>
      <point x="275" y="633"/>
      <point x="283" y="628"/>
      <point x="291" y="622" type="curve" smooth="yes"/>
      <point x="299" y="616"/>
      <point x="308" y="611"/>
      <point x="318" y="606" type="curve" smooth="yes"/>
      <point x="328" y="601"/>
      <point x="338" y="599"/>
      <point x="350" y="599" type="curve" smooth="yes"/>
      <point x="363" y="599"/>
      <point x="376" y="602"/>
      <point x="387" y="607" type="curve" smooth="yes"/>
      <point x="398" y="612"/>
      <point x="409" y="619"/>
      <point x="418" y="628" type="curve" smooth="yes"/>
      <point x="427" y="637"/>
      <point x="434" y="649"/>
      <point x="440" y="662" type="curve" smooth="yes"/>
      <point x="446" y="675"/>
      <point x="449" y="690"/>
      <point x="451" y="706" type="curve"/>
      <point x="397" y="706" type="line"/>
      <point x="395" y="691"/>
      <point x="390" y="680"/>
      <point x="383" y="673" type="curve" smooth="yes"/>
      <point x="376" y="666"/>
      <point x="366" y="663"/>
      <point x="354" y="663" type="curve" smooth="yes"/>
    </contour>
  </outline>
</glyph>
<glyph name="odieresis" format="1">
  <advance width="511"/>
  <unicode hex="00F6"/>
  <note>
    odieresis
  </note>
  <outline>
    <contour>
      <point x="242" y="514"/>
      <point x="208" y="508"/>
      <point x="177" y="496" type="curve" smooth="yes"/>
      <point x="146" y="484"/>
      <point x="118" y="467"/>
      <point x="94" y="444" type="curve" smooth="yes"/>
      <point x="70" y="421"/>
      <point x="51" y="393"/>
      <point x="36" y="361" type="curve" smooth="yes"/>
      <point x="21" y="329"/>
      <point x="10" y="294"/>
      <point x="5" y="254" type="curve" smooth="yes"/>
      <point x="0" y="214"/>
      <point x="2" y="178"/>
      <point x="9" y="146" type="curve" smooth="yes"/>
      <point x="16" y="114"/>
      <point x="30" y="87"/>
      <point x="48" y="64" type="curve" smooth="yes"/>
      <point x="66" y="41"/>
      <point x="89" y="23"/>
      <point x="117" y="11" type="curve" smooth="yes"/>
      <point x="145" y="-1"/>
      <point x="178" y="-7"/>
      <point x="215" y="-7" type="curve" smooth="yes"/>
      <point x="252" y="-7"/>
      <point x="287" y="-1"/>
      <point x="318" y="11" type="curve" smooth="yes"/>
      <point x="349" y="23"/>
      <point x="376" y="41"/>
      <point x="400" y="64" type="curve" smooth="yes"/>
      <point x="424" y="87"/>
      <point x="443" y="114"/>
      <point x="458" y="146" type="curve" smooth="yes"/>
      <point x="473" y="178"/>
      <point x="483" y="214"/>
      <point x="488" y="254" type="curve" smooth="yes"/>
      <point x="493" y="294"/>
      <point x="492" y="329"/>
      <point x="485" y="361" type="curve" smooth="yes"/>
      <point x="478" y="393"/>
      <point x="465" y="421"/>
      <point x="447" y="444" type="curve" smooth="yes"/>
      <point x="429" y="467"/>
      <point x="405" y="484"/>
      <point x="377" y="496" type="curve" smooth="yes"/>
      <point x="349" y="508"/>
      <point x="316" y="514"/>
      <point x="279" y="514" type="curve" smooth="yes"/>
    </contour>
    <contour>
      <point x="199" y="63"/>
      <point x="178" y="67"/>
      <point x="160" y="76" type="curve" smooth="yes"/>
      <point x="142" y="85"/>
      <point x="128" y="97"/>
      <point x="117" y="113" type="curve" smooth="yes"/>
      <point x="106" y="129"/>
      <point x="100" y="148"/>
      <point x="97" y="172" type="curve" smooth="yes"/>
      <point x="94" y="196"/>
      <point x="93" y="223"/>
      <point x="97" y="253" type="curve" smooth="yes"/>
      <point x="101" y="283"/>
      <point x="108" y="310"/>
      <point x="117" y="334" type="curve" smooth="yes"/>
      <point x="126" y="358"/>
      <point x="137" y="378"/>
      <point x="152" y="394" type="curve" smooth="yes"/>
      <point x="167" y="410"/>
      <point x="183" y="423"/>
      <point x="203" y="432" type="curve" smooth="yes"/>
      <point x="223" y="441"/>
      <point x="246" y="445"/>
      <point x="271" y="445" type="curve" smooth="yes"/>
      <point x="321" y="445"/>
      <point x="356" y="428"/>
      <point x="377" y="394" type="curve" smooth="yes"/>
      <point x="398" y="360"/>
      <point x="403" y="313"/>
      <point x="396" y="253" type="curve" smooth="yes"/>
      <point x="389" y="193"/>
      <point x="371" y="147"/>
      <point x="342" y="113" type="curve" smooth="yes"/>
      <point x="313" y="79"/>
      <point x="274" y="63"/>
      <point x="224" y="63" type="curve" smooth="yes"/>
    </contour>
    <contour>
      <point x="263" y="653"/>
      <point x="263" y="660"/>
      <point x="261" y="667" type="curve" smooth="yes"/>
      <point x="259" y="674"/>
      <point x="255" y="680"/>
      <point x="250" y="685" type="curve" smooth="yes"/>
      <point x="245" y="690"/>
      <point x="240" y="694"/>
      <point x="234" y="697" type="curve" smooth="yes"/>
      <point x="228" y="700"/>
      <point x="220" y="702"/>
      <point x="212" y="702" type="curve" smooth="yes"/>
      <point x="205" y="702"/>
      <point x="198" y="700"/>
      <point x="191" y="697" type="curve" smooth="yes"/>
      <point x="184" y="694"/>
      <point x="178" y="690"/>
      <point x="172" y="685" type="curve" smooth="yes"/>
      <point x="166" y="680"/>
      <point x="161" y="674"/>
      <point x="157" y="667" type="curve" smooth="yes"/>
      <point x="153" y="660"/>
      <point x="151" y="653"/>
      <point x="150" y="645" type="curve" smooth="yes"/>
      <point x="149" y="637"/>
      <point x="150" y="630"/>
      <point x="152" y="623" type="curve" smooth="yes"/>
      <point x="154" y="616"/>
      <point x="157" y="611"/>
      <point x="162" y="606" type="curve" smooth="yes"/>
      <point x="167" y="601"/>
      <point x="172" y="597"/>
      <point x="178" y="594" type="curve" smooth="yes"/>
      <point x="184" y="591"/>
      <point x="192" y="589"/>
      <point x="199" y="589" type="curve" smooth="yes"/>
      <point x="207" y="589"/>
      <point x="214" y="591"/>
      <point x="221" y="594" type="curve" smooth="yes"/>
      <point x="228" y="597"/>
      <point x="235" y="601"/>
      <point x="241" y="606" type="curve" smooth="yes"/>
      <point x="247" y="611"/>
      <point x="251" y="616"/>
      <point x="255" y="623" type="curve" smooth="yes"/>
      <point x="259" y="630"/>
      <point x="261" y="637"/>
      <point x="262" y="645" type="curve" smooth="yes"/>
    </contour>
    <contour>
      <point x="443" y="652"/>
      <point x="442" y="659"/>
      <point x="440" y="666" type="curve" smooth="yes"/>
      <point x="438" y="673"/>
      <point x="435" y="680"/>
      <point x="430" y="685" type="curve" smooth="yes"/>
      <point x="425" y="690"/>
      <point x="420" y="694"/>
      <point x="414" y="697" type="curve" smooth="yes"/>
      <point x="408" y="700"/>
      <point x="400" y="702"/>
      <point x="392" y="702" type="curve" smooth="yes"/>
      <point x="384" y="702"/>
      <point x="377" y="700"/>
      <point x="370" y="697" type="curve" smooth="yes"/>
      <point x="363" y="694"/>
      <point x="357" y="690"/>
      <point x="351" y="685" type="curve" smooth="yes"/>
      <point x="345" y="680"/>
      <point x="341" y="673"/>
      <point x="337" y="666" type="curve" smooth="yes"/>
      <point x="333" y="659"/>
      <point x="330" y="652"/>
      <point x="329" y="644" type="curve" smooth="yes"/>
      <point x="328" y="636"/>
      <point x="329" y="630"/>
      <point x="331" y="623" type="curve" smooth="yes"/>
      <point x="333" y="616"/>
      <point x="337" y="611"/>
      <point x="341" y="606" type="curve" smooth="yes"/>
      <point x="345" y="601"/>
      <point x="351" y="597"/>
      <point x="357" y="594" type="curve" smooth="yes"/>
      <point x="363" y="591"/>
      <point x="371" y="589"/>
      <point x="379" y="589" type="curve" smooth="yes"/>
      <point x="387" y="589"/>
      <point x="394" y="591"/>
      <point x="401" y="594" type="curve" smooth="yes"/>
      <point x="408" y="597"/>
      <point x="414" y="601"/>
      <point x="420" y="606" type="curve" smooth="yes"/>
      <point x="426" y="611"/>
      <point x="431" y="616"/>
      <point x="435" y="623" type="curve" smooth="yes"/>
      <point x="439" y="630"/>
      <point x="441" y="636"/>
      <point x="442" y="644" type="curve" smooth="yes"/>
    </contour>
  </outline>
</glyph>
<glyph name="ydieresis" format="1">
  <advance width="555"/>
  <unicode hex="00FF"/>
  <note>
    ydieresis
  </note>
  <outline>
    <contour>
      <point x="536" y="506" type="line"/>
      <point x="348" y="506" type="line"/>
      <point x="343" y="464" type="line" smooth="yes"/>
      <point x="342" y="454"/>
      <point x="346" y="447"/>
      <point x="355" y="445" type="curve" smooth="yes"/>
      <point x="364" y="443"/>
      <point x="382" y="439"/>
      <point x="408" y="434" type="curve"/>
      <point x="266" y="170" type="line" smooth="yes"/>
      <point x="261" y="160"/>
      <point x="254" y="144"/>
      <point x="246" y="124" type="curve"/>
      <point x="244" y="140"/>
      <point x="242" y="156"/>
      <point x="238" y="169" type="curve" smooth="yes"/>
      <point x="158" y="434" type="line"/>
      <point x="190" y="440"/>
      <point x="209" y="444"/>
      <point x="214" y="445" type="curve" smooth="yes"/>
      <point x="224" y="447"/>
      <point x="230" y="454"/>
      <point x="231" y="464" type="curve" smooth="yes"/>
      <point x="236" y="506" type="line"/>
      <point x="9" y="506" type="line"/>
      <point x="4" y="464" type="line" smooth="yes"/>
      <point x="3" y="454"/>
      <point x="7" y="447"/>
      <point x="17" y="445" type="curve" smooth="yes"/>
      <point x="23" y="444"/>
      <point x="37" y="441"/>
      <point x="61" y="436" type="curve"/>
      <point x="189" y="30" type="line"/>
      <point x="72" y="-172" type="line"/>
      <point x="138" y="-172" type="line" smooth="yes"/>
      <point x="153" y="-172"/>
      <point x="165" y="-165"/>
      <point x="173" y="-150" type="curve" smooth="yes"/>
      <point x="496" y="434" type="line"/>
      <point x="499" y="434"/>
      <point x="508" y="437"/>
      <point x="523" y="440" type="curve" smooth="yes"/>
      <point x="538" y="443"/>
      <point x="547" y="444"/>
      <point x="550" y="445" type="curve"/>
      <point x="560" y="447"/>
      <point x="566" y="454"/>
      <point x="567" y="464" type="curve" smooth="yes"/>
      <point x="572" y="506" type="line"/>
    </contour>
    <contour>
      <point x="283" y="652"/>
      <point x="283" y="659"/>
      <point x="281" y="666" type="curve" smooth="yes"/>
      <point x="279" y="673"/>
      <point x="275" y="680"/>
      <point x="270" y="685" type="curve" smooth="yes"/>
      <point x="265" y="690"/>
      <point x="260" y="694"/>
      <point x="254" y="697" type="curve" smooth="yes"/>
      <point x="248" y="700"/>
      <point x="240" y="702"/>
      <point x="232" y="702" type="curve" smooth="yes"/>
      <point x="225" y="702"/>
      <point x="218" y="700"/>
      <point x="211" y="697" type="curve" smooth="yes"/>
      <point x="204" y="694"/>
      <point x="198" y="690"/>
      <point x="192" y="685" type="curve" smooth="yes"/>
      <point x="186" y="680"/>
      <point x="181" y="673"/>
      <point x="177" y="666" type="curve" smooth="yes"/>
      <point x="173" y="659"/>
      <point x="171" y="652"/>
      <point x="170" y="644" type="curve" smooth="yes"/>
      <point x="169" y="636"/>
      <point x="170" y="630"/>
      <point x="172" y="623" type="curve" smooth="yes"/>
      <point x="174" y="616"/>
      <point x="177" y="611"/>
      <point x="182" y="606" type="curve" smooth="yes"/>
      <point x="187" y="601"/>
      <point x="192" y="597"/>
      <point x="198" y="594" type="curve" smooth="yes"/>
      <point x="204" y="591"/>
      <point x="212" y="589"/>
      <point x="219" y="589" type="curve" smooth="yes"/>
      <point x="227" y="589"/>
      <point x="234" y="591"/>
      <point x="241" y="594" type="curve" smooth="yes"/>
      <point x="248" y="597"/>
      <point x="255" y="601"/>
      <point x="261" y="606" type="curve" smooth="yes"/>
      <point x="267" y="611"/>
      <point x="271" y="616"/>
      <point x="275" y="623" type="curve" smooth="yes"/>
      <point x="279" y="630"/>
      <point x="281" y="636"/>
      <point x="282" y="644" type="curve" smooth="yes"/>
    </contour>
    <contour>
      <point x="463" y="652"/>
      <point x="462" y="659"/>
      <point x="460" y="666" type="curve" smooth="yes"/>
      <point x="458" y="673"/>
      <point x="455" y="680"/>
      <point x="450" y="685" type="curve" smooth="yes"/>
      <point x="445" y="690"/>
      <point x="440" y="694"/>
      <point x="434" y="697" type="curve" smooth="yes"/>
      <point x="428" y="700"/>
      <point x="420" y="702"/>
      <point x="412" y="702" type="curve" smooth="yes"/>
      <point x="404" y="702"/>
      <point x="397" y="700"/>
      <point x="390" y="697" type="curve" smooth="yes"/>
      <point x="383" y="694"/>
      <point x="377" y="690"/>
      <point x="371" y="685" type="curve" smooth="yes"/>
      <point x="365" y="680"/>
      <point x="361" y="673"/>
      <point x="357" y="666" type="curve" smooth="yes"/>
      <point x="353" y="659"/>
      <point x="350" y="652"/>
      <point x="349" y="644" type="curve" smooth="yes"/>
      <point x="348" y="636"/>
      <point x="349" y="630"/>
      <point x="351" y="623" type="curve" smooth="yes"/>
      <point x="353" y="616"/>
      <point x="357" y="611"/>
      <point x="361" y="606" type="curve" smooth="yes"/>
      <point x="365" y="601"/>
      <point x="371" y="597"/>
      <point x="377" y="594" type="curve" smooth="yes"/>
      <point x="383" y="591"/>
      <point x="391" y="589"/>
      <point x="399" y="589" type="curve" smooth="yes"/>
      <point x="407" y="589"/>
      <point x="414" y="591"/>
      <point x="421" y="594" type="curve" smooth="yes"/>
      <point x="428" y="597"/>
      <point x="434" y="601"/>
      <point x="440" y="606" type="curve" smooth="yes"/>
      <point x="446" y="611"/>
      <point x="451" y="616"/>
      <point x="455" y="623" type="curve" smooth="yes"/>
      <point x="459" y="630"/>
      <point x="461" y="636"/>
      <point x="462" y="644" type="curve" smooth="yes"/>
    </contour>
  </outline>
</glyph>
<glyph name="cacute" format="1">
  <advance width="437"/>
  <unicode hex="0107"/>
  <note>
    cacute
  </note>
  <outline>
    <contour>
      <point x="373" y="104" type="line"/>
      <point x="370" y="110"/>
      <point x="365" y="112"/>
      <point x="358" y="112" type="curve" smooth="yes"/>
      <point x="351" y="112"/>
      <point x="345" y="109"/>
      <point x="338" y="104" type="curve"/>
      <point x="302" y="76"/>
      <point x="263" y="62"/>
      <point x="221" y="62" type="curve" smooth="yes"/>
      <point x="175" y="62"/>
      <point x="142" y="79"/>
      <point x="120" y="112" type="curve" smooth="yes"/>
      <point x="98" y="146"/>
      <point x="90" y="194"/>
      <point x="97" y="254" type="curve" smooth="yes"/>
      <point x="104" y="314"/>
      <point x="123" y="360"/>
      <point x="153" y="394" type="curve" smooth="yes"/>
      <point x="168" y="411"/>
      <point x="185" y="423"/>
      <point x="204" y="431" type="curve" smooth="yes"/>
      <point x="223" y="439"/>
      <point x="243" y="444"/>
      <point x="261" y="444" type="curve" smooth="yes"/>
      <point x="279" y="444"/>
      <point x="298" y="443"/>
      <point x="317" y="440" type="curve"/>
      <point x="326" y="439"/>
      <point x="337" y="436"/>
      <point x="352" y="431" type="curve"/>
      <point x="352" y="430"/>
      <point x="352" y="419"/>
      <point x="351" y="398" type="curve" smooth="yes"/>
      <point x="350" y="377"/>
      <point x="349" y="364"/>
      <point x="350" y="360" type="curve"/>
      <point x="351" y="351"/>
      <point x="355" y="346"/>
      <point x="365" y="346" type="curve" smooth="yes"/>
      <point x="405" y="346" type="line"/>
      <point x="422" y="478" type="line"/>
      <point x="364" y="503"/>
      <point x="315" y="515"/>
      <point x="276" y="515" type="curve" smooth="yes"/>
      <point x="201" y="515"/>
      <point x="139" y="490"/>
      <point x="90" y="441" type="curve" smooth="yes"/>
      <point x="43" y="394"/>
      <point x="16" y="332"/>
      <point x="6" y="254" type="curve" smooth="yes"/>
      <point x="-4" y="173"/>
      <point x="10" y="109"/>
      <point x="47" y="62" type="curve" smooth="yes"/>
      <point x="82" y="16"/>
      <point x="132" y="-7"/>
      <point x="197" y="-7" type="curve" smooth="yes"/>
      <point x="279" y="-7"/>
      <point x="345" y="19"/>
      <point x="394" y="71" type="curve"/>
    </contour>
    <contour>
      <point x="446" y="725" type="line"/>
      <point x="359" y="725" type="line" smooth="yes"/>
      <point x="348" y="725"/>
      <point x="341" y="723"/>
      <point x="335" y="719" type="curve"/>
      <point x="329" y="716"/>
      <point x="323" y="711"/>
      <point x="317" y="703" type="curve" smooth="yes"/>
      <point x="228" y="582" type="line"/>
      <point x="281" y="582" type="line" smooth="yes"/>
      <point x="288" y="582"/>
      <point x="294" y="583"/>
      <point x="299" y="585" type="curve" smooth="yes"/>
      <point x="304" y="587"/>
      <point x="309" y="591"/>
      <point x="314" y="596" type="curve" smooth="yes"/>
    </contour>
  </outline>
</glyph>
